%TF.GenerationSoftware,KiCad,Pcbnew,(6.0.4)*%
%TF.CreationDate,2023-06-25T20:19:56+02:00*%
%TF.ProjectId,CH376_MCP795_Module,43483337-365f-44d4-9350-3739355f4d6f,rev?*%
%TF.SameCoordinates,Original*%
%TF.FileFunction,Soldermask,Bot*%
%TF.FilePolarity,Negative*%
%FSLAX46Y46*%
G04 Gerber Fmt 4.6, Leading zero omitted, Abs format (unit mm)*
G04 Created by KiCad (PCBNEW (6.0.4)) date 2023-06-25 20:19:56*
%MOMM*%
%LPD*%
G01*
G04 APERTURE LIST*
%ADD10C,1.600000*%
%ADD11O,1.600000X1.600000*%
%ADD12R,1.800000X1.800000*%
%ADD13C,1.800000*%
%ADD14R,1.700000X1.700000*%
%ADD15O,1.700000X1.700000*%
%ADD16C,1.000000*%
%ADD17C,1.500000*%
%ADD18R,2.280000X2.280000*%
%ADD19C,2.280000*%
%ADD20R,1.524000X1.524000*%
%ADD21C,1.524000*%
%ADD22C,3.500000*%
G04 APERTURE END LIST*
D10*
%TO.C,R0*%
X137922000Y-142240000D03*
D11*
X137922000Y-144780000D03*
%TD*%
D10*
%TO.C,C1*%
X152400000Y-112522000D03*
X157400000Y-112522000D03*
%TD*%
D12*
%TO.C,D0*%
X160015000Y-104648000D03*
D13*
X162555000Y-104648000D03*
%TD*%
D10*
%TO.C,C0*%
X159258000Y-135810000D03*
X159258000Y-130810000D03*
%TD*%
D14*
%TO.C,J2*%
X142240000Y-142240000D03*
D15*
X142240000Y-144780000D03*
X144780000Y-142240000D03*
X144780000Y-144780000D03*
X147320000Y-142240000D03*
X147320000Y-144780000D03*
X149860000Y-142240000D03*
X149860000Y-144780000D03*
X152400000Y-142240000D03*
X152400000Y-144780000D03*
X154940000Y-142240000D03*
X154940000Y-144780000D03*
%TD*%
D16*
%TO.C,Y0*%
X147828000Y-130434000D03*
X147828000Y-132334000D03*
%TD*%
D10*
%TO.C,R1*%
X134620000Y-142240000D03*
D11*
X134620000Y-144780000D03*
%TD*%
D14*
%TO.C,J0*%
X162560000Y-130810000D03*
D15*
X162560000Y-133350000D03*
X162560000Y-135890000D03*
X162560000Y-138430000D03*
X162560000Y-140970000D03*
X162560000Y-143510000D03*
%TD*%
D10*
%TO.C,R2*%
X156210000Y-107188000D03*
D11*
X156210000Y-104648000D03*
%TD*%
D17*
%TO.C,Y1*%
X161290000Y-123244000D03*
X161290000Y-118364000D03*
%TD*%
D10*
%TO.C,C2*%
X135382000Y-112522000D03*
X140382000Y-112522000D03*
%TD*%
D18*
%TO.C,BT0*%
X156718000Y-120650000D03*
D19*
X136228000Y-120650000D03*
%TD*%
D20*
%TO.C,J1*%
X139446000Y-107188000D03*
D21*
X141946000Y-107188000D03*
X143946000Y-107188000D03*
X146446000Y-107188000D03*
D22*
X136376000Y-104478000D03*
X149516000Y-104478000D03*
%TD*%
M02*
