%TF.GenerationSoftware,KiCad,Pcbnew,(6.0.4)*%
%TF.CreationDate,2023-06-25T20:19:56+02:00*%
%TF.ProjectId,CH376_MCP795_Module,43483337-365f-44d4-9350-3739355f4d6f,rev?*%
%TF.SameCoordinates,Original*%
%TF.FileFunction,Legend,Top*%
%TF.FilePolarity,Positive*%
%FSLAX46Y46*%
G04 Gerber Fmt 4.6, Leading zero omitted, Abs format (unit mm)*
G04 Created by KiCad (PCBNEW (6.0.4)) date 2023-06-25 20:19:56*
%MOMM*%
%LPD*%
G01*
G04 APERTURE LIST*
%ADD10C,0.300000*%
%ADD11C,0.150000*%
%ADD12C,0.120000*%
G04 APERTURE END LIST*
D10*
X134394285Y-135361071D02*
X133894285Y-134646785D01*
X133537142Y-135361071D02*
X133537142Y-133861071D01*
X134108571Y-133861071D01*
X134251428Y-133932500D01*
X134322857Y-134003928D01*
X134394285Y-134146785D01*
X134394285Y-134361071D01*
X134322857Y-134503928D01*
X134251428Y-134575357D01*
X134108571Y-134646785D01*
X133537142Y-134646785D01*
X134822857Y-133861071D02*
X135680000Y-133861071D01*
X135251428Y-135361071D02*
X135251428Y-133861071D01*
X137037142Y-135218214D02*
X136965714Y-135289642D01*
X136751428Y-135361071D01*
X136608571Y-135361071D01*
X136394285Y-135289642D01*
X136251428Y-135146785D01*
X136180000Y-135003928D01*
X136108571Y-134718214D01*
X136108571Y-134503928D01*
X136180000Y-134218214D01*
X136251428Y-134075357D01*
X136394285Y-133932500D01*
X136608571Y-133861071D01*
X136751428Y-133861071D01*
X136965714Y-133932500D01*
X137037142Y-134003928D01*
X137680000Y-134789642D02*
X138822857Y-134789642D01*
X138251428Y-135361071D02*
X138251428Y-134218214D01*
X139537142Y-133861071D02*
X139537142Y-135075357D01*
X139608571Y-135218214D01*
X139680000Y-135289642D01*
X139822857Y-135361071D01*
X140108571Y-135361071D01*
X140251428Y-135289642D01*
X140322857Y-135218214D01*
X140394285Y-135075357D01*
X140394285Y-133861071D01*
X141037142Y-135289642D02*
X141251428Y-135361071D01*
X141608571Y-135361071D01*
X141751428Y-135289642D01*
X141822857Y-135218214D01*
X141894285Y-135075357D01*
X141894285Y-134932500D01*
X141822857Y-134789642D01*
X141751428Y-134718214D01*
X141608571Y-134646785D01*
X141322857Y-134575357D01*
X141180000Y-134503928D01*
X141108571Y-134432500D01*
X141037142Y-134289642D01*
X141037142Y-134146785D01*
X141108571Y-134003928D01*
X141180000Y-133932500D01*
X141322857Y-133861071D01*
X141680000Y-133861071D01*
X141894285Y-133932500D01*
X143037142Y-134575357D02*
X143251428Y-134646785D01*
X143322857Y-134718214D01*
X143394285Y-134861071D01*
X143394285Y-135075357D01*
X143322857Y-135218214D01*
X143251428Y-135289642D01*
X143108571Y-135361071D01*
X142537142Y-135361071D01*
X142537142Y-133861071D01*
X143037142Y-133861071D01*
X143180000Y-133932500D01*
X143251428Y-134003928D01*
X143322857Y-134146785D01*
X143322857Y-134289642D01*
X143251428Y-134432500D01*
X143180000Y-134503928D01*
X143037142Y-134575357D01*
X142537142Y-134575357D01*
X134858571Y-137776071D02*
X134858571Y-136276071D01*
X135358571Y-137347500D01*
X135858571Y-136276071D01*
X135858571Y-137776071D01*
X136787142Y-137776071D02*
X136644285Y-137704642D01*
X136572857Y-137633214D01*
X136501428Y-137490357D01*
X136501428Y-137061785D01*
X136572857Y-136918928D01*
X136644285Y-136847500D01*
X136787142Y-136776071D01*
X137001428Y-136776071D01*
X137144285Y-136847500D01*
X137215714Y-136918928D01*
X137287142Y-137061785D01*
X137287142Y-137490357D01*
X137215714Y-137633214D01*
X137144285Y-137704642D01*
X137001428Y-137776071D01*
X136787142Y-137776071D01*
X138572857Y-137776071D02*
X138572857Y-136276071D01*
X138572857Y-137704642D02*
X138430000Y-137776071D01*
X138144285Y-137776071D01*
X138001428Y-137704642D01*
X137930000Y-137633214D01*
X137858571Y-137490357D01*
X137858571Y-137061785D01*
X137930000Y-136918928D01*
X138001428Y-136847500D01*
X138144285Y-136776071D01*
X138430000Y-136776071D01*
X138572857Y-136847500D01*
X139930000Y-136776071D02*
X139930000Y-137776071D01*
X139287142Y-136776071D02*
X139287142Y-137561785D01*
X139358571Y-137704642D01*
X139501428Y-137776071D01*
X139715714Y-137776071D01*
X139858571Y-137704642D01*
X139930000Y-137633214D01*
X140858571Y-137776071D02*
X140715714Y-137704642D01*
X140644285Y-137561785D01*
X140644285Y-136276071D01*
X142001428Y-137704642D02*
X141858571Y-137776071D01*
X141572857Y-137776071D01*
X141430000Y-137704642D01*
X141358571Y-137561785D01*
X141358571Y-136990357D01*
X141430000Y-136847500D01*
X141572857Y-136776071D01*
X141858571Y-136776071D01*
X142001428Y-136847500D01*
X142072857Y-136990357D01*
X142072857Y-137133214D01*
X141358571Y-137276071D01*
D11*
%TO.C,R0*%
X137755333Y-140152380D02*
X137422000Y-139676190D01*
X137183904Y-140152380D02*
X137183904Y-139152380D01*
X137564857Y-139152380D01*
X137660095Y-139200000D01*
X137707714Y-139247619D01*
X137755333Y-139342857D01*
X137755333Y-139485714D01*
X137707714Y-139580952D01*
X137660095Y-139628571D01*
X137564857Y-139676190D01*
X137183904Y-139676190D01*
X138374380Y-139152380D02*
X138469619Y-139152380D01*
X138564857Y-139200000D01*
X138612476Y-139247619D01*
X138660095Y-139342857D01*
X138707714Y-139533333D01*
X138707714Y-139771428D01*
X138660095Y-139961904D01*
X138612476Y-140057142D01*
X138564857Y-140104761D01*
X138469619Y-140152380D01*
X138374380Y-140152380D01*
X138279142Y-140104761D01*
X138231523Y-140057142D01*
X138183904Y-139961904D01*
X138136285Y-139771428D01*
X138136285Y-139533333D01*
X138183904Y-139342857D01*
X138231523Y-139247619D01*
X138279142Y-139200000D01*
X138374380Y-139152380D01*
X136977619Y-146137380D02*
X137596666Y-146137380D01*
X137263333Y-146518333D01*
X137406190Y-146518333D01*
X137501428Y-146565952D01*
X137549047Y-146613571D01*
X137596666Y-146708809D01*
X137596666Y-146946904D01*
X137549047Y-147042142D01*
X137501428Y-147089761D01*
X137406190Y-147137380D01*
X137120476Y-147137380D01*
X137025238Y-147089761D01*
X136977619Y-147042142D01*
X138025238Y-147042142D02*
X138072857Y-147089761D01*
X138025238Y-147137380D01*
X137977619Y-147089761D01*
X138025238Y-147042142D01*
X138025238Y-147137380D01*
X138406190Y-146137380D02*
X139025238Y-146137380D01*
X138691904Y-146518333D01*
X138834761Y-146518333D01*
X138930000Y-146565952D01*
X138977619Y-146613571D01*
X139025238Y-146708809D01*
X139025238Y-146946904D01*
X138977619Y-147042142D01*
X138930000Y-147089761D01*
X138834761Y-147137380D01*
X138549047Y-147137380D01*
X138453809Y-147089761D01*
X138406190Y-147042142D01*
X139453809Y-147137380D02*
X139453809Y-146137380D01*
X139549047Y-146756428D02*
X139834761Y-147137380D01*
X139834761Y-146470714D02*
X139453809Y-146851666D01*
%TO.C,C1*%
X150201333Y-112879142D02*
X150153714Y-112926761D01*
X150010857Y-112974380D01*
X149915619Y-112974380D01*
X149772761Y-112926761D01*
X149677523Y-112831523D01*
X149629904Y-112736285D01*
X149582285Y-112545809D01*
X149582285Y-112402952D01*
X149629904Y-112212476D01*
X149677523Y-112117238D01*
X149772761Y-112022000D01*
X149915619Y-111974380D01*
X150010857Y-111974380D01*
X150153714Y-112022000D01*
X150201333Y-112069619D01*
X151153714Y-112974380D02*
X150582285Y-112974380D01*
X150868000Y-112974380D02*
X150868000Y-111974380D01*
X150772761Y-112117238D01*
X150677523Y-112212476D01*
X150582285Y-112260095D01*
X153585714Y-111974380D02*
X153661904Y-111974380D01*
X153738095Y-112022000D01*
X153776190Y-112069619D01*
X153814285Y-112164857D01*
X153852380Y-112355333D01*
X153852380Y-112593428D01*
X153814285Y-112783904D01*
X153776190Y-112879142D01*
X153738095Y-112926761D01*
X153661904Y-112974380D01*
X153585714Y-112974380D01*
X153509523Y-112926761D01*
X153471428Y-112879142D01*
X153433333Y-112783904D01*
X153395238Y-112593428D01*
X153395238Y-112355333D01*
X153433333Y-112164857D01*
X153471428Y-112069619D01*
X153509523Y-112022000D01*
X153585714Y-111974380D01*
X154195238Y-112879142D02*
X154233333Y-112926761D01*
X154195238Y-112974380D01*
X154157142Y-112926761D01*
X154195238Y-112879142D01*
X154195238Y-112974380D01*
X154995238Y-112974380D02*
X154538095Y-112974380D01*
X154766666Y-112974380D02*
X154766666Y-111974380D01*
X154690476Y-112117238D01*
X154614285Y-112212476D01*
X154538095Y-112260095D01*
X155680952Y-112307714D02*
X155680952Y-112974380D01*
X155338095Y-112307714D02*
X155338095Y-112831523D01*
X155376190Y-112926761D01*
X155452380Y-112974380D01*
X155566666Y-112974380D01*
X155642857Y-112926761D01*
X155680952Y-112879142D01*
X156328571Y-112450571D02*
X156061904Y-112450571D01*
X156061904Y-112974380D02*
X156061904Y-111974380D01*
X156442857Y-111974380D01*
%TO.C,D0*%
X160546904Y-101640380D02*
X160546904Y-100640380D01*
X160785000Y-100640380D01*
X160927857Y-100688000D01*
X161023095Y-100783238D01*
X161070714Y-100878476D01*
X161118333Y-101068952D01*
X161118333Y-101211809D01*
X161070714Y-101402285D01*
X161023095Y-101497523D01*
X160927857Y-101592761D01*
X160785000Y-101640380D01*
X160546904Y-101640380D01*
X161737380Y-100640380D02*
X161832619Y-100640380D01*
X161927857Y-100688000D01*
X161975476Y-100735619D01*
X162023095Y-100830857D01*
X162070714Y-101021333D01*
X162070714Y-101259428D01*
X162023095Y-101449904D01*
X161975476Y-101545142D01*
X161927857Y-101592761D01*
X161832619Y-101640380D01*
X161737380Y-101640380D01*
X161642142Y-101592761D01*
X161594523Y-101545142D01*
X161546904Y-101449904D01*
X161499285Y-101259428D01*
X161499285Y-101021333D01*
X161546904Y-100830857D01*
X161594523Y-100735619D01*
X161642142Y-100688000D01*
X161737380Y-100640380D01*
X160642142Y-108560380D02*
X160165952Y-108560380D01*
X160165952Y-107560380D01*
X160975476Y-108036571D02*
X161308809Y-108036571D01*
X161451666Y-108560380D02*
X160975476Y-108560380D01*
X160975476Y-107560380D01*
X161451666Y-107560380D01*
X161880238Y-108560380D02*
X161880238Y-107560380D01*
X162118333Y-107560380D01*
X162261190Y-107608000D01*
X162356428Y-107703238D01*
X162404047Y-107798476D01*
X162451666Y-107988952D01*
X162451666Y-108131809D01*
X162404047Y-108322285D01*
X162356428Y-108417523D01*
X162261190Y-108512761D01*
X162118333Y-108560380D01*
X161880238Y-108560380D01*
%TO.C,C0*%
X159091333Y-129262142D02*
X159043714Y-129309761D01*
X158900857Y-129357380D01*
X158805619Y-129357380D01*
X158662761Y-129309761D01*
X158567523Y-129214523D01*
X158519904Y-129119285D01*
X158472285Y-128928809D01*
X158472285Y-128785952D01*
X158519904Y-128595476D01*
X158567523Y-128500238D01*
X158662761Y-128405000D01*
X158805619Y-128357380D01*
X158900857Y-128357380D01*
X159043714Y-128405000D01*
X159091333Y-128452619D01*
X159710380Y-128357380D02*
X159805619Y-128357380D01*
X159900857Y-128405000D01*
X159948476Y-128452619D01*
X159996095Y-128547857D01*
X160043714Y-128738333D01*
X160043714Y-128976428D01*
X159996095Y-129166904D01*
X159948476Y-129262142D01*
X159900857Y-129309761D01*
X159805619Y-129357380D01*
X159710380Y-129357380D01*
X159615142Y-129309761D01*
X159567523Y-129262142D01*
X159519904Y-129166904D01*
X159472285Y-128976428D01*
X159472285Y-128738333D01*
X159519904Y-128547857D01*
X159567523Y-128452619D01*
X159615142Y-128405000D01*
X159710380Y-128357380D01*
X158710380Y-134624285D02*
X158710380Y-134548095D01*
X158758000Y-134471904D01*
X158805619Y-134433809D01*
X158900857Y-134395714D01*
X159091333Y-134357619D01*
X159329428Y-134357619D01*
X159519904Y-134395714D01*
X159615142Y-134433809D01*
X159662761Y-134471904D01*
X159710380Y-134548095D01*
X159710380Y-134624285D01*
X159662761Y-134700476D01*
X159615142Y-134738571D01*
X159519904Y-134776666D01*
X159329428Y-134814761D01*
X159091333Y-134814761D01*
X158900857Y-134776666D01*
X158805619Y-134738571D01*
X158758000Y-134700476D01*
X158710380Y-134624285D01*
X159615142Y-134014761D02*
X159662761Y-133976666D01*
X159710380Y-134014761D01*
X159662761Y-134052857D01*
X159615142Y-134014761D01*
X159710380Y-134014761D01*
X159710380Y-133214761D02*
X159710380Y-133671904D01*
X159710380Y-133443333D02*
X158710380Y-133443333D01*
X158853238Y-133519523D01*
X158948476Y-133595714D01*
X158996095Y-133671904D01*
X159043714Y-132529047D02*
X159710380Y-132529047D01*
X159043714Y-132871904D02*
X159567523Y-132871904D01*
X159662761Y-132833809D01*
X159710380Y-132757619D01*
X159710380Y-132643333D01*
X159662761Y-132567142D01*
X159615142Y-132529047D01*
X159186571Y-131881428D02*
X159186571Y-132148095D01*
X159710380Y-132148095D02*
X158710380Y-132148095D01*
X158710380Y-131767142D01*
%TO.C,J2*%
X141906666Y-139152380D02*
X141906666Y-139866666D01*
X141859047Y-140009523D01*
X141763809Y-140104761D01*
X141620952Y-140152380D01*
X141525714Y-140152380D01*
X142335238Y-139247619D02*
X142382857Y-139200000D01*
X142478095Y-139152380D01*
X142716190Y-139152380D01*
X142811428Y-139200000D01*
X142859047Y-139247619D01*
X142906666Y-139342857D01*
X142906666Y-139438095D01*
X142859047Y-139580952D01*
X142287619Y-140152380D01*
X142906666Y-140152380D01*
%TO.C,U0*%
X152619095Y-128418380D02*
X152619095Y-129227904D01*
X152666714Y-129323142D01*
X152714333Y-129370761D01*
X152809571Y-129418380D01*
X153000047Y-129418380D01*
X153095285Y-129370761D01*
X153142904Y-129323142D01*
X153190523Y-129227904D01*
X153190523Y-128418380D01*
X153857190Y-128418380D02*
X153952428Y-128418380D01*
X154047666Y-128466000D01*
X154095285Y-128513619D01*
X154142904Y-128608857D01*
X154190523Y-128799333D01*
X154190523Y-129037428D01*
X154142904Y-129227904D01*
X154095285Y-129323142D01*
X154047666Y-129370761D01*
X153952428Y-129418380D01*
X153857190Y-129418380D01*
X153761952Y-129370761D01*
X153714333Y-129323142D01*
X153666714Y-129227904D01*
X153619095Y-129037428D01*
X153619095Y-128799333D01*
X153666714Y-128608857D01*
X153714333Y-128513619D01*
X153761952Y-128466000D01*
X153857190Y-128418380D01*
X150654095Y-140213380D02*
X150654095Y-139213380D01*
X150987428Y-139927666D01*
X151320761Y-139213380D01*
X151320761Y-140213380D01*
X152368380Y-140118142D02*
X152320761Y-140165761D01*
X152177904Y-140213380D01*
X152082666Y-140213380D01*
X151939809Y-140165761D01*
X151844571Y-140070523D01*
X151796952Y-139975285D01*
X151749333Y-139784809D01*
X151749333Y-139641952D01*
X151796952Y-139451476D01*
X151844571Y-139356238D01*
X151939809Y-139261000D01*
X152082666Y-139213380D01*
X152177904Y-139213380D01*
X152320761Y-139261000D01*
X152368380Y-139308619D01*
X152796952Y-140213380D02*
X152796952Y-139213380D01*
X153177904Y-139213380D01*
X153273142Y-139261000D01*
X153320761Y-139308619D01*
X153368380Y-139403857D01*
X153368380Y-139546714D01*
X153320761Y-139641952D01*
X153273142Y-139689571D01*
X153177904Y-139737190D01*
X152796952Y-139737190D01*
X153701714Y-139213380D02*
X154368380Y-139213380D01*
X153939809Y-140213380D01*
X154796952Y-140213380D02*
X154987428Y-140213380D01*
X155082666Y-140165761D01*
X155130285Y-140118142D01*
X155225523Y-139975285D01*
X155273142Y-139784809D01*
X155273142Y-139403857D01*
X155225523Y-139308619D01*
X155177904Y-139261000D01*
X155082666Y-139213380D01*
X154892190Y-139213380D01*
X154796952Y-139261000D01*
X154749333Y-139308619D01*
X154701714Y-139403857D01*
X154701714Y-139641952D01*
X154749333Y-139737190D01*
X154796952Y-139784809D01*
X154892190Y-139832428D01*
X155082666Y-139832428D01*
X155177904Y-139784809D01*
X155225523Y-139737190D01*
X155273142Y-139641952D01*
X156177904Y-139213380D02*
X155701714Y-139213380D01*
X155654095Y-139689571D01*
X155701714Y-139641952D01*
X155796952Y-139594333D01*
X156035047Y-139594333D01*
X156130285Y-139641952D01*
X156177904Y-139689571D01*
X156225523Y-139784809D01*
X156225523Y-140022904D01*
X156177904Y-140118142D01*
X156130285Y-140165761D01*
X156035047Y-140213380D01*
X155796952Y-140213380D01*
X155701714Y-140165761D01*
X155654095Y-140118142D01*
%TO.C,Y0*%
X136937809Y-131294190D02*
X136937809Y-131770380D01*
X136604476Y-130770380D02*
X136937809Y-131294190D01*
X137271142Y-130770380D01*
X137794952Y-130770380D02*
X137890190Y-130770380D01*
X137985428Y-130818000D01*
X138033047Y-130865619D01*
X138080666Y-130960857D01*
X138128285Y-131151333D01*
X138128285Y-131389428D01*
X138080666Y-131579904D01*
X138033047Y-131675142D01*
X137985428Y-131722761D01*
X137890190Y-131770380D01*
X137794952Y-131770380D01*
X137699714Y-131722761D01*
X137652095Y-131675142D01*
X137604476Y-131579904D01*
X137556857Y-131389428D01*
X137556857Y-131151333D01*
X137604476Y-130960857D01*
X137652095Y-130865619D01*
X137699714Y-130818000D01*
X137794952Y-130770380D01*
X138319142Y-128296380D02*
X138938190Y-128296380D01*
X138604857Y-128677333D01*
X138747714Y-128677333D01*
X138842952Y-128724952D01*
X138890571Y-128772571D01*
X138938190Y-128867809D01*
X138938190Y-129105904D01*
X138890571Y-129201142D01*
X138842952Y-129248761D01*
X138747714Y-129296380D01*
X138462000Y-129296380D01*
X138366761Y-129248761D01*
X138319142Y-129201142D01*
X139319142Y-128391619D02*
X139366761Y-128344000D01*
X139462000Y-128296380D01*
X139700095Y-128296380D01*
X139795333Y-128344000D01*
X139842952Y-128391619D01*
X139890571Y-128486857D01*
X139890571Y-128582095D01*
X139842952Y-128724952D01*
X139271523Y-129296380D01*
X139890571Y-129296380D01*
X140319142Y-129296380D02*
X140319142Y-128296380D01*
X140414380Y-128915428D02*
X140700095Y-129296380D01*
X140700095Y-128629714D02*
X140319142Y-129010666D01*
X141128666Y-129296380D02*
X141128666Y-128296380D01*
X141128666Y-128772571D02*
X141700095Y-128772571D01*
X141700095Y-129296380D02*
X141700095Y-128296380D01*
X142081047Y-128629714D02*
X142604857Y-128629714D01*
X142081047Y-129296380D01*
X142604857Y-129296380D01*
%TO.C,R1*%
X134453333Y-140152380D02*
X134120000Y-139676190D01*
X133881904Y-140152380D02*
X133881904Y-139152380D01*
X134262857Y-139152380D01*
X134358095Y-139200000D01*
X134405714Y-139247619D01*
X134453333Y-139342857D01*
X134453333Y-139485714D01*
X134405714Y-139580952D01*
X134358095Y-139628571D01*
X134262857Y-139676190D01*
X133881904Y-139676190D01*
X135405714Y-140152380D02*
X134834285Y-140152380D01*
X135120000Y-140152380D02*
X135120000Y-139152380D01*
X135024761Y-139295238D01*
X134929523Y-139390476D01*
X134834285Y-139438095D01*
X133675619Y-146137380D02*
X134294666Y-146137380D01*
X133961333Y-146518333D01*
X134104190Y-146518333D01*
X134199428Y-146565952D01*
X134247047Y-146613571D01*
X134294666Y-146708809D01*
X134294666Y-146946904D01*
X134247047Y-147042142D01*
X134199428Y-147089761D01*
X134104190Y-147137380D01*
X133818476Y-147137380D01*
X133723238Y-147089761D01*
X133675619Y-147042142D01*
X134723238Y-147042142D02*
X134770857Y-147089761D01*
X134723238Y-147137380D01*
X134675619Y-147089761D01*
X134723238Y-147042142D01*
X134723238Y-147137380D01*
X135104190Y-146137380D02*
X135723238Y-146137380D01*
X135389904Y-146518333D01*
X135532761Y-146518333D01*
X135628000Y-146565952D01*
X135675619Y-146613571D01*
X135723238Y-146708809D01*
X135723238Y-146946904D01*
X135675619Y-147042142D01*
X135628000Y-147089761D01*
X135532761Y-147137380D01*
X135247047Y-147137380D01*
X135151809Y-147089761D01*
X135104190Y-147042142D01*
X136151809Y-147137380D02*
X136151809Y-146137380D01*
X136247047Y-146756428D02*
X136532761Y-147137380D01*
X136532761Y-146470714D02*
X136151809Y-146851666D01*
%TO.C,J0*%
X164512666Y-130262380D02*
X164512666Y-130976666D01*
X164465047Y-131119523D01*
X164369809Y-131214761D01*
X164226952Y-131262380D01*
X164131714Y-131262380D01*
X165179333Y-130262380D02*
X165274571Y-130262380D01*
X165369809Y-130310000D01*
X165417428Y-130357619D01*
X165465047Y-130452857D01*
X165512666Y-130643333D01*
X165512666Y-130881428D01*
X165465047Y-131071904D01*
X165417428Y-131167142D01*
X165369809Y-131214761D01*
X165274571Y-131262380D01*
X165179333Y-131262380D01*
X165084095Y-131214761D01*
X165036476Y-131167142D01*
X164988857Y-131071904D01*
X164941238Y-130881428D01*
X164941238Y-130643333D01*
X164988857Y-130452857D01*
X165036476Y-130357619D01*
X165084095Y-130310000D01*
X165179333Y-130262380D01*
X161774285Y-146244761D02*
X161917142Y-146292380D01*
X162155238Y-146292380D01*
X162250476Y-146244761D01*
X162298095Y-146197142D01*
X162345714Y-146101904D01*
X162345714Y-146006666D01*
X162298095Y-145911428D01*
X162250476Y-145863809D01*
X162155238Y-145816190D01*
X161964761Y-145768571D01*
X161869523Y-145720952D01*
X161821904Y-145673333D01*
X161774285Y-145578095D01*
X161774285Y-145482857D01*
X161821904Y-145387619D01*
X161869523Y-145340000D01*
X161964761Y-145292380D01*
X162202857Y-145292380D01*
X162345714Y-145340000D01*
X162774285Y-146292380D02*
X162774285Y-145292380D01*
X163012380Y-145292380D01*
X163155238Y-145340000D01*
X163250476Y-145435238D01*
X163298095Y-145530476D01*
X163345714Y-145720952D01*
X163345714Y-145863809D01*
X163298095Y-146054285D01*
X163250476Y-146149523D01*
X163155238Y-146244761D01*
X163012380Y-146292380D01*
X162774285Y-146292380D01*
%TO.C,R2*%
X156043333Y-103195380D02*
X155710000Y-102719190D01*
X155471904Y-103195380D02*
X155471904Y-102195380D01*
X155852857Y-102195380D01*
X155948095Y-102243000D01*
X155995714Y-102290619D01*
X156043333Y-102385857D01*
X156043333Y-102528714D01*
X155995714Y-102623952D01*
X155948095Y-102671571D01*
X155852857Y-102719190D01*
X155471904Y-102719190D01*
X156424285Y-102290619D02*
X156471904Y-102243000D01*
X156567142Y-102195380D01*
X156805238Y-102195380D01*
X156900476Y-102243000D01*
X156948095Y-102290619D01*
X156995714Y-102385857D01*
X156995714Y-102481095D01*
X156948095Y-102623952D01*
X156376666Y-103195380D01*
X156995714Y-103195380D01*
X155376666Y-109926380D02*
X154805238Y-109926380D01*
X155090952Y-109926380D02*
X155090952Y-108926380D01*
X154995714Y-109069238D01*
X154900476Y-109164476D01*
X154805238Y-109212095D01*
X155805238Y-109831142D02*
X155852857Y-109878761D01*
X155805238Y-109926380D01*
X155757619Y-109878761D01*
X155805238Y-109831142D01*
X155805238Y-109926380D01*
X156757619Y-108926380D02*
X156281428Y-108926380D01*
X156233809Y-109402571D01*
X156281428Y-109354952D01*
X156376666Y-109307333D01*
X156614761Y-109307333D01*
X156710000Y-109354952D01*
X156757619Y-109402571D01*
X156805238Y-109497809D01*
X156805238Y-109735904D01*
X156757619Y-109831142D01*
X156710000Y-109878761D01*
X156614761Y-109926380D01*
X156376666Y-109926380D01*
X156281428Y-109878761D01*
X156233809Y-109831142D01*
X157233809Y-109926380D02*
X157233809Y-108926380D01*
X157329047Y-109545428D02*
X157614761Y-109926380D01*
X157614761Y-109259714D02*
X157233809Y-109640666D01*
%TO.C,Y1*%
X160813809Y-114370190D02*
X160813809Y-114846380D01*
X160480476Y-113846380D02*
X160813809Y-114370190D01*
X161147142Y-113846380D01*
X162004285Y-114846380D02*
X161432857Y-114846380D01*
X161718571Y-114846380D02*
X161718571Y-113846380D01*
X161623333Y-113989238D01*
X161528095Y-114084476D01*
X161432857Y-114132095D01*
X159599523Y-127800380D02*
X159028095Y-127800380D01*
X159313809Y-127800380D02*
X159313809Y-126800380D01*
X159218571Y-126943238D01*
X159123333Y-127038476D01*
X159028095Y-127086095D01*
X159980476Y-126895619D02*
X160028095Y-126848000D01*
X160123333Y-126800380D01*
X160361428Y-126800380D01*
X160456666Y-126848000D01*
X160504285Y-126895619D01*
X160551904Y-126990857D01*
X160551904Y-127086095D01*
X160504285Y-127228952D01*
X159932857Y-127800380D01*
X160551904Y-127800380D01*
X160980476Y-127800380D02*
X160980476Y-126800380D01*
X161313809Y-127514666D01*
X161647142Y-126800380D01*
X161647142Y-127800380D01*
X162123333Y-127800380D02*
X162123333Y-126800380D01*
X162123333Y-127276571D02*
X162694761Y-127276571D01*
X162694761Y-127800380D02*
X162694761Y-126800380D01*
X163075714Y-127133714D02*
X163599523Y-127133714D01*
X163075714Y-127800380D01*
X163599523Y-127800380D01*
%TO.C,C2*%
X137755333Y-111101142D02*
X137707714Y-111148761D01*
X137564857Y-111196380D01*
X137469619Y-111196380D01*
X137326761Y-111148761D01*
X137231523Y-111053523D01*
X137183904Y-110958285D01*
X137136285Y-110767809D01*
X137136285Y-110624952D01*
X137183904Y-110434476D01*
X137231523Y-110339238D01*
X137326761Y-110244000D01*
X137469619Y-110196380D01*
X137564857Y-110196380D01*
X137707714Y-110244000D01*
X137755333Y-110291619D01*
X138136285Y-110291619D02*
X138183904Y-110244000D01*
X138279142Y-110196380D01*
X138517238Y-110196380D01*
X138612476Y-110244000D01*
X138660095Y-110291619D01*
X138707714Y-110386857D01*
X138707714Y-110482095D01*
X138660095Y-110624952D01*
X138088666Y-111196380D01*
X138707714Y-111196380D01*
X137024857Y-112974380D02*
X136567714Y-112974380D01*
X136796285Y-112974380D02*
X136796285Y-111974380D01*
X136720095Y-112117238D01*
X136643904Y-112212476D01*
X136567714Y-112260095D01*
X137520095Y-111974380D02*
X137596285Y-111974380D01*
X137672476Y-112022000D01*
X137710571Y-112069619D01*
X137748666Y-112164857D01*
X137786761Y-112355333D01*
X137786761Y-112593428D01*
X137748666Y-112783904D01*
X137710571Y-112879142D01*
X137672476Y-112926761D01*
X137596285Y-112974380D01*
X137520095Y-112974380D01*
X137443904Y-112926761D01*
X137405809Y-112879142D01*
X137367714Y-112783904D01*
X137329619Y-112593428D01*
X137329619Y-112355333D01*
X137367714Y-112164857D01*
X137405809Y-112069619D01*
X137443904Y-112022000D01*
X137520095Y-111974380D01*
X138129619Y-112307714D02*
X138129619Y-112974380D01*
X138129619Y-112402952D02*
X138167714Y-112355333D01*
X138243904Y-112307714D01*
X138358190Y-112307714D01*
X138434380Y-112355333D01*
X138472476Y-112450571D01*
X138472476Y-112974380D01*
X139120095Y-112450571D02*
X138853428Y-112450571D01*
X138853428Y-112974380D02*
X138853428Y-111974380D01*
X139234380Y-111974380D01*
%TO.C,U1*%
X145796095Y-113244380D02*
X145796095Y-114053904D01*
X145843714Y-114149142D01*
X145891333Y-114196761D01*
X145986571Y-114244380D01*
X146177047Y-114244380D01*
X146272285Y-114196761D01*
X146319904Y-114149142D01*
X146367523Y-114053904D01*
X146367523Y-113244380D01*
X147367523Y-114244380D02*
X146796095Y-114244380D01*
X147081809Y-114244380D02*
X147081809Y-113244380D01*
X146986571Y-113387238D01*
X146891333Y-113482476D01*
X146796095Y-113530095D01*
X144438952Y-127865142D02*
X144391333Y-127912761D01*
X144248476Y-127960380D01*
X144153238Y-127960380D01*
X144010380Y-127912761D01*
X143915142Y-127817523D01*
X143867523Y-127722285D01*
X143819904Y-127531809D01*
X143819904Y-127388952D01*
X143867523Y-127198476D01*
X143915142Y-127103238D01*
X144010380Y-127008000D01*
X144153238Y-126960380D01*
X144248476Y-126960380D01*
X144391333Y-127008000D01*
X144438952Y-127055619D01*
X144867523Y-127960380D02*
X144867523Y-126960380D01*
X144867523Y-127436571D02*
X145438952Y-127436571D01*
X145438952Y-127960380D02*
X145438952Y-126960380D01*
X145819904Y-126960380D02*
X146438952Y-126960380D01*
X146105619Y-127341333D01*
X146248476Y-127341333D01*
X146343714Y-127388952D01*
X146391333Y-127436571D01*
X146438952Y-127531809D01*
X146438952Y-127769904D01*
X146391333Y-127865142D01*
X146343714Y-127912761D01*
X146248476Y-127960380D01*
X145962761Y-127960380D01*
X145867523Y-127912761D01*
X145819904Y-127865142D01*
X146772285Y-126960380D02*
X147438952Y-126960380D01*
X147010380Y-127960380D01*
X148248476Y-126960380D02*
X148058000Y-126960380D01*
X147962761Y-127008000D01*
X147915142Y-127055619D01*
X147819904Y-127198476D01*
X147772285Y-127388952D01*
X147772285Y-127769904D01*
X147819904Y-127865142D01*
X147867523Y-127912761D01*
X147962761Y-127960380D01*
X148153238Y-127960380D01*
X148248476Y-127912761D01*
X148296095Y-127865142D01*
X148343714Y-127769904D01*
X148343714Y-127531809D01*
X148296095Y-127436571D01*
X148248476Y-127388952D01*
X148153238Y-127341333D01*
X147962761Y-127341333D01*
X147867523Y-127388952D01*
X147819904Y-127436571D01*
X147772285Y-127531809D01*
X148724666Y-127912761D02*
X148867523Y-127960380D01*
X149105619Y-127960380D01*
X149200857Y-127912761D01*
X149248476Y-127865142D01*
X149296095Y-127769904D01*
X149296095Y-127674666D01*
X149248476Y-127579428D01*
X149200857Y-127531809D01*
X149105619Y-127484190D01*
X148915142Y-127436571D01*
X148819904Y-127388952D01*
X148772285Y-127341333D01*
X148724666Y-127246095D01*
X148724666Y-127150857D01*
X148772285Y-127055619D01*
X148819904Y-127008000D01*
X148915142Y-126960380D01*
X149153238Y-126960380D01*
X149296095Y-127008000D01*
D12*
%TO.C,R0*%
X137922000Y-143610000D02*
X137922000Y-143680000D01*
X139292000Y-142240000D02*
G75*
G03*
X139292000Y-142240000I-1370000J0D01*
G01*
%TO.C,C1*%
X152630000Y-113577000D02*
X152630000Y-113592000D01*
X157170000Y-111452000D02*
X157170000Y-111467000D01*
X152630000Y-113592000D02*
X157170000Y-113592000D01*
X157170000Y-113577000D02*
X157170000Y-113592000D01*
X152630000Y-111452000D02*
X152630000Y-111467000D01*
X152630000Y-111452000D02*
X157170000Y-111452000D01*
%TO.C,D0*%
X159225000Y-103249000D02*
X159225000Y-103568000D01*
X159225000Y-105728000D02*
X159225000Y-106047000D01*
X159225000Y-106046749D02*
G75*
G03*
X163528242Y-105728724I2060000J1398749D01*
G01*
X159601670Y-105728000D02*
G75*
G03*
X162967713Y-105728961I1683330J1080000D01*
G01*
X162967713Y-103567039D02*
G75*
G03*
X159601670Y-103568000I-1682713J-1080961D01*
G01*
X163528242Y-103567276D02*
G75*
G03*
X159225000Y-103249251I-2243242J-1080724D01*
G01*
%TO.C,C0*%
X160313000Y-135580000D02*
X160328000Y-135580000D01*
X158188000Y-135580000D02*
X158203000Y-135580000D01*
X158188000Y-131040000D02*
X158203000Y-131040000D01*
X160328000Y-135580000D02*
X160328000Y-131040000D01*
X160313000Y-131040000D02*
X160328000Y-131040000D01*
X158188000Y-135580000D02*
X158188000Y-131040000D01*
%TO.C,J2*%
X140910000Y-143510000D02*
X143510000Y-143510000D01*
X140910000Y-146110000D02*
X156270000Y-146110000D01*
X143510000Y-143510000D02*
X143510000Y-140910000D01*
X143510000Y-140910000D02*
X156270000Y-140910000D01*
X140910000Y-140910000D02*
X142240000Y-140910000D01*
X140910000Y-142240000D02*
X140910000Y-140910000D01*
X140910000Y-146110000D02*
X140910000Y-143510000D01*
X156270000Y-146110000D02*
X156270000Y-140910000D01*
%TO.C,U0*%
X153416000Y-138801000D02*
X151466000Y-138801000D01*
X153416000Y-129931000D02*
X149966000Y-129931000D01*
X153416000Y-129931000D02*
X155366000Y-129931000D01*
X153416000Y-138801000D02*
X155366000Y-138801000D01*
%TO.C,Y0*%
X146028000Y-131734000D02*
X146928000Y-132334000D01*
X146928000Y-130434000D02*
X147128000Y-130434000D01*
X146028000Y-131034000D02*
X146928000Y-130434000D01*
X146028000Y-132684000D02*
X145528000Y-132684000D01*
X145528000Y-130084000D02*
X146028000Y-130084000D01*
X146028000Y-130084000D02*
X146028000Y-132684000D01*
X146928000Y-132334000D02*
X147128000Y-132334000D01*
%TO.C,R1*%
X134620000Y-143610000D02*
X134620000Y-143680000D01*
X135990000Y-142240000D02*
G75*
G03*
X135990000Y-142240000I-1370000J0D01*
G01*
%TO.C,J0*%
X163890000Y-132080000D02*
X163890000Y-144840000D01*
X161230000Y-132080000D02*
X161230000Y-144840000D01*
X161230000Y-129480000D02*
X162560000Y-129480000D01*
X161230000Y-132080000D02*
X163890000Y-132080000D01*
X161230000Y-144840000D02*
X163890000Y-144840000D01*
X161230000Y-130810000D02*
X161230000Y-129480000D01*
%TO.C,R2*%
X156210000Y-105818000D02*
X156210000Y-105748000D01*
X157580000Y-107188000D02*
G75*
G03*
X157580000Y-107188000I-1370000J0D01*
G01*
%TO.C,Y1*%
X158765000Y-124004000D02*
X158765000Y-117604000D01*
X163815000Y-124004000D02*
X163815000Y-117604000D01*
X163815000Y-117604000D02*
G75*
G03*
X158765000Y-117604000I-2525000J0D01*
G01*
X158765000Y-124004000D02*
G75*
G03*
X163815000Y-124004000I2525000J0D01*
G01*
%TO.C,C2*%
X135612000Y-113592000D02*
X140152000Y-113592000D01*
X140152000Y-113577000D02*
X140152000Y-113592000D01*
X135612000Y-111452000D02*
X140152000Y-111452000D01*
X135612000Y-111452000D02*
X135612000Y-111467000D01*
X140152000Y-111452000D02*
X140152000Y-111467000D01*
X135612000Y-113577000D02*
X135612000Y-113592000D01*
%TO.C,U1*%
X155618000Y-124510000D02*
X155373000Y-124510000D01*
X155618000Y-120650000D02*
X155618000Y-116790000D01*
X137498000Y-120650000D02*
X137498000Y-124510000D01*
X155373000Y-116790000D02*
X155373000Y-114975000D01*
X137498000Y-116790000D02*
X137743000Y-116790000D01*
X137498000Y-124510000D02*
X137743000Y-124510000D01*
X155618000Y-116790000D02*
X155373000Y-116790000D01*
X137498000Y-120650000D02*
X137498000Y-116790000D01*
X155618000Y-120650000D02*
X155618000Y-124510000D01*
%TD*%
M02*
