%TF.GenerationSoftware,KiCad,Pcbnew,(6.0.4)*%
%TF.CreationDate,2023-06-25T20:19:56+02:00*%
%TF.ProjectId,CH376_MCP795_Module,43483337-365f-44d4-9350-3739355f4d6f,rev?*%
%TF.SameCoordinates,Original*%
%TF.FileFunction,Copper,L1,Top*%
%TF.FilePolarity,Positive*%
%FSLAX46Y46*%
G04 Gerber Fmt 4.6, Leading zero omitted, Abs format (unit mm)*
G04 Created by KiCad (PCBNEW (6.0.4)) date 2023-06-25 20:19:56*
%MOMM*%
%LPD*%
G01*
G04 APERTURE LIST*
G04 Aperture macros list*
%AMRoundRect*
0 Rectangle with rounded corners*
0 $1 Rounding radius*
0 $2 $3 $4 $5 $6 $7 $8 $9 X,Y pos of 4 corners*
0 Add a 4 corners polygon primitive as box body*
4,1,4,$2,$3,$4,$5,$6,$7,$8,$9,$2,$3,0*
0 Add four circle primitives for the rounded corners*
1,1,$1+$1,$2,$3*
1,1,$1+$1,$4,$5*
1,1,$1+$1,$6,$7*
1,1,$1+$1,$8,$9*
0 Add four rect primitives between the rounded corners*
20,1,$1+$1,$2,$3,$4,$5,0*
20,1,$1+$1,$4,$5,$6,$7,0*
20,1,$1+$1,$6,$7,$8,$9,0*
20,1,$1+$1,$8,$9,$2,$3,0*%
G04 Aperture macros list end*
%TA.AperFunction,ComponentPad*%
%ADD10C,1.600000*%
%TD*%
%TA.AperFunction,ComponentPad*%
%ADD11O,1.600000X1.600000*%
%TD*%
%TA.AperFunction,ComponentPad*%
%ADD12R,1.800000X1.800000*%
%TD*%
%TA.AperFunction,ComponentPad*%
%ADD13C,1.800000*%
%TD*%
%TA.AperFunction,ComponentPad*%
%ADD14R,1.700000X1.700000*%
%TD*%
%TA.AperFunction,ComponentPad*%
%ADD15O,1.700000X1.700000*%
%TD*%
%TA.AperFunction,SMDPad,CuDef*%
%ADD16RoundRect,0.150000X-0.825000X-0.150000X0.825000X-0.150000X0.825000X0.150000X-0.825000X0.150000X0*%
%TD*%
%TA.AperFunction,ComponentPad*%
%ADD17C,1.000000*%
%TD*%
%TA.AperFunction,SMDPad,CuDef*%
%ADD18R,6.500000X2.200000*%
%TD*%
%TA.AperFunction,ComponentPad*%
%ADD19C,1.500000*%
%TD*%
%TA.AperFunction,SMDPad,CuDef*%
%ADD20RoundRect,0.150000X-0.150000X0.875000X-0.150000X-0.875000X0.150000X-0.875000X0.150000X0.875000X0*%
%TD*%
%TA.AperFunction,ComponentPad*%
%ADD21R,2.280000X2.280000*%
%TD*%
%TA.AperFunction,ComponentPad*%
%ADD22C,2.280000*%
%TD*%
%TA.AperFunction,ComponentPad*%
%ADD23R,1.524000X1.524000*%
%TD*%
%TA.AperFunction,ComponentPad*%
%ADD24C,1.524000*%
%TD*%
%TA.AperFunction,ComponentPad*%
%ADD25C,3.500000*%
%TD*%
%TA.AperFunction,ViaPad*%
%ADD26C,0.800000*%
%TD*%
%TA.AperFunction,Conductor*%
%ADD27C,0.250000*%
%TD*%
G04 APERTURE END LIST*
D10*
%TO.P,R0,1*%
%TO.N,/~{IRQ1}*%
X137922000Y-142240000D03*
D11*
%TO.P,R0,2*%
%TO.N,/5V*%
X137922000Y-144780000D03*
%TD*%
D10*
%TO.P,C1,1*%
%TO.N,/GND*%
X152400000Y-112522000D03*
%TO.P,C1,2*%
%TO.N,/5V*%
X157400000Y-112522000D03*
%TD*%
D12*
%TO.P,D0,1,K*%
%TO.N,Net-(D0-Pad1)*%
X160015000Y-104648000D03*
D13*
%TO.P,D0,2,A*%
%TO.N,/5V*%
X162555000Y-104648000D03*
%TD*%
D10*
%TO.P,C0,1*%
%TO.N,/GND*%
X159258000Y-135810000D03*
%TO.P,C0,2*%
%TO.N,/5V*%
X159258000Y-130810000D03*
%TD*%
D14*
%TO.P,J2,1,Pin_1*%
%TO.N,/5V*%
X142240000Y-142240000D03*
D15*
%TO.P,J2,2,Pin_2*%
%TO.N,/GND*%
X142240000Y-144780000D03*
%TO.P,J2,3,Pin_3*%
%TO.N,/SCK*%
X144780000Y-142240000D03*
%TO.P,J2,4,Pin_4*%
%TO.N,/~{ACT}*%
X144780000Y-144780000D03*
%TO.P,J2,5,Pin_5*%
%TO.N,/MOSI*%
X147320000Y-142240000D03*
%TO.P,J2,6,Pin_6*%
%TO.N,/~{IRQ0}*%
X147320000Y-144780000D03*
%TO.P,J2,7,Pin_7*%
%TO.N,/MISO*%
X149860000Y-142240000D03*
%TO.P,J2,8,Pin_8*%
%TO.N,/~{IRQ1}*%
X149860000Y-144780000D03*
%TO.P,J2,9,Pin_9*%
%TO.N,/~{SS0}*%
X152400000Y-142240000D03*
%TO.P,J2,10,Pin_10*%
%TO.N,/~{IRQ2}*%
X152400000Y-144780000D03*
%TO.P,J2,11,Pin_11*%
%TO.N,/~{SS1}*%
X154940000Y-142240000D03*
%TO.P,J2,12,Pin_12*%
%TO.N,/CLKOUT*%
X154940000Y-144780000D03*
%TD*%
D16*
%TO.P,U0,1,X1*%
%TO.N,Net-(U0-Pad1)*%
X150941000Y-130556000D03*
%TO.P,U0,2,X2*%
%TO.N,Net-(U0-Pad2)*%
X150941000Y-131826000D03*
%TO.P,U0,3,VBAT*%
%TO.N,/VBAT*%
X150941000Y-133096000D03*
%TO.P,U0,4,~{WDO}*%
%TO.N,/~{IRQ2}*%
X150941000Y-134366000D03*
%TO.P,U0,5,~{IRQ}*%
%TO.N,/~{IRQ1}*%
X150941000Y-135636000D03*
%TO.P,U0,6,~{CS}*%
%TO.N,/~{SS1}*%
X150941000Y-136906000D03*
%TO.P,U0,7,~{GND}*%
%TO.N,/GND*%
X150941000Y-138176000D03*
%TO.P,U0,8,MISO*%
%TO.N,/MISO*%
X155891000Y-138176000D03*
%TO.P,U0,9,MOSI*%
%TO.N,/MOSI*%
X155891000Y-136906000D03*
%TO.P,U0,10,SCK*%
%TO.N,/SCK*%
X155891000Y-135636000D03*
%TO.P,U0,11,EVLS*%
%TO.N,/GND*%
X155891000Y-134366000D03*
%TO.P,U0,12,EVHS*%
X155891000Y-133096000D03*
%TO.P,U0,13,CLKOUT*%
%TO.N,/CLKOUT*%
X155891000Y-131826000D03*
%TO.P,U0,14,Vcc*%
%TO.N,/5V*%
X155891000Y-130556000D03*
%TD*%
D17*
%TO.P,Y0,1,1*%
%TO.N,Net-(U0-Pad1)*%
X147828000Y-130434000D03*
%TO.P,Y0,2,2*%
%TO.N,Net-(U0-Pad2)*%
X147828000Y-132334000D03*
D18*
%TO.P,Y0,3,3*%
%TO.N,/GND*%
X142078000Y-131384000D03*
%TD*%
D10*
%TO.P,R1,1*%
%TO.N,/~{IRQ2}*%
X134620000Y-142240000D03*
D11*
%TO.P,R1,2*%
%TO.N,/5V*%
X134620000Y-144780000D03*
%TD*%
D14*
%TO.P,J0,1,Pin_1*%
%TO.N,/~{SD_SS}*%
X162560000Y-130810000D03*
D15*
%TO.P,J0,2,Pin_2*%
%TO.N,/SD_SCK*%
X162560000Y-133350000D03*
%TO.P,J0,3,Pin_3*%
%TO.N,/SD_MOSI*%
X162560000Y-135890000D03*
%TO.P,J0,4,Pin_4*%
%TO.N,/SD_MISO*%
X162560000Y-138430000D03*
%TO.P,J0,5,Pin_5*%
%TO.N,/5V*%
X162560000Y-140970000D03*
%TO.P,J0,6,Pin_6*%
%TO.N,/GND*%
X162560000Y-143510000D03*
%TD*%
D10*
%TO.P,R2,1*%
%TO.N,/~{ACT}*%
X156210000Y-107188000D03*
D11*
%TO.P,R2,2*%
%TO.N,Net-(D0-Pad1)*%
X156210000Y-104648000D03*
%TD*%
D19*
%TO.P,Y1,1,1*%
%TO.N,Net-(U1-Pad14)*%
X161290000Y-123244000D03*
%TO.P,Y1,2,2*%
%TO.N,Net-(U1-Pad13)*%
X161290000Y-118364000D03*
%TD*%
D10*
%TO.P,C2,1*%
%TO.N,/GND*%
X135382000Y-112522000D03*
%TO.P,C2,2*%
%TO.N,/3V3*%
X140382000Y-112522000D03*
%TD*%
D20*
%TO.P,U1,1,~{INT}*%
%TO.N,/~{IRQ0}*%
X154813000Y-116000000D03*
%TO.P,U1,2,RST*%
%TO.N,unconnected-(U1-Pad2)*%
X153543000Y-116000000D03*
%TO.P,U1,3,~{WR}*%
%TO.N,/GND*%
X152273000Y-116000000D03*
%TO.P,U1,4,~{RD}*%
X151003000Y-116000000D03*
%TO.P,U1,5,TXD*%
%TO.N,unconnected-(U1-Pad5)*%
X149733000Y-116000000D03*
%TO.P,U1,6,RXD*%
%TO.N,unconnected-(U1-Pad6)*%
X148463000Y-116000000D03*
%TO.P,U1,7,SD_MOSI*%
%TO.N,/SD_MOSI*%
X147193000Y-116000000D03*
%TO.P,U1,8,A0*%
%TO.N,unconnected-(U1-Pad8)*%
X145923000Y-116000000D03*
%TO.P,U1,9,3V3*%
%TO.N,/3V3*%
X144653000Y-116000000D03*
%TO.P,U1,10,USB_DP*%
%TO.N,Net-(J1-Pad3)*%
X143383000Y-116000000D03*
%TO.P,U1,11,USB_DM*%
%TO.N,Net-(J1-Pad2)*%
X142113000Y-116000000D03*
%TO.P,U1,12,GND*%
%TO.N,/GND*%
X140843000Y-116000000D03*
%TO.P,U1,13,XI*%
%TO.N,Net-(U1-Pad13)*%
X139573000Y-116000000D03*
%TO.P,U1,14,XO*%
%TO.N,Net-(U1-Pad14)*%
X138303000Y-116000000D03*
%TO.P,U1,15,D0*%
%TO.N,unconnected-(U1-Pad15)*%
X138303000Y-125300000D03*
%TO.P,U1,16,D1*%
%TO.N,unconnected-(U1-Pad16)*%
X139573000Y-125300000D03*
%TO.P,U1,17,D2*%
%TO.N,unconnected-(U1-Pad17)*%
X140843000Y-125300000D03*
%TO.P,U1,18,D3*%
%TO.N,/~{SS0}*%
X142113000Y-125300000D03*
%TO.P,U1,19,D4*%
%TO.N,unconnected-(U1-Pad19)*%
X143383000Y-125300000D03*
%TO.P,U1,20,D5*%
%TO.N,/SCK*%
X144653000Y-125300000D03*
%TO.P,U1,21,D6*%
%TO.N,/MOSI*%
X145923000Y-125300000D03*
%TO.P,U1,22,D7*%
%TO.N,/MISO*%
X147193000Y-125300000D03*
%TO.P,U1,23,SD_CS*%
%TO.N,/~{SD_SS}*%
X148463000Y-125300000D03*
%TO.P,U1,24,~{ACT}*%
%TO.N,/~{ACT}*%
X149733000Y-125300000D03*
%TO.P,U1,25,SD_MISO*%
%TO.N,/SD_MISO*%
X151003000Y-125300000D03*
%TO.P,U1,26,SD_SCK*%
%TO.N,/SD_SCK*%
X152273000Y-125300000D03*
%TO.P,U1,27,~{PCS}*%
%TO.N,unconnected-(U1-Pad27)*%
X153543000Y-125300000D03*
%TO.P,U1,28,Vcc*%
%TO.N,/5V*%
X154813000Y-125300000D03*
%TD*%
D21*
%TO.P,BT0,1,GND*%
%TO.N,/GND*%
X156718000Y-120650000D03*
D22*
%TO.P,BT0,2,+3V3*%
%TO.N,/VBAT*%
X136228000Y-120650000D03*
%TD*%
D23*
%TO.P,J1,1,VBUS*%
%TO.N,/5V*%
X139446000Y-107188000D03*
D24*
%TO.P,J1,2,D-*%
%TO.N,Net-(J1-Pad2)*%
X141946000Y-107188000D03*
%TO.P,J1,3,D+*%
%TO.N,Net-(J1-Pad3)*%
X143946000Y-107188000D03*
%TO.P,J1,4,GND*%
%TO.N,/GND*%
X146446000Y-107188000D03*
D25*
%TO.P,J1,5,Shield*%
X136376000Y-104478000D03*
X149516000Y-104478000D03*
%TD*%
D26*
%TO.N,/GND*%
X157480000Y-101600000D03*
X145034000Y-129032000D03*
X153924000Y-130302000D03*
X145796000Y-133858000D03*
X132080000Y-137160000D03*
X132080000Y-111760000D03*
X145288000Y-121666000D03*
X155956000Y-115062000D03*
X149098000Y-120650000D03*
X145034000Y-139192000D03*
X138684000Y-119634000D03*
X160274000Y-110744000D03*
X145542000Y-114300000D03*
X139700000Y-101600000D03*
X165100000Y-116840000D03*
X144272000Y-110236000D03*
X161290000Y-120904000D03*
X145288000Y-119634000D03*
X162560000Y-125984000D03*
X159512000Y-140716000D03*
X132080000Y-116840000D03*
X139192000Y-138938000D03*
X165100000Y-132080000D03*
X153924000Y-134366000D03*
X165100000Y-106680000D03*
X158496000Y-144780000D03*
X152146000Y-139700000D03*
X138684000Y-121666000D03*
X158496000Y-139192000D03*
X162560000Y-115570000D03*
X153924000Y-120650000D03*
X134620000Y-101600000D03*
X165100000Y-121920000D03*
X141986000Y-136144000D03*
X156210000Y-140970000D03*
X161290000Y-116840000D03*
X162560000Y-101600000D03*
X165100000Y-137160000D03*
X165100000Y-142240000D03*
X145288000Y-117602000D03*
X165100000Y-111760000D03*
X132080000Y-121920000D03*
X144780000Y-101600000D03*
X156718000Y-126238000D03*
X161290000Y-124714000D03*
X132080000Y-106680000D03*
X132080000Y-142240000D03*
X132080000Y-132080000D03*
X165100000Y-127000000D03*
X141224000Y-110236000D03*
X132080000Y-127000000D03*
X152400000Y-101600000D03*
X158242000Y-110744000D03*
%TO.N,/VBAT*%
X149098000Y-133096000D03*
%TO.N,/5V*%
X154812633Y-123403847D03*
%TO.N,/~{SD_SS}*%
X151130000Y-128016000D03*
%TO.N,/SD_SCK*%
X153670000Y-127254000D03*
%TO.N,/SD_MISO*%
X154686000Y-128778000D03*
%TO.N,/SCK*%
X154178000Y-135636000D03*
X147828000Y-134112000D03*
%TO.N,/~{ACT}*%
X146812000Y-122936000D03*
X159258000Y-121666000D03*
X146812000Y-137922000D03*
%TO.N,/MOSI*%
X154178000Y-136906000D03*
%TO.N,/~{IRQ0}*%
X157480000Y-129794000D03*
X157480000Y-142494000D03*
X157480000Y-146050000D03*
%TO.N,/MISO*%
X154432000Y-140462000D03*
%TO.N,/~{SS0}*%
X141986000Y-127508000D03*
X145034000Y-136652000D03*
%TO.N,/3V3*%
X144526000Y-112522000D03*
%TD*%
D27*
%TO.N,/VBAT*%
X150941000Y-133096000D02*
X149098000Y-133096000D01*
%TO.N,Net-(D0-Pad1)*%
X156210000Y-104648000D02*
X160020000Y-104648000D01*
%TO.N,/5V*%
X157400000Y-109808000D02*
X162560000Y-104648000D01*
X155891000Y-130556000D02*
X155891000Y-128335456D01*
X157400000Y-112522000D02*
X157400000Y-109808000D01*
X157226000Y-130556000D02*
X157480000Y-130810000D01*
X155891000Y-128335456D02*
X154813366Y-127257822D01*
X154812633Y-123403847D02*
X154812633Y-125349367D01*
X154813366Y-127257822D02*
X154813366Y-125348634D01*
X155956000Y-130556000D02*
X157226000Y-130556000D01*
X157480000Y-130810000D02*
X159258000Y-130810000D01*
%TO.N,/~{SD_SS}*%
X148844000Y-128016000D02*
X151130000Y-128016000D01*
X148463000Y-125300000D02*
X148463000Y-127635000D01*
X148463000Y-127635000D02*
X148844000Y-128016000D01*
%TO.N,/SD_SCK*%
X152273000Y-127127000D02*
X152400000Y-127254000D01*
X152400000Y-127254000D02*
X153670000Y-127254000D01*
X152273000Y-125300000D02*
X152273000Y-127127000D01*
%TO.N,/SD_MOSI*%
X147193000Y-114681000D02*
X147574000Y-114300000D01*
X147574000Y-114300000D02*
X162560000Y-114300000D01*
X164338000Y-134112000D02*
X162560000Y-135890000D01*
X164338000Y-116078000D02*
X164338000Y-134112000D01*
X162560000Y-114300000D02*
X164338000Y-116078000D01*
X147193000Y-116000000D02*
X147193000Y-114681000D01*
%TO.N,/SD_MISO*%
X152916614Y-128778000D02*
X154686000Y-128778000D01*
X151003000Y-125300000D02*
X151003000Y-126864386D01*
X151003000Y-126864386D02*
X152916614Y-128778000D01*
%TO.N,Net-(J1-Pad2)*%
X142113173Y-109413887D02*
X142113173Y-115950827D01*
X141946000Y-109246714D02*
X142113173Y-109413887D01*
X141946000Y-107188000D02*
X141946000Y-109246714D01*
%TO.N,Net-(J1-Pad3)*%
X143384911Y-109059469D02*
X143384911Y-115952911D01*
X143946000Y-108498380D02*
X143384911Y-109059469D01*
X143946000Y-107188000D02*
X143946000Y-108498380D01*
%TO.N,/SCK*%
X146304000Y-128926253D02*
X144654911Y-127277164D01*
X146304000Y-132588000D02*
X146304000Y-128926253D01*
X155891000Y-135636000D02*
X154178000Y-135636000D01*
X147828000Y-134112000D02*
X146304000Y-132588000D01*
X144654911Y-127277164D02*
X144654911Y-125347089D01*
%TO.N,/~{ACT}*%
X144780000Y-137922000D02*
X146812000Y-137922000D01*
X149733000Y-125300000D02*
X149733000Y-123063000D01*
X143605489Y-139096511D02*
X144780000Y-137922000D01*
X143605489Y-143605489D02*
X143605489Y-139096511D01*
X144780000Y-144780000D02*
X143605489Y-143605489D01*
X158496000Y-122428000D02*
X159258000Y-121666000D01*
X150368000Y-122428000D02*
X158496000Y-122428000D01*
X149606915Y-122936000D02*
X149734120Y-123063205D01*
X146812000Y-122936000D02*
X149606915Y-122936000D01*
X149733000Y-123063000D02*
X150368000Y-122428000D01*
%TO.N,/MOSI*%
X154178000Y-136906000D02*
X152849520Y-135577520D01*
X145922633Y-123946556D02*
X145922633Y-125302459D01*
X147817520Y-124228448D02*
X147287072Y-123698000D01*
X152849520Y-135577520D02*
X152849520Y-130182731D01*
X154178000Y-136906000D02*
X155702000Y-136906000D01*
X146171189Y-123698000D02*
X145922633Y-123946556D01*
X152849520Y-130182731D02*
X151444789Y-128778000D01*
X148922152Y-128778000D02*
X147817520Y-127673368D01*
X151444789Y-128778000D02*
X148922152Y-128778000D01*
X147287072Y-123698000D02*
X146171189Y-123698000D01*
X147817520Y-127673368D02*
X147817520Y-124228448D01*
%TO.N,/~{IRQ0}*%
X163068000Y-117418305D02*
X161640480Y-115990785D01*
X157480000Y-142494000D02*
X157480000Y-146050000D01*
X157480000Y-129794000D02*
X163068000Y-124206000D01*
X161640480Y-115990785D02*
X154816184Y-115990785D01*
X163068000Y-124206000D02*
X163068000Y-117418305D01*
%TO.N,/MISO*%
X151825072Y-129794000D02*
X148590000Y-129794000D01*
X147202632Y-128406632D02*
X147202632Y-125286860D01*
X151825072Y-129794000D02*
X152400000Y-130368928D01*
X152400000Y-136152614D02*
X154423386Y-138176000D01*
X152400000Y-130368928D02*
X152400000Y-136152614D01*
X154423386Y-138176000D02*
X155956000Y-138176000D01*
X148590000Y-129794000D02*
X147202632Y-128406632D01*
X154423386Y-138176000D02*
X154423386Y-140453386D01*
%TO.N,/~{IRQ1}*%
X148685489Y-145954511D02*
X141636511Y-145954511D01*
X150941000Y-135636000D02*
X144526000Y-135636000D01*
X141636511Y-145954511D02*
X137922000Y-142240000D01*
X149860000Y-144780000D02*
X148685489Y-145954511D01*
X144526000Y-135636000D02*
X137922000Y-142240000D01*
%TO.N,/~{SS0}*%
X141986000Y-127508000D02*
X141986000Y-126955742D01*
X141986000Y-126955742D02*
X142113662Y-126828080D01*
X142113662Y-126828080D02*
X142113662Y-125349662D01*
X146812000Y-136652000D02*
X145034000Y-136652000D01*
X152400000Y-142240000D02*
X146812000Y-136652000D01*
%TO.N,/~{IRQ2}*%
X138556282Y-140970000D02*
X135890000Y-140970000D01*
X137955731Y-146404031D02*
X136144000Y-144592300D01*
X150775969Y-146404031D02*
X137955731Y-146404031D01*
X150941000Y-134366000D02*
X149606000Y-134366000D01*
X136144000Y-143764000D02*
X134620000Y-142240000D01*
X144339802Y-135186480D02*
X138556282Y-140970000D01*
X136144000Y-144592300D02*
X136144000Y-143764000D01*
X135890000Y-140970000D02*
X134620000Y-142240000D01*
X152400000Y-144780000D02*
X150775969Y-146404031D01*
X149606000Y-134366000D02*
X149606000Y-135186480D01*
X149606000Y-135186480D02*
X144339802Y-135186480D01*
%TO.N,/~{SS1}*%
X154940000Y-142240000D02*
X153416000Y-140716000D01*
X153416000Y-140716000D02*
X153416000Y-138176000D01*
X153416000Y-138176000D02*
X152146000Y-136906000D01*
X152146000Y-136906000D02*
X150876000Y-136906000D01*
%TO.N,/CLKOUT*%
X155891000Y-131826000D02*
X158496000Y-131826000D01*
X154940000Y-144780000D02*
X156210000Y-143510000D01*
X160782000Y-134112000D02*
X160782000Y-138167386D01*
X158496000Y-131826000D02*
X160782000Y-134112000D01*
X160782000Y-138167386D02*
X156210000Y-142739386D01*
X156210000Y-143510000D02*
X156210000Y-142748000D01*
%TO.N,Net-(U0-Pad1)*%
X147828000Y-130434000D02*
X151008000Y-130434000D01*
%TO.N,Net-(U0-Pad2)*%
X147828000Y-132334000D02*
X148336000Y-131826000D01*
X148336000Y-131826000D02*
X150876000Y-131826000D01*
%TO.N,/3V3*%
X144653000Y-116000000D02*
X144653000Y-112649000D01*
X144653000Y-112649000D02*
X144526000Y-112522000D01*
%TO.N,Net-(U1-Pad13)*%
X139574911Y-117984911D02*
X139574911Y-115986731D01*
X161290000Y-118364000D02*
X139954000Y-118364000D01*
X139954000Y-118364000D02*
X139574911Y-117984911D01*
%TO.N,Net-(U1-Pad14)*%
X139767802Y-118813520D02*
X138309543Y-117355261D01*
X157920180Y-118813520D02*
X139767802Y-118813520D01*
X138309543Y-117355261D02*
X138309543Y-115992097D01*
X161290000Y-123244000D02*
X161290000Y-122183340D01*
X161290000Y-122183340D02*
X157920180Y-118813520D01*
%TD*%
%TA.AperFunction,Conductor*%
%TO.N,/GND*%
G36*
X163740513Y-100604502D02*
G01*
X163761487Y-100621405D01*
X166078595Y-102938512D01*
X166112620Y-103000824D01*
X166115500Y-103027607D01*
X166115500Y-144622393D01*
X166095498Y-144690514D01*
X166078595Y-144711488D01*
X163761487Y-147028595D01*
X163699175Y-147062621D01*
X163672392Y-147065500D01*
X133507607Y-147065500D01*
X133439486Y-147045498D01*
X133418512Y-147028595D01*
X131155124Y-144765206D01*
X133560501Y-144765206D01*
X133564918Y-144817808D01*
X133575831Y-144947755D01*
X133577806Y-144971278D01*
X133634807Y-145170066D01*
X133637625Y-145175548D01*
X133637626Y-145175552D01*
X133726514Y-145348509D01*
X133726517Y-145348513D01*
X133729334Y-145353995D01*
X133857786Y-145516061D01*
X133862479Y-145520055D01*
X133862480Y-145520056D01*
X133918851Y-145568031D01*
X134015271Y-145650091D01*
X134195789Y-145750980D01*
X134392466Y-145814884D01*
X134597809Y-145839370D01*
X134603944Y-145838898D01*
X134603946Y-145838898D01*
X134797856Y-145823977D01*
X134797860Y-145823976D01*
X134803998Y-145823504D01*
X135003178Y-145767892D01*
X135008682Y-145765112D01*
X135008684Y-145765111D01*
X135182262Y-145677431D01*
X135182264Y-145677430D01*
X135187763Y-145674652D01*
X135350722Y-145547334D01*
X135354748Y-145542670D01*
X135354751Y-145542667D01*
X135481819Y-145395457D01*
X135481820Y-145395455D01*
X135485848Y-145390789D01*
X135576528Y-145231165D01*
X135584950Y-145216340D01*
X135584952Y-145216336D01*
X135587995Y-145210979D01*
X135643403Y-145044414D01*
X135651325Y-145020601D01*
X135651326Y-145020598D01*
X135653270Y-145014753D01*
X135663213Y-144936047D01*
X135691593Y-144870976D01*
X135750653Y-144831574D01*
X135821639Y-144830357D01*
X135873742Y-144859315D01*
X135879581Y-144864712D01*
X135883152Y-144868146D01*
X137649253Y-146634247D01*
X137664395Y-146652995D01*
X137665510Y-146654220D01*
X137671160Y-146662971D01*
X137679338Y-146669418D01*
X137679340Y-146669420D01*
X137697531Y-146683760D01*
X137701973Y-146687707D01*
X137702035Y-146687634D01*
X137705998Y-146690992D01*
X137709675Y-146694669D01*
X137713904Y-146697691D01*
X137725377Y-146705890D01*
X137730123Y-146709453D01*
X137737435Y-146715217D01*
X137770378Y-146741187D01*
X137779014Y-146744220D01*
X137786466Y-146749545D01*
X137833131Y-146763501D01*
X137835586Y-146764235D01*
X137841233Y-146766070D01*
X137882101Y-146780422D01*
X137882103Y-146780422D01*
X137889582Y-146783049D01*
X137895147Y-146783531D01*
X137897854Y-146783531D01*
X137900486Y-146783645D01*
X137900587Y-146783675D01*
X137900580Y-146783838D01*
X137901280Y-146783882D01*
X137907509Y-146785745D01*
X137958290Y-146783749D01*
X137961381Y-146783628D01*
X137966329Y-146783531D01*
X150722049Y-146783531D01*
X150745997Y-146786080D01*
X150747662Y-146786159D01*
X150757845Y-146788351D01*
X150768186Y-146787127D01*
X150791192Y-146784404D01*
X150797123Y-146784054D01*
X150797115Y-146783959D01*
X150802293Y-146783531D01*
X150807493Y-146783531D01*
X150812622Y-146782677D01*
X150812625Y-146782677D01*
X150826534Y-146780362D01*
X150832412Y-146779525D01*
X150872970Y-146774725D01*
X150872971Y-146774725D01*
X150883310Y-146773501D01*
X150891562Y-146769538D01*
X150900595Y-146768035D01*
X150909764Y-146763088D01*
X150909766Y-146763087D01*
X150945701Y-146743697D01*
X150950994Y-146741000D01*
X150990051Y-146722246D01*
X150990055Y-146722243D01*
X150997201Y-146718812D01*
X151001477Y-146715217D01*
X151003400Y-146713294D01*
X151005332Y-146711522D01*
X151005411Y-146711479D01*
X151005524Y-146711603D01*
X151006064Y-146711127D01*
X151011783Y-146708041D01*
X151030580Y-146687707D01*
X151048385Y-146668445D01*
X151051815Y-146664879D01*
X151874107Y-145842587D01*
X151936419Y-145808561D01*
X152012941Y-145815915D01*
X152057228Y-145834942D01*
X152130244Y-145851464D01*
X152249579Y-145878467D01*
X152249584Y-145878468D01*
X152255216Y-145879742D01*
X152260987Y-145879969D01*
X152260989Y-145879969D01*
X152320756Y-145882317D01*
X152458053Y-145887712D01*
X152568155Y-145871748D01*
X152653231Y-145859413D01*
X152653236Y-145859412D01*
X152658945Y-145858584D01*
X152664409Y-145856729D01*
X152664414Y-145856728D01*
X152845693Y-145795192D01*
X152845698Y-145795190D01*
X152851165Y-145793334D01*
X152880025Y-145777172D01*
X152949178Y-145738444D01*
X153028276Y-145694147D01*
X153081248Y-145650091D01*
X153179913Y-145568031D01*
X153184345Y-145564345D01*
X153227484Y-145512476D01*
X153310453Y-145412718D01*
X153310455Y-145412715D01*
X153314147Y-145408276D01*
X153413334Y-145231165D01*
X153415190Y-145225698D01*
X153415192Y-145225693D01*
X153476728Y-145044414D01*
X153476729Y-145044409D01*
X153478584Y-145038945D01*
X153479412Y-145033236D01*
X153479413Y-145033231D01*
X153503605Y-144866379D01*
X153507712Y-144838053D01*
X153509232Y-144780000D01*
X153494328Y-144617799D01*
X153491187Y-144583613D01*
X153491186Y-144583610D01*
X153490658Y-144577859D01*
X153487262Y-144565817D01*
X153437125Y-144388046D01*
X153437124Y-144388044D01*
X153435557Y-144382487D01*
X153429782Y-144370775D01*
X153348331Y-144205609D01*
X153345776Y-144200428D01*
X153224320Y-144037779D01*
X153075258Y-143899987D01*
X153070375Y-143896906D01*
X153070371Y-143896903D01*
X152908464Y-143794748D01*
X152903581Y-143791667D01*
X152715039Y-143716446D01*
X152709379Y-143715320D01*
X152709375Y-143715319D01*
X152521613Y-143677971D01*
X152521610Y-143677971D01*
X152515946Y-143676844D01*
X152510171Y-143676768D01*
X152510167Y-143676768D01*
X152408793Y-143675441D01*
X152312971Y-143674187D01*
X152307274Y-143675166D01*
X152307273Y-143675166D01*
X152118607Y-143707585D01*
X152112910Y-143708564D01*
X151922463Y-143778824D01*
X151748010Y-143882612D01*
X151743670Y-143886418D01*
X151743666Y-143886421D01*
X151606547Y-144006672D01*
X151595392Y-144016455D01*
X151591817Y-144020990D01*
X151591816Y-144020991D01*
X151574931Y-144042409D01*
X151469720Y-144175869D01*
X151467031Y-144180980D01*
X151467029Y-144180983D01*
X151454073Y-144205609D01*
X151375203Y-144355515D01*
X151315007Y-144549378D01*
X151291148Y-144750964D01*
X151304424Y-144953522D01*
X151305845Y-144959118D01*
X151305846Y-144959123D01*
X151326119Y-145038945D01*
X151354392Y-145150269D01*
X151361375Y-145165417D01*
X151371730Y-145235652D01*
X151342468Y-145300338D01*
X151336044Y-145307262D01*
X150655680Y-145987626D01*
X150593368Y-146021652D01*
X150566585Y-146024531D01*
X150381190Y-146024531D01*
X150313069Y-146004529D01*
X150266576Y-145950873D01*
X150256472Y-145880599D01*
X150285966Y-145816019D01*
X150319624Y-145788597D01*
X150409457Y-145738288D01*
X150488276Y-145694147D01*
X150541248Y-145650091D01*
X150639913Y-145568031D01*
X150644345Y-145564345D01*
X150687484Y-145512476D01*
X150770453Y-145412718D01*
X150770455Y-145412715D01*
X150774147Y-145408276D01*
X150873334Y-145231165D01*
X150875190Y-145225698D01*
X150875192Y-145225693D01*
X150936728Y-145044414D01*
X150936729Y-145044409D01*
X150938584Y-145038945D01*
X150939412Y-145033236D01*
X150939413Y-145033231D01*
X150963605Y-144866379D01*
X150967712Y-144838053D01*
X150969232Y-144780000D01*
X150954328Y-144617799D01*
X150951187Y-144583613D01*
X150951186Y-144583610D01*
X150950658Y-144577859D01*
X150947262Y-144565817D01*
X150897125Y-144388046D01*
X150897124Y-144388044D01*
X150895557Y-144382487D01*
X150889782Y-144370775D01*
X150808331Y-144205609D01*
X150805776Y-144200428D01*
X150684320Y-144037779D01*
X150535258Y-143899987D01*
X150530375Y-143896906D01*
X150530371Y-143896903D01*
X150368464Y-143794748D01*
X150363581Y-143791667D01*
X150175039Y-143716446D01*
X150169379Y-143715320D01*
X150169375Y-143715319D01*
X149981613Y-143677971D01*
X149981610Y-143677971D01*
X149975946Y-143676844D01*
X149970171Y-143676768D01*
X149970167Y-143676768D01*
X149868793Y-143675441D01*
X149772971Y-143674187D01*
X149767274Y-143675166D01*
X149767273Y-143675166D01*
X149578607Y-143707585D01*
X149572910Y-143708564D01*
X149382463Y-143778824D01*
X149208010Y-143882612D01*
X149203670Y-143886418D01*
X149203666Y-143886421D01*
X149066547Y-144006672D01*
X149055392Y-144016455D01*
X149051817Y-144020990D01*
X149051816Y-144020991D01*
X149034931Y-144042409D01*
X148929720Y-144175869D01*
X148927031Y-144180980D01*
X148927029Y-144180983D01*
X148914073Y-144205609D01*
X148835203Y-144355515D01*
X148775007Y-144549378D01*
X148751148Y-144750964D01*
X148764424Y-144953522D01*
X148765845Y-144959118D01*
X148765846Y-144959123D01*
X148786119Y-145038945D01*
X148814392Y-145150269D01*
X148821375Y-145165417D01*
X148831730Y-145235652D01*
X148802468Y-145300338D01*
X148796044Y-145307262D01*
X148565200Y-145538106D01*
X148502888Y-145572132D01*
X148476105Y-145575011D01*
X148355747Y-145575011D01*
X148287626Y-145555009D01*
X148241133Y-145501353D01*
X148231029Y-145431079D01*
X148245813Y-145387445D01*
X148330510Y-145236208D01*
X148330511Y-145236206D01*
X148333334Y-145231165D01*
X148335190Y-145225698D01*
X148335192Y-145225693D01*
X148396728Y-145044414D01*
X148396729Y-145044409D01*
X148398584Y-145038945D01*
X148399412Y-145033236D01*
X148399413Y-145033231D01*
X148423605Y-144866379D01*
X148427712Y-144838053D01*
X148429232Y-144780000D01*
X148414328Y-144617799D01*
X148411187Y-144583613D01*
X148411186Y-144583610D01*
X148410658Y-144577859D01*
X148407262Y-144565817D01*
X148357125Y-144388046D01*
X148357124Y-144388044D01*
X148355557Y-144382487D01*
X148349782Y-144370775D01*
X148268331Y-144205609D01*
X148265776Y-144200428D01*
X148144320Y-144037779D01*
X147995258Y-143899987D01*
X147990375Y-143896906D01*
X147990371Y-143896903D01*
X147828464Y-143794748D01*
X147823581Y-143791667D01*
X147635039Y-143716446D01*
X147629379Y-143715320D01*
X147629375Y-143715319D01*
X147441613Y-143677971D01*
X147441610Y-143677971D01*
X147435946Y-143676844D01*
X147430171Y-143676768D01*
X147430167Y-143676768D01*
X147328793Y-143675441D01*
X147232971Y-143674187D01*
X147227274Y-143675166D01*
X147227273Y-143675166D01*
X147038607Y-143707585D01*
X147032910Y-143708564D01*
X146842463Y-143778824D01*
X146668010Y-143882612D01*
X146663670Y-143886418D01*
X146663666Y-143886421D01*
X146526547Y-144006672D01*
X146515392Y-144016455D01*
X146511817Y-144020990D01*
X146511816Y-144020991D01*
X146494931Y-144042409D01*
X146389720Y-144175869D01*
X146387031Y-144180980D01*
X146387029Y-144180983D01*
X146374073Y-144205609D01*
X146295203Y-144355515D01*
X146235007Y-144549378D01*
X146211148Y-144750964D01*
X146224424Y-144953522D01*
X146225845Y-144959118D01*
X146225846Y-144959123D01*
X146246119Y-145038945D01*
X146274392Y-145150269D01*
X146276807Y-145155507D01*
X146276809Y-145155512D01*
X146313754Y-145235652D01*
X146359377Y-145334616D01*
X146362710Y-145339332D01*
X146388830Y-145376291D01*
X146411811Y-145443465D01*
X146394827Y-145512400D01*
X146343269Y-145561210D01*
X146285933Y-145575011D01*
X145815747Y-145575011D01*
X145747626Y-145555009D01*
X145701133Y-145501353D01*
X145691029Y-145431079D01*
X145705813Y-145387445D01*
X145790510Y-145236208D01*
X145790511Y-145236206D01*
X145793334Y-145231165D01*
X145795190Y-145225698D01*
X145795192Y-145225693D01*
X145856728Y-145044414D01*
X145856729Y-145044409D01*
X145858584Y-145038945D01*
X145859412Y-145033236D01*
X145859413Y-145033231D01*
X145883605Y-144866379D01*
X145887712Y-144838053D01*
X145889232Y-144780000D01*
X145874328Y-144617799D01*
X145871187Y-144583613D01*
X145871186Y-144583610D01*
X145870658Y-144577859D01*
X145867262Y-144565817D01*
X145817125Y-144388046D01*
X145817124Y-144388044D01*
X145815557Y-144382487D01*
X145809782Y-144370775D01*
X145728331Y-144205609D01*
X145725776Y-144200428D01*
X145604320Y-144037779D01*
X145455258Y-143899987D01*
X145450375Y-143896906D01*
X145450371Y-143896903D01*
X145288464Y-143794748D01*
X145283581Y-143791667D01*
X145095039Y-143716446D01*
X145089379Y-143715320D01*
X145089375Y-143715319D01*
X144901613Y-143677971D01*
X144901610Y-143677971D01*
X144895946Y-143676844D01*
X144890171Y-143676768D01*
X144890167Y-143676768D01*
X144788793Y-143675441D01*
X144692971Y-143674187D01*
X144687274Y-143675166D01*
X144687273Y-143675166D01*
X144498607Y-143707585D01*
X144492910Y-143708564D01*
X144387671Y-143747389D01*
X144316839Y-143752201D01*
X144254966Y-143718272D01*
X144021894Y-143485200D01*
X143987868Y-143422888D01*
X143984989Y-143396105D01*
X143984989Y-143272985D01*
X144004991Y-143204864D01*
X144058647Y-143158371D01*
X144128921Y-143148267D01*
X144180990Y-143168219D01*
X144250720Y-143214812D01*
X144256023Y-143217090D01*
X144256026Y-143217092D01*
X144392238Y-143275613D01*
X144437228Y-143294942D01*
X144510244Y-143311464D01*
X144629579Y-143338467D01*
X144629584Y-143338468D01*
X144635216Y-143339742D01*
X144640987Y-143339969D01*
X144640989Y-143339969D01*
X144700756Y-143342317D01*
X144838053Y-143347712D01*
X144945348Y-143332155D01*
X145033231Y-143319413D01*
X145033236Y-143319412D01*
X145038945Y-143318584D01*
X145044409Y-143316729D01*
X145044414Y-143316728D01*
X145225693Y-143255192D01*
X145225698Y-143255190D01*
X145231165Y-143253334D01*
X145247506Y-143244183D01*
X145317946Y-143204734D01*
X145408276Y-143154147D01*
X145412723Y-143150449D01*
X145555839Y-143031419D01*
X145564345Y-143024345D01*
X145621463Y-142955669D01*
X145690453Y-142872718D01*
X145690455Y-142872715D01*
X145694147Y-142868276D01*
X145793334Y-142691165D01*
X145795190Y-142685698D01*
X145795192Y-142685693D01*
X145856728Y-142504414D01*
X145856729Y-142504409D01*
X145858584Y-142498945D01*
X145859412Y-142493236D01*
X145859413Y-142493231D01*
X145887179Y-142301727D01*
X145887712Y-142298053D01*
X145889232Y-142240000D01*
X145886564Y-142210964D01*
X146211148Y-142210964D01*
X146224424Y-142413522D01*
X146225845Y-142419118D01*
X146225846Y-142419123D01*
X146248981Y-142510215D01*
X146274392Y-142610269D01*
X146276809Y-142615512D01*
X146337920Y-142748072D01*
X146359377Y-142794616D01*
X146369196Y-142808509D01*
X146468322Y-142948770D01*
X146476533Y-142960389D01*
X146621938Y-143102035D01*
X146790720Y-143214812D01*
X146796023Y-143217090D01*
X146796026Y-143217092D01*
X146932238Y-143275613D01*
X146977228Y-143294942D01*
X147050244Y-143311464D01*
X147169579Y-143338467D01*
X147169584Y-143338468D01*
X147175216Y-143339742D01*
X147180987Y-143339969D01*
X147180989Y-143339969D01*
X147240756Y-143342317D01*
X147378053Y-143347712D01*
X147485348Y-143332155D01*
X147573231Y-143319413D01*
X147573236Y-143319412D01*
X147578945Y-143318584D01*
X147584409Y-143316729D01*
X147584414Y-143316728D01*
X147765693Y-143255192D01*
X147765698Y-143255190D01*
X147771165Y-143253334D01*
X147787506Y-143244183D01*
X147857946Y-143204734D01*
X147948276Y-143154147D01*
X147952723Y-143150449D01*
X148095839Y-143031419D01*
X148104345Y-143024345D01*
X148161463Y-142955669D01*
X148230453Y-142872718D01*
X148230455Y-142872715D01*
X148234147Y-142868276D01*
X148333334Y-142691165D01*
X148335190Y-142685698D01*
X148335192Y-142685693D01*
X148396728Y-142504414D01*
X148396729Y-142504409D01*
X148398584Y-142498945D01*
X148399412Y-142493236D01*
X148399413Y-142493231D01*
X148427179Y-142301727D01*
X148427712Y-142298053D01*
X148429232Y-142240000D01*
X148426564Y-142210964D01*
X148751148Y-142210964D01*
X148764424Y-142413522D01*
X148765845Y-142419118D01*
X148765846Y-142419123D01*
X148788981Y-142510215D01*
X148814392Y-142610269D01*
X148816809Y-142615512D01*
X148877920Y-142748072D01*
X148899377Y-142794616D01*
X148909196Y-142808509D01*
X149008322Y-142948770D01*
X149016533Y-142960389D01*
X149161938Y-143102035D01*
X149330720Y-143214812D01*
X149336023Y-143217090D01*
X149336026Y-143217092D01*
X149472238Y-143275613D01*
X149517228Y-143294942D01*
X149590244Y-143311464D01*
X149709579Y-143338467D01*
X149709584Y-143338468D01*
X149715216Y-143339742D01*
X149720987Y-143339969D01*
X149720989Y-143339969D01*
X149780756Y-143342317D01*
X149918053Y-143347712D01*
X150025348Y-143332155D01*
X150113231Y-143319413D01*
X150113236Y-143319412D01*
X150118945Y-143318584D01*
X150124409Y-143316729D01*
X150124414Y-143316728D01*
X150305693Y-143255192D01*
X150305698Y-143255190D01*
X150311165Y-143253334D01*
X150327506Y-143244183D01*
X150397946Y-143204734D01*
X150488276Y-143154147D01*
X150492723Y-143150449D01*
X150635839Y-143031419D01*
X150644345Y-143024345D01*
X150701463Y-142955669D01*
X150770453Y-142872718D01*
X150770455Y-142872715D01*
X150774147Y-142868276D01*
X150873334Y-142691165D01*
X150875190Y-142685698D01*
X150875192Y-142685693D01*
X150936728Y-142504414D01*
X150936729Y-142504409D01*
X150938584Y-142498945D01*
X150939412Y-142493236D01*
X150939413Y-142493231D01*
X150967179Y-142301727D01*
X150967712Y-142298053D01*
X150969232Y-142240000D01*
X150952044Y-142052941D01*
X150951187Y-142043613D01*
X150951186Y-142043610D01*
X150950658Y-142037859D01*
X150947015Y-142024942D01*
X150897125Y-141848046D01*
X150897124Y-141848044D01*
X150895557Y-141842487D01*
X150888636Y-141828451D01*
X150808331Y-141665609D01*
X150805776Y-141660428D01*
X150684320Y-141497779D01*
X150535258Y-141359987D01*
X150530375Y-141356906D01*
X150530371Y-141356903D01*
X150368464Y-141254748D01*
X150363581Y-141251667D01*
X150175039Y-141176446D01*
X150169379Y-141175320D01*
X150169375Y-141175319D01*
X149981613Y-141137971D01*
X149981610Y-141137971D01*
X149975946Y-141136844D01*
X149970171Y-141136768D01*
X149970167Y-141136768D01*
X149868793Y-141135441D01*
X149772971Y-141134187D01*
X149767274Y-141135166D01*
X149767273Y-141135166D01*
X149693492Y-141147844D01*
X149572910Y-141168564D01*
X149382463Y-141238824D01*
X149377502Y-141241776D01*
X149377501Y-141241776D01*
X149364473Y-141249527D01*
X149208010Y-141342612D01*
X149203670Y-141346418D01*
X149203666Y-141346421D01*
X149124677Y-141415693D01*
X149055392Y-141476455D01*
X148929720Y-141635869D01*
X148927031Y-141640980D01*
X148927029Y-141640983D01*
X148879128Y-141732027D01*
X148835203Y-141815515D01*
X148817933Y-141871134D01*
X148778991Y-141996549D01*
X148775007Y-142009378D01*
X148751148Y-142210964D01*
X148426564Y-142210964D01*
X148412044Y-142052941D01*
X148411187Y-142043613D01*
X148411186Y-142043610D01*
X148410658Y-142037859D01*
X148407015Y-142024942D01*
X148357125Y-141848046D01*
X148357124Y-141848044D01*
X148355557Y-141842487D01*
X148348636Y-141828451D01*
X148268331Y-141665609D01*
X148265776Y-141660428D01*
X148144320Y-141497779D01*
X147995258Y-141359987D01*
X147990375Y-141356906D01*
X147990371Y-141356903D01*
X147828464Y-141254748D01*
X147823581Y-141251667D01*
X147635039Y-141176446D01*
X147629379Y-141175320D01*
X147629375Y-141175319D01*
X147441613Y-141137971D01*
X147441610Y-141137971D01*
X147435946Y-141136844D01*
X147430171Y-141136768D01*
X147430167Y-141136768D01*
X147328793Y-141135441D01*
X147232971Y-141134187D01*
X147227274Y-141135166D01*
X147227273Y-141135166D01*
X147153492Y-141147844D01*
X147032910Y-141168564D01*
X146842463Y-141238824D01*
X146837502Y-141241776D01*
X146837501Y-141241776D01*
X146824473Y-141249527D01*
X146668010Y-141342612D01*
X146663670Y-141346418D01*
X146663666Y-141346421D01*
X146584677Y-141415693D01*
X146515392Y-141476455D01*
X146389720Y-141635869D01*
X146387031Y-141640980D01*
X146387029Y-141640983D01*
X146339128Y-141732027D01*
X146295203Y-141815515D01*
X146277933Y-141871134D01*
X146238991Y-141996549D01*
X146235007Y-142009378D01*
X146211148Y-142210964D01*
X145886564Y-142210964D01*
X145872044Y-142052941D01*
X145871187Y-142043613D01*
X145871186Y-142043610D01*
X145870658Y-142037859D01*
X145867015Y-142024942D01*
X145817125Y-141848046D01*
X145817124Y-141848044D01*
X145815557Y-141842487D01*
X145808636Y-141828451D01*
X145728331Y-141665609D01*
X145725776Y-141660428D01*
X145604320Y-141497779D01*
X145455258Y-141359987D01*
X145450375Y-141356906D01*
X145450371Y-141356903D01*
X145288464Y-141254748D01*
X145283581Y-141251667D01*
X145095039Y-141176446D01*
X145089379Y-141175320D01*
X145089375Y-141175319D01*
X144901613Y-141137971D01*
X144901610Y-141137971D01*
X144895946Y-141136844D01*
X144890171Y-141136768D01*
X144890167Y-141136768D01*
X144788793Y-141135441D01*
X144692971Y-141134187D01*
X144687274Y-141135166D01*
X144687273Y-141135166D01*
X144613492Y-141147844D01*
X144492910Y-141168564D01*
X144302463Y-141238824D01*
X144297502Y-141241776D01*
X144297501Y-141241776D01*
X144175412Y-141314411D01*
X144106641Y-141332051D01*
X144039251Y-141309710D01*
X143994638Y-141254482D01*
X143984989Y-141206126D01*
X143984989Y-139305895D01*
X144004991Y-139237774D01*
X144021894Y-139216800D01*
X144900289Y-138338405D01*
X144962601Y-138304379D01*
X144989384Y-138301500D01*
X146212141Y-138301500D01*
X146280262Y-138321502D01*
X146307522Y-138345169D01*
X146308672Y-138346501D01*
X146312908Y-138352805D01*
X146318525Y-138357916D01*
X146422533Y-138452555D01*
X146430076Y-138459419D01*
X146569293Y-138535008D01*
X146722522Y-138575207D01*
X146806477Y-138576526D01*
X146873319Y-138577576D01*
X146873322Y-138577576D01*
X146880916Y-138577695D01*
X147035332Y-138542329D01*
X147143249Y-138488053D01*
X147170072Y-138474563D01*
X147170075Y-138474561D01*
X147176855Y-138471151D01*
X147182626Y-138466222D01*
X147182629Y-138466220D01*
X147291536Y-138373204D01*
X147291536Y-138373203D01*
X147297314Y-138368269D01*
X147389755Y-138239624D01*
X147448842Y-138092641D01*
X147449192Y-138090179D01*
X147485008Y-138031417D01*
X147548868Y-138000394D01*
X147619363Y-138008821D01*
X147658860Y-138035554D01*
X151336477Y-141713171D01*
X151370503Y-141775483D01*
X151367715Y-141839630D01*
X151316720Y-142003861D01*
X151315007Y-142009378D01*
X151291148Y-142210964D01*
X151304424Y-142413522D01*
X151305845Y-142419118D01*
X151305846Y-142419123D01*
X151328981Y-142510215D01*
X151354392Y-142610269D01*
X151356809Y-142615512D01*
X151417920Y-142748072D01*
X151439377Y-142794616D01*
X151449196Y-142808509D01*
X151548322Y-142948770D01*
X151556533Y-142960389D01*
X151701938Y-143102035D01*
X151870720Y-143214812D01*
X151876023Y-143217090D01*
X151876026Y-143217092D01*
X152012238Y-143275613D01*
X152057228Y-143294942D01*
X152130244Y-143311464D01*
X152249579Y-143338467D01*
X152249584Y-143338468D01*
X152255216Y-143339742D01*
X152260987Y-143339969D01*
X152260989Y-143339969D01*
X152320756Y-143342317D01*
X152458053Y-143347712D01*
X152565348Y-143332155D01*
X152653231Y-143319413D01*
X152653236Y-143319412D01*
X152658945Y-143318584D01*
X152664409Y-143316729D01*
X152664414Y-143316728D01*
X152845693Y-143255192D01*
X152845698Y-143255190D01*
X152851165Y-143253334D01*
X152867506Y-143244183D01*
X152937946Y-143204734D01*
X153028276Y-143154147D01*
X153032723Y-143150449D01*
X153175839Y-143031419D01*
X153184345Y-143024345D01*
X153241463Y-142955669D01*
X153310453Y-142872718D01*
X153310455Y-142872715D01*
X153314147Y-142868276D01*
X153413334Y-142691165D01*
X153415190Y-142685698D01*
X153415192Y-142685693D01*
X153476728Y-142504414D01*
X153476729Y-142504409D01*
X153478584Y-142498945D01*
X153479412Y-142493236D01*
X153479413Y-142493231D01*
X153507179Y-142301727D01*
X153507712Y-142298053D01*
X153509232Y-142240000D01*
X153492044Y-142052941D01*
X153491187Y-142043613D01*
X153491186Y-142043610D01*
X153490658Y-142037859D01*
X153487015Y-142024942D01*
X153437125Y-141848046D01*
X153437124Y-141848044D01*
X153435557Y-141842487D01*
X153428636Y-141828451D01*
X153348331Y-141665609D01*
X153345776Y-141660428D01*
X153224320Y-141497779D01*
X153075258Y-141359987D01*
X153070375Y-141356906D01*
X153070371Y-141356903D01*
X152908464Y-141254748D01*
X152903581Y-141251667D01*
X152715039Y-141176446D01*
X152709379Y-141175320D01*
X152709375Y-141175319D01*
X152521613Y-141137971D01*
X152521610Y-141137971D01*
X152515946Y-141136844D01*
X152510171Y-141136768D01*
X152510167Y-141136768D01*
X152408793Y-141135441D01*
X152312971Y-141134187D01*
X152307274Y-141135166D01*
X152307273Y-141135166D01*
X152233492Y-141147844D01*
X152112910Y-141168564D01*
X152007671Y-141207389D01*
X151936839Y-141212201D01*
X151874966Y-141178272D01*
X149887790Y-139191096D01*
X149853764Y-139128784D01*
X149858829Y-139057969D01*
X149901376Y-139001133D01*
X149967896Y-138976322D01*
X149999444Y-138979688D01*
X149999732Y-138978112D01*
X150018667Y-138981570D01*
X150047084Y-138983807D01*
X150052014Y-138984000D01*
X150668885Y-138984000D01*
X150684124Y-138979525D01*
X150685329Y-138978135D01*
X150687000Y-138970452D01*
X150687000Y-138965884D01*
X151195000Y-138965884D01*
X151199475Y-138981123D01*
X151200865Y-138982328D01*
X151208548Y-138983999D01*
X151829984Y-138983999D01*
X151834920Y-138983805D01*
X151863336Y-138981570D01*
X151875931Y-138979270D01*
X152021790Y-138936893D01*
X152036221Y-138930648D01*
X152165678Y-138854089D01*
X152178104Y-138844449D01*
X152284449Y-138738104D01*
X152294089Y-138725678D01*
X152370648Y-138596221D01*
X152376893Y-138581790D01*
X152415939Y-138447395D01*
X152415899Y-138433294D01*
X152408630Y-138430000D01*
X151213115Y-138430000D01*
X151197876Y-138434475D01*
X151196671Y-138435865D01*
X151195000Y-138443548D01*
X151195000Y-138965884D01*
X150687000Y-138965884D01*
X150687000Y-138448115D01*
X150682525Y-138432876D01*
X150681135Y-138431671D01*
X150673452Y-138430000D01*
X149479122Y-138430000D01*
X149465591Y-138433973D01*
X149461328Y-138463624D01*
X149457995Y-138509318D01*
X149415367Y-138566093D01*
X149348812Y-138590810D01*
X149279459Y-138575620D01*
X149250907Y-138554213D01*
X147118478Y-136421784D01*
X147103336Y-136403036D01*
X147102221Y-136401811D01*
X147096571Y-136393060D01*
X147088393Y-136386613D01*
X147088391Y-136386611D01*
X147070200Y-136372271D01*
X147065759Y-136368325D01*
X147065697Y-136368398D01*
X147061733Y-136365039D01*
X147058056Y-136361362D01*
X147042308Y-136350108D01*
X147037638Y-136346602D01*
X146997353Y-136314844D01*
X146988719Y-136311812D01*
X146981266Y-136306486D01*
X146932150Y-136291797D01*
X146926508Y-136289964D01*
X146885633Y-136275610D01*
X146885632Y-136275610D01*
X146878149Y-136272982D01*
X146872584Y-136272500D01*
X146869876Y-136272500D01*
X146867242Y-136272386D01*
X146867144Y-136272357D01*
X146867151Y-136272193D01*
X146866447Y-136272149D01*
X146860222Y-136270287D01*
X146806365Y-136272403D01*
X146801418Y-136272500D01*
X145633682Y-136272500D01*
X145565561Y-136252498D01*
X145539114Y-136226860D01*
X145537878Y-136227949D01*
X145535123Y-136224824D01*
X145533558Y-136221474D01*
X145529851Y-136217880D01*
X145528562Y-136216005D01*
X145530410Y-136214734D01*
X145505079Y-136160498D01*
X145514581Y-136090140D01*
X145560613Y-136036089D01*
X145629638Y-136015500D01*
X149721261Y-136015500D01*
X149789382Y-136035502D01*
X149810356Y-136052405D01*
X149875277Y-136117326D01*
X149948066Y-136154414D01*
X149956542Y-136158733D01*
X150008157Y-136207482D01*
X150025223Y-136276397D01*
X150002322Y-136343598D01*
X149956542Y-136383267D01*
X149875277Y-136424674D01*
X149784674Y-136515277D01*
X149726502Y-136629445D01*
X149711500Y-136724166D01*
X149711500Y-137087834D01*
X149726502Y-137182555D01*
X149733465Y-137196220D01*
X149778956Y-137285500D01*
X149784674Y-137296723D01*
X149787442Y-137299491D01*
X149810180Y-137363217D01*
X149794101Y-137432369D01*
X149748525Y-137478867D01*
X149716323Y-137497911D01*
X149703896Y-137507551D01*
X149597551Y-137613896D01*
X149587911Y-137626322D01*
X149511352Y-137755779D01*
X149505107Y-137770210D01*
X149466061Y-137904605D01*
X149466101Y-137918706D01*
X149473370Y-137922000D01*
X152402878Y-137922000D01*
X152418116Y-137917526D01*
X152423600Y-137911197D01*
X152483326Y-137872813D01*
X152554322Y-137872813D01*
X152607920Y-137904614D01*
X152999595Y-138296289D01*
X153033621Y-138358601D01*
X153036500Y-138385384D01*
X153036500Y-140662080D01*
X153033951Y-140686028D01*
X153033872Y-140687693D01*
X153031680Y-140697876D01*
X153032904Y-140708217D01*
X153035627Y-140731223D01*
X153035977Y-140737154D01*
X153036072Y-140737146D01*
X153036500Y-140742324D01*
X153036500Y-140747524D01*
X153037354Y-140752653D01*
X153037354Y-140752656D01*
X153039669Y-140766565D01*
X153040506Y-140772443D01*
X153040645Y-140773613D01*
X153046530Y-140823341D01*
X153050493Y-140831593D01*
X153051996Y-140840626D01*
X153056943Y-140849795D01*
X153056944Y-140849797D01*
X153076334Y-140885732D01*
X153079031Y-140891025D01*
X153097785Y-140930082D01*
X153097788Y-140930086D01*
X153101219Y-140937232D01*
X153104814Y-140941508D01*
X153106737Y-140943431D01*
X153108509Y-140945363D01*
X153108552Y-140945442D01*
X153108428Y-140945555D01*
X153108904Y-140946095D01*
X153111990Y-140951814D01*
X153119635Y-140958881D01*
X153151586Y-140988416D01*
X153155152Y-140991846D01*
X153876477Y-141713171D01*
X153910503Y-141775483D01*
X153907715Y-141839630D01*
X153856720Y-142003861D01*
X153855007Y-142009378D01*
X153831148Y-142210964D01*
X153844424Y-142413522D01*
X153845845Y-142419118D01*
X153845846Y-142419123D01*
X153868981Y-142510215D01*
X153894392Y-142610269D01*
X153896809Y-142615512D01*
X153957920Y-142748072D01*
X153979377Y-142794616D01*
X153989196Y-142808509D01*
X154088322Y-142948770D01*
X154096533Y-142960389D01*
X154241938Y-143102035D01*
X154410720Y-143214812D01*
X154416023Y-143217090D01*
X154416026Y-143217092D01*
X154552238Y-143275613D01*
X154597228Y-143294942D01*
X154670244Y-143311464D01*
X154789579Y-143338467D01*
X154789584Y-143338468D01*
X154795216Y-143339742D01*
X154800987Y-143339969D01*
X154800989Y-143339969D01*
X154860756Y-143342317D01*
X154998053Y-143347712D01*
X155105348Y-143332155D01*
X155193231Y-143319413D01*
X155193236Y-143319412D01*
X155198945Y-143318584D01*
X155204409Y-143316729D01*
X155204414Y-143316728D01*
X155385693Y-143255192D01*
X155385698Y-143255190D01*
X155391165Y-143253334D01*
X155407506Y-143244183D01*
X155477946Y-143204734D01*
X155568276Y-143154147D01*
X155572718Y-143150453D01*
X155572724Y-143150449D01*
X155623931Y-143107860D01*
X155689095Y-143079679D01*
X155759150Y-143091203D01*
X155811854Y-143138771D01*
X155830500Y-143204734D01*
X155830500Y-143300616D01*
X155810498Y-143368737D01*
X155793595Y-143389711D01*
X155465144Y-143718162D01*
X155402832Y-143752188D01*
X155329360Y-143746097D01*
X155255039Y-143716446D01*
X155249379Y-143715320D01*
X155249375Y-143715319D01*
X155061613Y-143677971D01*
X155061610Y-143677971D01*
X155055946Y-143676844D01*
X155050171Y-143676768D01*
X155050167Y-143676768D01*
X154948793Y-143675441D01*
X154852971Y-143674187D01*
X154847274Y-143675166D01*
X154847273Y-143675166D01*
X154658607Y-143707585D01*
X154652910Y-143708564D01*
X154462463Y-143778824D01*
X154288010Y-143882612D01*
X154283670Y-143886418D01*
X154283666Y-143886421D01*
X154146547Y-144006672D01*
X154135392Y-144016455D01*
X154131817Y-144020990D01*
X154131816Y-144020991D01*
X154114931Y-144042409D01*
X154009720Y-144175869D01*
X154007031Y-144180980D01*
X154007029Y-144180983D01*
X153994073Y-144205609D01*
X153915203Y-144355515D01*
X153855007Y-144549378D01*
X153831148Y-144750964D01*
X153844424Y-144953522D01*
X153845845Y-144959118D01*
X153845846Y-144959123D01*
X153866119Y-145038945D01*
X153894392Y-145150269D01*
X153896807Y-145155507D01*
X153896809Y-145155512D01*
X153933754Y-145235652D01*
X153979377Y-145334616D01*
X153982710Y-145339332D01*
X154064588Y-145455187D01*
X154096533Y-145500389D01*
X154100675Y-145504424D01*
X154157637Y-145559913D01*
X154241938Y-145642035D01*
X154410720Y-145754812D01*
X154416023Y-145757090D01*
X154416026Y-145757092D01*
X154552238Y-145815613D01*
X154597228Y-145834942D01*
X154670244Y-145851464D01*
X154789579Y-145878467D01*
X154789584Y-145878468D01*
X154795216Y-145879742D01*
X154800987Y-145879969D01*
X154800989Y-145879969D01*
X154860756Y-145882317D01*
X154998053Y-145887712D01*
X155108155Y-145871748D01*
X155193231Y-145859413D01*
X155193236Y-145859412D01*
X155198945Y-145858584D01*
X155204409Y-145856729D01*
X155204414Y-145856728D01*
X155385693Y-145795192D01*
X155385698Y-145795190D01*
X155391165Y-145793334D01*
X155420025Y-145777172D01*
X155489178Y-145738444D01*
X155568276Y-145694147D01*
X155621248Y-145650091D01*
X155719913Y-145568031D01*
X155724345Y-145564345D01*
X155767484Y-145512476D01*
X155850453Y-145412718D01*
X155850455Y-145412715D01*
X155854147Y-145408276D01*
X155953334Y-145231165D01*
X155955190Y-145225698D01*
X155955192Y-145225693D01*
X156016728Y-145044414D01*
X156016729Y-145044409D01*
X156018584Y-145038945D01*
X156019412Y-145033236D01*
X156019413Y-145033231D01*
X156043605Y-144866379D01*
X156047712Y-144838053D01*
X156049232Y-144780000D01*
X156034328Y-144617799D01*
X156031187Y-144583613D01*
X156031186Y-144583610D01*
X156030658Y-144577859D01*
X156027262Y-144565817D01*
X155977127Y-144388053D01*
X155977126Y-144388051D01*
X155975557Y-144382487D01*
X155976058Y-144382346D01*
X155970618Y-144315289D01*
X156004894Y-144251800D01*
X156440216Y-143816478D01*
X156458964Y-143801336D01*
X156460189Y-143800221D01*
X156468940Y-143794571D01*
X156475387Y-143786393D01*
X156475389Y-143786391D01*
X156489729Y-143768200D01*
X156493678Y-143763756D01*
X156493604Y-143763694D01*
X156496957Y-143759737D01*
X156500638Y-143756056D01*
X156511865Y-143740346D01*
X156515421Y-143735609D01*
X156528842Y-143718585D01*
X156547156Y-143695353D01*
X156550189Y-143686716D01*
X156555513Y-143679266D01*
X156570202Y-143630151D01*
X156572034Y-143624514D01*
X156586390Y-143583633D01*
X156586390Y-143583632D01*
X156589018Y-143576149D01*
X156589500Y-143570584D01*
X156589500Y-143567876D01*
X156589614Y-143565242D01*
X156589643Y-143565144D01*
X156589807Y-143565151D01*
X156589851Y-143564447D01*
X156591713Y-143558222D01*
X156589597Y-143504365D01*
X156589500Y-143499418D01*
X156589500Y-142948770D01*
X156609502Y-142880649D01*
X156626405Y-142859675D01*
X156703982Y-142782098D01*
X156766294Y-142748072D01*
X156837109Y-142753137D01*
X156897658Y-142800916D01*
X156906447Y-142813995D01*
X156962028Y-142896708D01*
X156980908Y-142924805D01*
X156986527Y-142929918D01*
X156986528Y-142929919D01*
X157059299Y-142996135D01*
X157096222Y-143056775D01*
X157100500Y-143089329D01*
X157100500Y-145455187D01*
X157080498Y-145523308D01*
X157057330Y-145550135D01*
X156990039Y-145608838D01*
X156898950Y-145738444D01*
X156888553Y-145765111D01*
X156865787Y-145823504D01*
X156841406Y-145886037D01*
X156840414Y-145893570D01*
X156840414Y-145893571D01*
X156826482Y-145999399D01*
X156820729Y-146043096D01*
X156838113Y-146200553D01*
X156892553Y-146349319D01*
X156980908Y-146480805D01*
X156986527Y-146485918D01*
X156986528Y-146485919D01*
X156997903Y-146496269D01*
X157098076Y-146587419D01*
X157237293Y-146663008D01*
X157390522Y-146703207D01*
X157474477Y-146704526D01*
X157541319Y-146705576D01*
X157541322Y-146705576D01*
X157548916Y-146705695D01*
X157703332Y-146670329D01*
X157775074Y-146634247D01*
X157838072Y-146602563D01*
X157838075Y-146602561D01*
X157844855Y-146599151D01*
X157850626Y-146594222D01*
X157850629Y-146594220D01*
X157959536Y-146501204D01*
X157959536Y-146501203D01*
X157965314Y-146496269D01*
X158057755Y-146367624D01*
X158116842Y-146220641D01*
X158139162Y-146063807D01*
X158139307Y-146050000D01*
X158120276Y-145892733D01*
X158064280Y-145744546D01*
X158055814Y-145732228D01*
X157978855Y-145620251D01*
X157978854Y-145620249D01*
X157974553Y-145613992D01*
X157901681Y-145549065D01*
X157864126Y-145488816D01*
X157859500Y-145454989D01*
X157859500Y-143777966D01*
X161228257Y-143777966D01*
X161258565Y-143912446D01*
X161261645Y-143922275D01*
X161341770Y-144119603D01*
X161346413Y-144128794D01*
X161457694Y-144310388D01*
X161463777Y-144318699D01*
X161603213Y-144479667D01*
X161610580Y-144486883D01*
X161774434Y-144622916D01*
X161782881Y-144628831D01*
X161966756Y-144736279D01*
X161976042Y-144740729D01*
X162175001Y-144816703D01*
X162184899Y-144819579D01*
X162288250Y-144840606D01*
X162302299Y-144839410D01*
X162306000Y-144829065D01*
X162306000Y-144828517D01*
X162814000Y-144828517D01*
X162818064Y-144842359D01*
X162831478Y-144844393D01*
X162838184Y-144843534D01*
X162848262Y-144841392D01*
X163052255Y-144780191D01*
X163061842Y-144776433D01*
X163253095Y-144682739D01*
X163261945Y-144677464D01*
X163435328Y-144553792D01*
X163443200Y-144547139D01*
X163594052Y-144396812D01*
X163600730Y-144388965D01*
X163725003Y-144216020D01*
X163730313Y-144207183D01*
X163824670Y-144016267D01*
X163828469Y-144006672D01*
X163890377Y-143802910D01*
X163892555Y-143792837D01*
X163893986Y-143781962D01*
X163891775Y-143767778D01*
X163878617Y-143764000D01*
X162832115Y-143764000D01*
X162816876Y-143768475D01*
X162815671Y-143769865D01*
X162814000Y-143777548D01*
X162814000Y-144828517D01*
X162306000Y-144828517D01*
X162306000Y-143782115D01*
X162301525Y-143766876D01*
X162300135Y-143765671D01*
X162292452Y-143764000D01*
X161243225Y-143764000D01*
X161229694Y-143767973D01*
X161228257Y-143777966D01*
X157859500Y-143777966D01*
X157859500Y-143244183D01*
X161224389Y-143244183D01*
X161225912Y-143252607D01*
X161238292Y-143256000D01*
X163878344Y-143256000D01*
X163891875Y-143252027D01*
X163893180Y-143242947D01*
X163851214Y-143075875D01*
X163847894Y-143066124D01*
X163762972Y-142870814D01*
X163758105Y-142861739D01*
X163642426Y-142682926D01*
X163636136Y-142674757D01*
X163492806Y-142517240D01*
X163485273Y-142510215D01*
X163318139Y-142378222D01*
X163309552Y-142372517D01*
X163123117Y-142269599D01*
X163113705Y-142265369D01*
X162999391Y-142224888D01*
X162941855Y-142183294D01*
X162915939Y-142117196D01*
X162929873Y-142047580D01*
X162979232Y-141996549D01*
X163000943Y-141986804D01*
X163011165Y-141983334D01*
X163188276Y-141884147D01*
X163203923Y-141871134D01*
X163339913Y-141758031D01*
X163344345Y-141754345D01*
X163368172Y-141725696D01*
X163470453Y-141602718D01*
X163470455Y-141602715D01*
X163474147Y-141598276D01*
X163573334Y-141421165D01*
X163575190Y-141415698D01*
X163575192Y-141415693D01*
X163636728Y-141234414D01*
X163636729Y-141234409D01*
X163638584Y-141228945D01*
X163639412Y-141223236D01*
X163639413Y-141223231D01*
X163667179Y-141031727D01*
X163667712Y-141028053D01*
X163669232Y-140970000D01*
X163656959Y-140836431D01*
X163651187Y-140773613D01*
X163651186Y-140773610D01*
X163650658Y-140767859D01*
X163644923Y-140747524D01*
X163597125Y-140578046D01*
X163597124Y-140578044D01*
X163595557Y-140572487D01*
X163584978Y-140551033D01*
X163508331Y-140395609D01*
X163505776Y-140390428D01*
X163384320Y-140227779D01*
X163235258Y-140089987D01*
X163230375Y-140086906D01*
X163230371Y-140086903D01*
X163068464Y-139984748D01*
X163063581Y-139981667D01*
X162875039Y-139906446D01*
X162869379Y-139905320D01*
X162869375Y-139905319D01*
X162681613Y-139867971D01*
X162681610Y-139867971D01*
X162675946Y-139866844D01*
X162670171Y-139866768D01*
X162670167Y-139866768D01*
X162568793Y-139865441D01*
X162472971Y-139864187D01*
X162467274Y-139865166D01*
X162467273Y-139865166D01*
X162278607Y-139897585D01*
X162272910Y-139898564D01*
X162082463Y-139968824D01*
X161908010Y-140072612D01*
X161903670Y-140076418D01*
X161903666Y-140076421D01*
X161759733Y-140202648D01*
X161755392Y-140206455D01*
X161629720Y-140365869D01*
X161627031Y-140370980D01*
X161627029Y-140370983D01*
X161614073Y-140395609D01*
X161535203Y-140545515D01*
X161475007Y-140739378D01*
X161451148Y-140940964D01*
X161464424Y-141143522D01*
X161465845Y-141149118D01*
X161465846Y-141149123D01*
X161497446Y-141273546D01*
X161514392Y-141340269D01*
X161516809Y-141345512D01*
X161582341Y-141487662D01*
X161599377Y-141524616D01*
X161602710Y-141529332D01*
X161681617Y-141640983D01*
X161716533Y-141690389D01*
X161861938Y-141832035D01*
X162030720Y-141944812D01*
X162036023Y-141947090D01*
X162036026Y-141947092D01*
X162132954Y-141988735D01*
X162187647Y-142034003D01*
X162209184Y-142101654D01*
X162190727Y-142170210D01*
X162138136Y-142217904D01*
X162122361Y-142224268D01*
X162036868Y-142252212D01*
X162027359Y-142256209D01*
X161838463Y-142354542D01*
X161829738Y-142360036D01*
X161659433Y-142487905D01*
X161651726Y-142494748D01*
X161504590Y-142648717D01*
X161498104Y-142656727D01*
X161378098Y-142832649D01*
X161373000Y-142841623D01*
X161283338Y-143034783D01*
X161279775Y-143044470D01*
X161224389Y-143244183D01*
X157859500Y-143244183D01*
X157859500Y-143088730D01*
X157879502Y-143020609D01*
X157903669Y-142992919D01*
X157959536Y-142945204D01*
X157965314Y-142940269D01*
X158057755Y-142811624D01*
X158116842Y-142664641D01*
X158139162Y-142507807D01*
X158139307Y-142494000D01*
X158138570Y-142487905D01*
X158128870Y-142407755D01*
X158120276Y-142336733D01*
X158064280Y-142188546D01*
X158004561Y-142101654D01*
X157978855Y-142064251D01*
X157978854Y-142064249D01*
X157974553Y-142057992D01*
X157954721Y-142040322D01*
X157931570Y-142019696D01*
X157856275Y-141952611D01*
X157795976Y-141920684D01*
X157745136Y-141871134D01*
X157729154Y-141801959D01*
X157753108Y-141735126D01*
X157765843Y-141720237D01*
X161012216Y-138473864D01*
X161030964Y-138458722D01*
X161032189Y-138457607D01*
X161040940Y-138451957D01*
X161047387Y-138443779D01*
X161047389Y-138443777D01*
X161061729Y-138425586D01*
X161065678Y-138421142D01*
X161065604Y-138421080D01*
X161068957Y-138417123D01*
X161072638Y-138413442D01*
X161081555Y-138400964D01*
X161451148Y-138400964D01*
X161464424Y-138603522D01*
X161465845Y-138609118D01*
X161465846Y-138609123D01*
X161495448Y-138725678D01*
X161514392Y-138800269D01*
X161516809Y-138805512D01*
X161554010Y-138886208D01*
X161599377Y-138984616D01*
X161602710Y-138989332D01*
X161685935Y-139107093D01*
X161716533Y-139150389D01*
X161861938Y-139292035D01*
X162030720Y-139404812D01*
X162036023Y-139407090D01*
X162036026Y-139407092D01*
X162124707Y-139445192D01*
X162217228Y-139484942D01*
X162290244Y-139501464D01*
X162409579Y-139528467D01*
X162409584Y-139528468D01*
X162415216Y-139529742D01*
X162420987Y-139529969D01*
X162420989Y-139529969D01*
X162480756Y-139532317D01*
X162618053Y-139537712D01*
X162718499Y-139523148D01*
X162813231Y-139509413D01*
X162813236Y-139509412D01*
X162818945Y-139508584D01*
X162824409Y-139506729D01*
X162824414Y-139506728D01*
X163005693Y-139445192D01*
X163005698Y-139445190D01*
X163011165Y-139443334D01*
X163188276Y-139344147D01*
X163250934Y-139292035D01*
X163339913Y-139218031D01*
X163344345Y-139214345D01*
X163435607Y-139104615D01*
X163470453Y-139062718D01*
X163470455Y-139062715D01*
X163474147Y-139058276D01*
X163573334Y-138881165D01*
X163575190Y-138875698D01*
X163575192Y-138875693D01*
X163636728Y-138694414D01*
X163636729Y-138694409D01*
X163638584Y-138688945D01*
X163639412Y-138683236D01*
X163639413Y-138683231D01*
X163660337Y-138538916D01*
X163667712Y-138488053D01*
X163669232Y-138430000D01*
X163655624Y-138281900D01*
X163651187Y-138233613D01*
X163651186Y-138233610D01*
X163650658Y-138227859D01*
X163644268Y-138205203D01*
X163597125Y-138038046D01*
X163597124Y-138038044D01*
X163595557Y-138032487D01*
X163584978Y-138011033D01*
X163508331Y-137855609D01*
X163505776Y-137850428D01*
X163384320Y-137687779D01*
X163235258Y-137549987D01*
X163230375Y-137546906D01*
X163230371Y-137546903D01*
X163068464Y-137444748D01*
X163063581Y-137441667D01*
X162875039Y-137366446D01*
X162869379Y-137365320D01*
X162869375Y-137365319D01*
X162681613Y-137327971D01*
X162681610Y-137327971D01*
X162675946Y-137326844D01*
X162670171Y-137326768D01*
X162670167Y-137326768D01*
X162568793Y-137325441D01*
X162472971Y-137324187D01*
X162467274Y-137325166D01*
X162467273Y-137325166D01*
X162349682Y-137345372D01*
X162272910Y-137358564D01*
X162082463Y-137428824D01*
X161908010Y-137532612D01*
X161903670Y-137536418D01*
X161903666Y-137536421D01*
X161789547Y-137636502D01*
X161755392Y-137666455D01*
X161629720Y-137825869D01*
X161627031Y-137830980D01*
X161627029Y-137830983D01*
X161537897Y-138000394D01*
X161535203Y-138005515D01*
X161475007Y-138199378D01*
X161451148Y-138400964D01*
X161081555Y-138400964D01*
X161083865Y-138397732D01*
X161087421Y-138392995D01*
X161112708Y-138360918D01*
X161119156Y-138352739D01*
X161122189Y-138344102D01*
X161127513Y-138336652D01*
X161142202Y-138287537D01*
X161144034Y-138281900D01*
X161158390Y-138241019D01*
X161158390Y-138241018D01*
X161161018Y-138233535D01*
X161161500Y-138227970D01*
X161161500Y-138225262D01*
X161161614Y-138222628D01*
X161161643Y-138222530D01*
X161161807Y-138222537D01*
X161161851Y-138221833D01*
X161163713Y-138215608D01*
X161161597Y-138161751D01*
X161161500Y-138156804D01*
X161161500Y-134165920D01*
X161164049Y-134141972D01*
X161164128Y-134140307D01*
X161166320Y-134130124D01*
X161162373Y-134096777D01*
X161162023Y-134090846D01*
X161161928Y-134090854D01*
X161161500Y-134085676D01*
X161161500Y-134080476D01*
X161160284Y-134073170D01*
X161158331Y-134061435D01*
X161157494Y-134055557D01*
X161152694Y-134014999D01*
X161152694Y-134014998D01*
X161151470Y-134004659D01*
X161147507Y-133996407D01*
X161146004Y-133987374D01*
X161121644Y-133942227D01*
X161118960Y-133936958D01*
X161100212Y-133897915D01*
X161096780Y-133890768D01*
X161093186Y-133886492D01*
X161091246Y-133884552D01*
X161089493Y-133882641D01*
X161089444Y-133882551D01*
X161089567Y-133882439D01*
X161089095Y-133881904D01*
X161086010Y-133876186D01*
X161046413Y-133839583D01*
X161042848Y-133836154D01*
X160527658Y-133320964D01*
X161451148Y-133320964D01*
X161464424Y-133523522D01*
X161465845Y-133529118D01*
X161465846Y-133529123D01*
X161510612Y-133705385D01*
X161514392Y-133720269D01*
X161516809Y-133725512D01*
X161590184Y-133884674D01*
X161599377Y-133904616D01*
X161602710Y-133909332D01*
X161708136Y-134058507D01*
X161716533Y-134070389D01*
X161720675Y-134074424D01*
X161773422Y-134125807D01*
X161861938Y-134212035D01*
X162030720Y-134324812D01*
X162036023Y-134327090D01*
X162036026Y-134327092D01*
X162178704Y-134388391D01*
X162217228Y-134404942D01*
X162269094Y-134416678D01*
X162409579Y-134448467D01*
X162409584Y-134448468D01*
X162415216Y-134449742D01*
X162420987Y-134449969D01*
X162420989Y-134449969D01*
X162480756Y-134452317D01*
X162618053Y-134457712D01*
X162718499Y-134443148D01*
X162813231Y-134429413D01*
X162813236Y-134429412D01*
X162818945Y-134428584D01*
X162824409Y-134426729D01*
X162824414Y-134426728D01*
X163005693Y-134365192D01*
X163005698Y-134365190D01*
X163011165Y-134363334D01*
X163036225Y-134349300D01*
X163130204Y-134296669D01*
X163188276Y-134264147D01*
X163199271Y-134255003D01*
X163315696Y-134158172D01*
X163344345Y-134134345D01*
X163402446Y-134064487D01*
X163470453Y-133982718D01*
X163470455Y-133982715D01*
X163474147Y-133978276D01*
X163567546Y-133811500D01*
X163570510Y-133806208D01*
X163570511Y-133806206D01*
X163573334Y-133801165D01*
X163575190Y-133795698D01*
X163575192Y-133795693D01*
X163636728Y-133614414D01*
X163636729Y-133614409D01*
X163638584Y-133608945D01*
X163639412Y-133603236D01*
X163639413Y-133603231D01*
X163663551Y-133436752D01*
X163667712Y-133408053D01*
X163669232Y-133350000D01*
X163650658Y-133147859D01*
X163649090Y-133142299D01*
X163597125Y-132958046D01*
X163597124Y-132958044D01*
X163595557Y-132952487D01*
X163588800Y-132938784D01*
X163508331Y-132775609D01*
X163505776Y-132770428D01*
X163384320Y-132607779D01*
X163235258Y-132469987D01*
X163230375Y-132466906D01*
X163230371Y-132466903D01*
X163068464Y-132364748D01*
X163063581Y-132361667D01*
X162875039Y-132286446D01*
X162869379Y-132285320D01*
X162869375Y-132285319D01*
X162681613Y-132247971D01*
X162681610Y-132247971D01*
X162675946Y-132246844D01*
X162670171Y-132246768D01*
X162670167Y-132246768D01*
X162568793Y-132245441D01*
X162472971Y-132244187D01*
X162467274Y-132245166D01*
X162467273Y-132245166D01*
X162330716Y-132268631D01*
X162272910Y-132278564D01*
X162082463Y-132348824D01*
X161908010Y-132452612D01*
X161903670Y-132456418D01*
X161903666Y-132456421D01*
X161795758Y-132551055D01*
X161755392Y-132586455D01*
X161629720Y-132745869D01*
X161627031Y-132750980D01*
X161627029Y-132750983D01*
X161602678Y-132797267D01*
X161535203Y-132925515D01*
X161475007Y-133119378D01*
X161451148Y-133320964D01*
X160527658Y-133320964D01*
X159281185Y-132074491D01*
X159247159Y-132012179D01*
X159252224Y-131941364D01*
X159294771Y-131884528D01*
X159360612Y-131859767D01*
X159435856Y-131853977D01*
X159435860Y-131853976D01*
X159441998Y-131853504D01*
X159641178Y-131797892D01*
X159646682Y-131795112D01*
X159646684Y-131795111D01*
X159820262Y-131707431D01*
X159820264Y-131707430D01*
X159825763Y-131704652D01*
X159988722Y-131577334D01*
X159992748Y-131572670D01*
X159992751Y-131572667D01*
X160119819Y-131425457D01*
X160119820Y-131425455D01*
X160123848Y-131420789D01*
X160213146Y-131263598D01*
X160222950Y-131246340D01*
X160222952Y-131246336D01*
X160225995Y-131240979D01*
X160268372Y-131113587D01*
X160289325Y-131050601D01*
X160289326Y-131050598D01*
X160291270Y-131044753D01*
X160317189Y-130839586D01*
X160317602Y-130810000D01*
X160297422Y-130604189D01*
X160237651Y-130406217D01*
X160175452Y-130289238D01*
X160143459Y-130229067D01*
X160143457Y-130229064D01*
X160140565Y-130223625D01*
X160136674Y-130218855D01*
X160136672Y-130218851D01*
X160013758Y-130068143D01*
X160013755Y-130068140D01*
X160009863Y-130063368D01*
X160002966Y-130057662D01*
X159855271Y-129935478D01*
X159855266Y-129935475D01*
X159854611Y-129934933D01*
X161455500Y-129934933D01*
X161455501Y-131685066D01*
X161462612Y-131720818D01*
X161465569Y-131735684D01*
X161470266Y-131759301D01*
X161477161Y-131769620D01*
X161477162Y-131769622D01*
X161517516Y-131830015D01*
X161526516Y-131843484D01*
X161610699Y-131899734D01*
X161684933Y-131914500D01*
X162559858Y-131914500D01*
X163435066Y-131914499D01*
X163470818Y-131907388D01*
X163497126Y-131902156D01*
X163497128Y-131902155D01*
X163509301Y-131899734D01*
X163519621Y-131892839D01*
X163519622Y-131892838D01*
X163583168Y-131850377D01*
X163593484Y-131843484D01*
X163649734Y-131759301D01*
X163664500Y-131685067D01*
X163664499Y-129934934D01*
X163649734Y-129860699D01*
X163633020Y-129835684D01*
X163600377Y-129786832D01*
X163593484Y-129776516D01*
X163509301Y-129720266D01*
X163435067Y-129705500D01*
X162560142Y-129705500D01*
X161684934Y-129705501D01*
X161649182Y-129712612D01*
X161622874Y-129717844D01*
X161622872Y-129717845D01*
X161610699Y-129720266D01*
X161600379Y-129727161D01*
X161600378Y-129727162D01*
X161574106Y-129744717D01*
X161526516Y-129776516D01*
X161470266Y-129860699D01*
X161455500Y-129934933D01*
X159854611Y-129934933D01*
X159850522Y-129931550D01*
X159845103Y-129928620D01*
X159845100Y-129928618D01*
X159674032Y-129836122D01*
X159674027Y-129836120D01*
X159668612Y-129833192D01*
X159471063Y-129772040D01*
X159464938Y-129771396D01*
X159464937Y-129771396D01*
X159271526Y-129751068D01*
X159271524Y-129751068D01*
X159265397Y-129750424D01*
X159139229Y-129761906D01*
X159065591Y-129768607D01*
X159065590Y-129768607D01*
X159059450Y-129769166D01*
X158861066Y-129827554D01*
X158855601Y-129830411D01*
X158683261Y-129920508D01*
X158683257Y-129920511D01*
X158677801Y-129923363D01*
X158516635Y-130052943D01*
X158383708Y-130211360D01*
X158299131Y-130365204D01*
X158248788Y-130415260D01*
X158188719Y-130430500D01*
X158074315Y-130430500D01*
X158006194Y-130410498D01*
X157959701Y-130356842D01*
X157949597Y-130286568D01*
X157971993Y-130230974D01*
X157993636Y-130200855D01*
X158057755Y-130111624D01*
X158116842Y-129964641D01*
X158133103Y-129850380D01*
X158138581Y-129811891D01*
X158138581Y-129811888D01*
X158139162Y-129807807D01*
X158139307Y-129794000D01*
X158133437Y-129745496D01*
X158145109Y-129675468D01*
X158169429Y-129641265D01*
X163298216Y-124512478D01*
X163316964Y-124497336D01*
X163318189Y-124496221D01*
X163326940Y-124490571D01*
X163333387Y-124482393D01*
X163333389Y-124482391D01*
X163347729Y-124464200D01*
X163351678Y-124459756D01*
X163351604Y-124459694D01*
X163354957Y-124455737D01*
X163358638Y-124452056D01*
X163369865Y-124436346D01*
X163373421Y-124431609D01*
X163398708Y-124399532D01*
X163405156Y-124391353D01*
X163408189Y-124382716D01*
X163413513Y-124375266D01*
X163428202Y-124326151D01*
X163430034Y-124320514D01*
X163444390Y-124279633D01*
X163444390Y-124279632D01*
X163447018Y-124272149D01*
X163447500Y-124266584D01*
X163447500Y-124263876D01*
X163447614Y-124261242D01*
X163447643Y-124261144D01*
X163447807Y-124261151D01*
X163447851Y-124260447D01*
X163449713Y-124254222D01*
X163447597Y-124200365D01*
X163447500Y-124195418D01*
X163447500Y-117472225D01*
X163450049Y-117448277D01*
X163450128Y-117446612D01*
X163452320Y-117436429D01*
X163448373Y-117403082D01*
X163448023Y-117397151D01*
X163447928Y-117397159D01*
X163447500Y-117391981D01*
X163447500Y-117386781D01*
X163445885Y-117377078D01*
X163444331Y-117367740D01*
X163443494Y-117361862D01*
X163438694Y-117321304D01*
X163438694Y-117321303D01*
X163437470Y-117310964D01*
X163433507Y-117302712D01*
X163432004Y-117293679D01*
X163425735Y-117282059D01*
X163407666Y-117248573D01*
X163404969Y-117243280D01*
X163386215Y-117204223D01*
X163386212Y-117204219D01*
X163382781Y-117197073D01*
X163379186Y-117192797D01*
X163377263Y-117190874D01*
X163375491Y-117188942D01*
X163375448Y-117188863D01*
X163375572Y-117188750D01*
X163375096Y-117188210D01*
X163372010Y-117182491D01*
X163332413Y-117145888D01*
X163328848Y-117142459D01*
X161946958Y-115760569D01*
X161931816Y-115741821D01*
X161930701Y-115740596D01*
X161925051Y-115731845D01*
X161916873Y-115725398D01*
X161916871Y-115725396D01*
X161898680Y-115711056D01*
X161894239Y-115707110D01*
X161894177Y-115707183D01*
X161890213Y-115703824D01*
X161886536Y-115700147D01*
X161870788Y-115688893D01*
X161866118Y-115685387D01*
X161825833Y-115653629D01*
X161817199Y-115650597D01*
X161809746Y-115645271D01*
X161760630Y-115630582D01*
X161754988Y-115628749D01*
X161714113Y-115614395D01*
X161714112Y-115614395D01*
X161706629Y-115611767D01*
X161701064Y-115611285D01*
X161698356Y-115611285D01*
X161695722Y-115611171D01*
X161695624Y-115611142D01*
X161695631Y-115610978D01*
X161694927Y-115610934D01*
X161688702Y-115609072D01*
X161634845Y-115611188D01*
X161629898Y-115611285D01*
X155493500Y-115611285D01*
X155425379Y-115591283D01*
X155378886Y-115537627D01*
X155367500Y-115485285D01*
X155367500Y-115093166D01*
X155352498Y-114998445D01*
X155294326Y-114884277D01*
X155288634Y-114878585D01*
X155265124Y-114812695D01*
X155281203Y-114743544D01*
X155332116Y-114694062D01*
X155390918Y-114679500D01*
X162350616Y-114679500D01*
X162418737Y-114699502D01*
X162439711Y-114716405D01*
X163921595Y-116198289D01*
X163955621Y-116260601D01*
X163958500Y-116287384D01*
X163958500Y-133902616D01*
X163938498Y-133970737D01*
X163921595Y-133991711D01*
X163085144Y-134828162D01*
X163022832Y-134862188D01*
X162949360Y-134856097D01*
X162875039Y-134826446D01*
X162869379Y-134825320D01*
X162869375Y-134825319D01*
X162681613Y-134787971D01*
X162681610Y-134787971D01*
X162675946Y-134786844D01*
X162670171Y-134786768D01*
X162670167Y-134786768D01*
X162568793Y-134785441D01*
X162472971Y-134784187D01*
X162467274Y-134785166D01*
X162467273Y-134785166D01*
X162278607Y-134817585D01*
X162272910Y-134818564D01*
X162082463Y-134888824D01*
X161908010Y-134992612D01*
X161903670Y-134996418D01*
X161903666Y-134996421D01*
X161792656Y-135093775D01*
X161755392Y-135126455D01*
X161629720Y-135285869D01*
X161627031Y-135290980D01*
X161627029Y-135290983D01*
X161589770Y-135361800D01*
X161535203Y-135465515D01*
X161475007Y-135659378D01*
X161451148Y-135860964D01*
X161464424Y-136063522D01*
X161465845Y-136069118D01*
X161465846Y-136069123D01*
X161501838Y-136210838D01*
X161514392Y-136260269D01*
X161516809Y-136265512D01*
X161552807Y-136343598D01*
X161599377Y-136444616D01*
X161629707Y-136487532D01*
X161674795Y-136551330D01*
X161716533Y-136610389D01*
X161861938Y-136752035D01*
X162030720Y-136864812D01*
X162036023Y-136867090D01*
X162036026Y-136867092D01*
X162124707Y-136905192D01*
X162217228Y-136944942D01*
X162273270Y-136957623D01*
X162409579Y-136988467D01*
X162409584Y-136988468D01*
X162415216Y-136989742D01*
X162420987Y-136989969D01*
X162420989Y-136989969D01*
X162480756Y-136992317D01*
X162618053Y-136997712D01*
X162718499Y-136983148D01*
X162813231Y-136969413D01*
X162813236Y-136969412D01*
X162818945Y-136968584D01*
X162824409Y-136966729D01*
X162824414Y-136966728D01*
X163005693Y-136905192D01*
X163005698Y-136905190D01*
X163011165Y-136903334D01*
X163188276Y-136804147D01*
X163199271Y-136795003D01*
X163339913Y-136678031D01*
X163344345Y-136674345D01*
X163463212Y-136531424D01*
X163470453Y-136522718D01*
X163470455Y-136522715D01*
X163474147Y-136518276D01*
X163544271Y-136393060D01*
X163570510Y-136346208D01*
X163570511Y-136346206D01*
X163573334Y-136341165D01*
X163575190Y-136335698D01*
X163575192Y-136335693D01*
X163636728Y-136154414D01*
X163636729Y-136154409D01*
X163638584Y-136148945D01*
X163639412Y-136143236D01*
X163639413Y-136143231D01*
X163667179Y-135951727D01*
X163667712Y-135948053D01*
X163669232Y-135890000D01*
X163650658Y-135687859D01*
X163649090Y-135682299D01*
X163597127Y-135498053D01*
X163597126Y-135498051D01*
X163595557Y-135492487D01*
X163596058Y-135492346D01*
X163590618Y-135425289D01*
X163624894Y-135361800D01*
X164568216Y-134418478D01*
X164586964Y-134403336D01*
X164588189Y-134402221D01*
X164596940Y-134396571D01*
X164603387Y-134388393D01*
X164603389Y-134388391D01*
X164617729Y-134370200D01*
X164621675Y-134365759D01*
X164621602Y-134365697D01*
X164624961Y-134361733D01*
X164628638Y-134358056D01*
X164639892Y-134342308D01*
X164643398Y-134337638D01*
X164675156Y-134297353D01*
X164678188Y-134288719D01*
X164683514Y-134281266D01*
X164698203Y-134232150D01*
X164700036Y-134226508D01*
X164714390Y-134185633D01*
X164714390Y-134185632D01*
X164717018Y-134178149D01*
X164717500Y-134172584D01*
X164717500Y-134169876D01*
X164717614Y-134167242D01*
X164717643Y-134167144D01*
X164717807Y-134167151D01*
X164717851Y-134166447D01*
X164719713Y-134160222D01*
X164717597Y-134106365D01*
X164717500Y-134101418D01*
X164717500Y-116131925D01*
X164720050Y-116107967D01*
X164720128Y-116106308D01*
X164722321Y-116096124D01*
X164721097Y-116085782D01*
X164721097Y-116085779D01*
X164718374Y-116062779D01*
X164718024Y-116056848D01*
X164717928Y-116056856D01*
X164717500Y-116051680D01*
X164717500Y-116046476D01*
X164714327Y-116027412D01*
X164713496Y-116021566D01*
X164708694Y-115981001D01*
X164707470Y-115970659D01*
X164703507Y-115962407D01*
X164702004Y-115953374D01*
X164677665Y-115908266D01*
X164674969Y-115902975D01*
X164656215Y-115863919D01*
X164656214Y-115863918D01*
X164652781Y-115856768D01*
X164649187Y-115852493D01*
X164647262Y-115850568D01*
X164645491Y-115848638D01*
X164645445Y-115848553D01*
X164645568Y-115848441D01*
X164645096Y-115847906D01*
X164642010Y-115842186D01*
X164602413Y-115805583D01*
X164598848Y-115802154D01*
X162866478Y-114069784D01*
X162851336Y-114051036D01*
X162850221Y-114049811D01*
X162844571Y-114041060D01*
X162836393Y-114034613D01*
X162836391Y-114034611D01*
X162818200Y-114020271D01*
X162813759Y-114016325D01*
X162813697Y-114016398D01*
X162809733Y-114013039D01*
X162806056Y-114009362D01*
X162790308Y-113998108D01*
X162785638Y-113994602D01*
X162745353Y-113962844D01*
X162736719Y-113959812D01*
X162729266Y-113954486D01*
X162680150Y-113939797D01*
X162674508Y-113937964D01*
X162633633Y-113923610D01*
X162633632Y-113923610D01*
X162626149Y-113920982D01*
X162620584Y-113920500D01*
X162617876Y-113920500D01*
X162615242Y-113920386D01*
X162615144Y-113920357D01*
X162615151Y-113920193D01*
X162614447Y-113920149D01*
X162608222Y-113918287D01*
X162554365Y-113920403D01*
X162549418Y-113920500D01*
X153064248Y-113920500D01*
X152996127Y-113900498D01*
X152949634Y-113846842D01*
X152939530Y-113776568D01*
X152969024Y-113711988D01*
X153010998Y-113680305D01*
X153051511Y-113661414D01*
X153061006Y-113655931D01*
X153113048Y-113619491D01*
X153121424Y-113609012D01*
X153114356Y-113595566D01*
X152412812Y-112894022D01*
X152398868Y-112886408D01*
X152397035Y-112886539D01*
X152390420Y-112890790D01*
X151684923Y-113596287D01*
X151678493Y-113608062D01*
X151687789Y-113620077D01*
X151738994Y-113655931D01*
X151748489Y-113661414D01*
X151789002Y-113680305D01*
X151842287Y-113727222D01*
X151861748Y-113795500D01*
X151841206Y-113863460D01*
X151787183Y-113909525D01*
X151735752Y-113920500D01*
X147627920Y-113920500D01*
X147603973Y-113917951D01*
X147602307Y-113917872D01*
X147592124Y-113915680D01*
X147581782Y-113916904D01*
X147581779Y-113916904D01*
X147558787Y-113919626D01*
X147552846Y-113919977D01*
X147552854Y-113920072D01*
X147547674Y-113920500D01*
X147542476Y-113920500D01*
X147537354Y-113921353D01*
X147537349Y-113921353D01*
X147523427Y-113923671D01*
X147517550Y-113924508D01*
X147511049Y-113925277D01*
X147476997Y-113929307D01*
X147476995Y-113929308D01*
X147466659Y-113930531D01*
X147458410Y-113934492D01*
X147449374Y-113935996D01*
X147440205Y-113940943D01*
X147440203Y-113940944D01*
X147404240Y-113960348D01*
X147398951Y-113963043D01*
X147385936Y-113969293D01*
X147352768Y-113985220D01*
X147348492Y-113988814D01*
X147346552Y-113990754D01*
X147344641Y-113992507D01*
X147344551Y-113992556D01*
X147344439Y-113992433D01*
X147343904Y-113992905D01*
X147338186Y-113995990D01*
X147331119Y-114003635D01*
X147301584Y-114035586D01*
X147298154Y-114039152D01*
X146962784Y-114374522D01*
X146944036Y-114389664D01*
X146942811Y-114390779D01*
X146934060Y-114396429D01*
X146927613Y-114404607D01*
X146927611Y-114404609D01*
X146913271Y-114422800D01*
X146909325Y-114427241D01*
X146909398Y-114427303D01*
X146906039Y-114431267D01*
X146902362Y-114434944D01*
X146891108Y-114450692D01*
X146887602Y-114455362D01*
X146855844Y-114495647D01*
X146852812Y-114504281D01*
X146847486Y-114511734D01*
X146844501Y-114521715D01*
X146832799Y-114560844D01*
X146830964Y-114566492D01*
X146813982Y-114614851D01*
X146813500Y-114620416D01*
X146813500Y-114623124D01*
X146813386Y-114625758D01*
X146813357Y-114625856D01*
X146813193Y-114625849D01*
X146813149Y-114626553D01*
X146811287Y-114632778D01*
X146811696Y-114643183D01*
X146813403Y-114686635D01*
X146813500Y-114691582D01*
X146813500Y-114730261D01*
X146793498Y-114798382D01*
X146776595Y-114819356D01*
X146711674Y-114884277D01*
X146673250Y-114959687D01*
X146670267Y-114965542D01*
X146621518Y-115017157D01*
X146552603Y-115034223D01*
X146485402Y-115011322D01*
X146445733Y-114965542D01*
X146442750Y-114959687D01*
X146404326Y-114884277D01*
X146313723Y-114793674D01*
X146199555Y-114735502D01*
X146104834Y-114720500D01*
X145741166Y-114720500D01*
X145646445Y-114735502D01*
X145532277Y-114793674D01*
X145441674Y-114884277D01*
X145403250Y-114959687D01*
X145400267Y-114965542D01*
X145351518Y-115017157D01*
X145282603Y-115034223D01*
X145215402Y-115011322D01*
X145175733Y-114965542D01*
X145172750Y-114959687D01*
X145134326Y-114884277D01*
X145069405Y-114819356D01*
X145035379Y-114757044D01*
X145032500Y-114730261D01*
X145032500Y-112979362D01*
X145056177Y-112905836D01*
X145088414Y-112860973D01*
X145103755Y-112839624D01*
X145162842Y-112692641D01*
X145182418Y-112555090D01*
X145184581Y-112539891D01*
X145184581Y-112539888D01*
X145185162Y-112535807D01*
X145185250Y-112527475D01*
X151087483Y-112527475D01*
X151106472Y-112744519D01*
X151108375Y-112755312D01*
X151164764Y-112965761D01*
X151168510Y-112976053D01*
X151260586Y-113173511D01*
X151266069Y-113183006D01*
X151302509Y-113235048D01*
X151312988Y-113243424D01*
X151326434Y-113236356D01*
X152027978Y-112534812D01*
X152034356Y-112523132D01*
X152764408Y-112523132D01*
X152764539Y-112524965D01*
X152768790Y-112531580D01*
X153474287Y-113237077D01*
X153486062Y-113243507D01*
X153498077Y-113234211D01*
X153533931Y-113183006D01*
X153539414Y-113173511D01*
X153631490Y-112976053D01*
X153635236Y-112965761D01*
X153691625Y-112755312D01*
X153693528Y-112744519D01*
X153712517Y-112527475D01*
X153712517Y-112516525D01*
X153693528Y-112299481D01*
X153691625Y-112288688D01*
X153635236Y-112078239D01*
X153631490Y-112067947D01*
X153539414Y-111870489D01*
X153533931Y-111860994D01*
X153497491Y-111808952D01*
X153487012Y-111800576D01*
X153473566Y-111807644D01*
X152772022Y-112509188D01*
X152764408Y-112523132D01*
X152034356Y-112523132D01*
X152035592Y-112520868D01*
X152035461Y-112519035D01*
X152031210Y-112512420D01*
X151325713Y-111806923D01*
X151313938Y-111800493D01*
X151301923Y-111809789D01*
X151266069Y-111860994D01*
X151260586Y-111870489D01*
X151168510Y-112067947D01*
X151164764Y-112078239D01*
X151108375Y-112288688D01*
X151106472Y-112299481D01*
X151087483Y-112516525D01*
X151087483Y-112527475D01*
X145185250Y-112527475D01*
X145185307Y-112522000D01*
X145184645Y-112516525D01*
X145167188Y-112372273D01*
X145166276Y-112364733D01*
X145110280Y-112216546D01*
X145042701Y-112118217D01*
X145024855Y-112092251D01*
X145024854Y-112092249D01*
X145020553Y-112085992D01*
X144902275Y-111980611D01*
X144894889Y-111976700D01*
X144827590Y-111941067D01*
X144762274Y-111906484D01*
X144608633Y-111867892D01*
X144601034Y-111867852D01*
X144601033Y-111867852D01*
X144535181Y-111867507D01*
X144450221Y-111867062D01*
X144442841Y-111868834D01*
X144442839Y-111868834D01*
X144303563Y-111902271D01*
X144303560Y-111902272D01*
X144296184Y-111904043D01*
X144155414Y-111976700D01*
X144036039Y-112080838D01*
X144031672Y-112087051D01*
X144031667Y-112087057D01*
X143993497Y-112141367D01*
X143937963Y-112185599D01*
X143867331Y-112192784D01*
X143804026Y-112160642D01*
X143768149Y-112099378D01*
X143764411Y-112068916D01*
X143764411Y-111434988D01*
X151678576Y-111434988D01*
X151685644Y-111448434D01*
X152387188Y-112149978D01*
X152401132Y-112157592D01*
X152402965Y-112157461D01*
X152409580Y-112153210D01*
X153115077Y-111447713D01*
X153121507Y-111435938D01*
X153112211Y-111423923D01*
X153061006Y-111388069D01*
X153051511Y-111382586D01*
X152854053Y-111290510D01*
X152843761Y-111286764D01*
X152633312Y-111230375D01*
X152622519Y-111228472D01*
X152405475Y-111209483D01*
X152394525Y-111209483D01*
X152177481Y-111228472D01*
X152166688Y-111230375D01*
X151956239Y-111286764D01*
X151945947Y-111290510D01*
X151748489Y-111382586D01*
X151738994Y-111388069D01*
X151686952Y-111424509D01*
X151678576Y-111434988D01*
X143764411Y-111434988D01*
X143764411Y-109268853D01*
X143784413Y-109200732D01*
X143801316Y-109179758D01*
X144176216Y-108804858D01*
X144194964Y-108789716D01*
X144196189Y-108788601D01*
X144204940Y-108782951D01*
X144211387Y-108774773D01*
X144211389Y-108774771D01*
X144225729Y-108756580D01*
X144229675Y-108752139D01*
X144229602Y-108752077D01*
X144232961Y-108748113D01*
X144236638Y-108744436D01*
X144247892Y-108728688D01*
X144251398Y-108724018D01*
X144283156Y-108683733D01*
X144286188Y-108675099D01*
X144291514Y-108667646D01*
X144306203Y-108618530D01*
X144308036Y-108612888D01*
X144322390Y-108572013D01*
X144322390Y-108572012D01*
X144325018Y-108564529D01*
X144325500Y-108558964D01*
X144325500Y-108556256D01*
X144325614Y-108553622D01*
X144325643Y-108553524D01*
X144325807Y-108553531D01*
X144325851Y-108552827D01*
X144327713Y-108546602D01*
X144325597Y-108492745D01*
X144325500Y-108487798D01*
X144325500Y-108246777D01*
X145751777Y-108246777D01*
X145761074Y-108258793D01*
X145804069Y-108288898D01*
X145813555Y-108294376D01*
X146004993Y-108383645D01*
X146015285Y-108387391D01*
X146219309Y-108442059D01*
X146230104Y-108443962D01*
X146440525Y-108462372D01*
X146451475Y-108462372D01*
X146661896Y-108443962D01*
X146672691Y-108442059D01*
X146876715Y-108387391D01*
X146887007Y-108383645D01*
X147078445Y-108294376D01*
X147087931Y-108288898D01*
X147131764Y-108258207D01*
X147140139Y-108247729D01*
X147133071Y-108234281D01*
X146458812Y-107560022D01*
X146444868Y-107552408D01*
X146443035Y-107552539D01*
X146436420Y-107556790D01*
X145758207Y-108235003D01*
X145751777Y-108246777D01*
X144325500Y-108246777D01*
X144325500Y-108212691D01*
X144345502Y-108144570D01*
X144394688Y-108100226D01*
X144493303Y-108050412D01*
X144650390Y-107927682D01*
X144672962Y-107901532D01*
X144776618Y-107781446D01*
X144776619Y-107781444D01*
X144780647Y-107776778D01*
X144783693Y-107771417D01*
X144833543Y-107683664D01*
X144879112Y-107603448D01*
X144942035Y-107414294D01*
X144942808Y-107408175D01*
X144943986Y-107402990D01*
X144978581Y-107340993D01*
X145041203Y-107307542D01*
X145111970Y-107313257D01*
X145168412Y-107356323D01*
X145190940Y-107409017D01*
X145191940Y-107414687D01*
X145246609Y-107618715D01*
X145250355Y-107629007D01*
X145339623Y-107820441D01*
X145345103Y-107829932D01*
X145375794Y-107873765D01*
X145386271Y-107882140D01*
X145399718Y-107875072D01*
X146073978Y-107200812D01*
X146080356Y-107189132D01*
X146810408Y-107189132D01*
X146810539Y-107190965D01*
X146814790Y-107197580D01*
X147493003Y-107875793D01*
X147504777Y-107882223D01*
X147516793Y-107872926D01*
X147546897Y-107829932D01*
X147552377Y-107820441D01*
X147641645Y-107629007D01*
X147645391Y-107618715D01*
X147700059Y-107414691D01*
X147701962Y-107403896D01*
X147720372Y-107193475D01*
X147720372Y-107182525D01*
X147719557Y-107173206D01*
X155150501Y-107173206D01*
X155167806Y-107379278D01*
X155224807Y-107578066D01*
X155227625Y-107583548D01*
X155227626Y-107583552D01*
X155316514Y-107756509D01*
X155316517Y-107756513D01*
X155319334Y-107761995D01*
X155447786Y-107924061D01*
X155452479Y-107928055D01*
X155452480Y-107928056D01*
X155580640Y-108037128D01*
X155605271Y-108058091D01*
X155785789Y-108158980D01*
X155982466Y-108222884D01*
X156187809Y-108247370D01*
X156193944Y-108246898D01*
X156193946Y-108246898D01*
X156387856Y-108231977D01*
X156387860Y-108231976D01*
X156393998Y-108231504D01*
X156593178Y-108175892D01*
X156598682Y-108173112D01*
X156598684Y-108173111D01*
X156772262Y-108085431D01*
X156772264Y-108085430D01*
X156777763Y-108082652D01*
X156940722Y-107955334D01*
X156944748Y-107950670D01*
X156944751Y-107950667D01*
X157071819Y-107803457D01*
X157071820Y-107803455D01*
X157075848Y-107798789D01*
X157143886Y-107679021D01*
X157174950Y-107624340D01*
X157174952Y-107624336D01*
X157177995Y-107618979D01*
X157243270Y-107422753D01*
X157269189Y-107217586D01*
X157269602Y-107188000D01*
X157249422Y-106982189D01*
X157189651Y-106784217D01*
X157103801Y-106622756D01*
X157095459Y-106607067D01*
X157095457Y-106607064D01*
X157092565Y-106601625D01*
X157088674Y-106596855D01*
X157088672Y-106596851D01*
X156965758Y-106446143D01*
X156965755Y-106446140D01*
X156961863Y-106441368D01*
X156954966Y-106435662D01*
X156807271Y-106313478D01*
X156807266Y-106313475D01*
X156802522Y-106309550D01*
X156797103Y-106306620D01*
X156797100Y-106306618D01*
X156626032Y-106214122D01*
X156626027Y-106214120D01*
X156620612Y-106211192D01*
X156423063Y-106150040D01*
X156416938Y-106149396D01*
X156416937Y-106149396D01*
X156223526Y-106129068D01*
X156223524Y-106129068D01*
X156217397Y-106128424D01*
X156091229Y-106139906D01*
X156017591Y-106146607D01*
X156017590Y-106146607D01*
X156011450Y-106147166D01*
X155813066Y-106205554D01*
X155807601Y-106208411D01*
X155635261Y-106298508D01*
X155635257Y-106298511D01*
X155629801Y-106301363D01*
X155625001Y-106305223D01*
X155625000Y-106305223D01*
X155598289Y-106326699D01*
X155468635Y-106430943D01*
X155335708Y-106589360D01*
X155236082Y-106770578D01*
X155173553Y-106967696D01*
X155172867Y-106973813D01*
X155172866Y-106973817D01*
X155151188Y-107167081D01*
X155150501Y-107173206D01*
X147719557Y-107173206D01*
X147701962Y-106972104D01*
X147700059Y-106961309D01*
X147645391Y-106757285D01*
X147641645Y-106746993D01*
X147552377Y-106555559D01*
X147546897Y-106546068D01*
X147516206Y-106502235D01*
X147505729Y-106493860D01*
X147492282Y-106500928D01*
X146818022Y-107175188D01*
X146810408Y-107189132D01*
X146080356Y-107189132D01*
X146081592Y-107186868D01*
X146081461Y-107185035D01*
X146077210Y-107178420D01*
X145398997Y-106500207D01*
X145387223Y-106493777D01*
X145375207Y-106503074D01*
X145345103Y-106546068D01*
X145339623Y-106555559D01*
X145250355Y-106746993D01*
X145246609Y-106757285D01*
X145191939Y-106961317D01*
X145190678Y-106968467D01*
X145159149Y-107032079D01*
X145098234Y-107068546D01*
X145027273Y-107066292D01*
X144968796Y-107026031D01*
X144945971Y-106983002D01*
X144892129Y-106804667D01*
X144890348Y-106798768D01*
X144818981Y-106664546D01*
X144799655Y-106628198D01*
X144799653Y-106628195D01*
X144796761Y-106622756D01*
X144792871Y-106617986D01*
X144792868Y-106617982D01*
X144674663Y-106473049D01*
X144674660Y-106473046D01*
X144670768Y-106468274D01*
X144644017Y-106446143D01*
X144521919Y-106345135D01*
X144517170Y-106341206D01*
X144341815Y-106246392D01*
X144151385Y-106187444D01*
X144145260Y-106186800D01*
X144145259Y-106186800D01*
X143959260Y-106167251D01*
X143959258Y-106167251D01*
X143953131Y-106166607D01*
X143830252Y-106177790D01*
X143760746Y-106184115D01*
X143760745Y-106184115D01*
X143754605Y-106184674D01*
X143748691Y-106186415D01*
X143748689Y-106186415D01*
X143725765Y-106193162D01*
X143563370Y-106240958D01*
X143386709Y-106333314D01*
X143381909Y-106337174D01*
X143381908Y-106337174D01*
X143379796Y-106338872D01*
X143231351Y-106458225D01*
X143103214Y-106610933D01*
X143100250Y-106616325D01*
X143100247Y-106616329D01*
X143056499Y-106695907D01*
X143006153Y-106745966D01*
X142936736Y-106760859D01*
X142870287Y-106735858D01*
X142834833Y-106694359D01*
X142799655Y-106628198D01*
X142799653Y-106628195D01*
X142796761Y-106622756D01*
X142792871Y-106617986D01*
X142792868Y-106617982D01*
X142674663Y-106473049D01*
X142674660Y-106473046D01*
X142670768Y-106468274D01*
X142644017Y-106446143D01*
X142521919Y-106345135D01*
X142517170Y-106341206D01*
X142341815Y-106246392D01*
X142151385Y-106187444D01*
X142145260Y-106186800D01*
X142145259Y-106186800D01*
X141959260Y-106167251D01*
X141959258Y-106167251D01*
X141953131Y-106166607D01*
X141830252Y-106177790D01*
X141760746Y-106184115D01*
X141760745Y-106184115D01*
X141754605Y-106184674D01*
X141748691Y-106186415D01*
X141748689Y-106186415D01*
X141725765Y-106193162D01*
X141563370Y-106240958D01*
X141386709Y-106333314D01*
X141381909Y-106337174D01*
X141381908Y-106337174D01*
X141379796Y-106338872D01*
X141231351Y-106458225D01*
X141103214Y-106610933D01*
X141007179Y-106785621D01*
X140946902Y-106975635D01*
X140924682Y-107173739D01*
X140941362Y-107372386D01*
X140996310Y-107564009D01*
X141087430Y-107741311D01*
X141211253Y-107897537D01*
X141363063Y-108026737D01*
X141368441Y-108029743D01*
X141368443Y-108029744D01*
X141501970Y-108104369D01*
X141551676Y-108155062D01*
X141566500Y-108214357D01*
X141566500Y-109192794D01*
X141563951Y-109216742D01*
X141563872Y-109218407D01*
X141561680Y-109228590D01*
X141562904Y-109238931D01*
X141565627Y-109261937D01*
X141565977Y-109267868D01*
X141566072Y-109267860D01*
X141566500Y-109273038D01*
X141566500Y-109278238D01*
X141567354Y-109283367D01*
X141567354Y-109283370D01*
X141569669Y-109297279D01*
X141570506Y-109303157D01*
X141576530Y-109354055D01*
X141580493Y-109362307D01*
X141581996Y-109371340D01*
X141586943Y-109380509D01*
X141586944Y-109380511D01*
X141606334Y-109416446D01*
X141609031Y-109421739D01*
X141627785Y-109460796D01*
X141627788Y-109460800D01*
X141631219Y-109467946D01*
X141634814Y-109472222D01*
X141636737Y-109474145D01*
X141638509Y-109476077D01*
X141638552Y-109476156D01*
X141638428Y-109476269D01*
X141638904Y-109476809D01*
X141641990Y-109482528D01*
X141649635Y-109489595D01*
X141681586Y-109519130D01*
X141685152Y-109522560D01*
X141696768Y-109534176D01*
X141730794Y-109596488D01*
X141733673Y-109623271D01*
X141733673Y-114631370D01*
X141713671Y-114699491D01*
X141660015Y-114745984D01*
X141589741Y-114756088D01*
X141525161Y-114726594D01*
X141517281Y-114718276D01*
X141517055Y-114718502D01*
X141405104Y-114606551D01*
X141392678Y-114596911D01*
X141263221Y-114520352D01*
X141248790Y-114514107D01*
X141114395Y-114475061D01*
X141100294Y-114475101D01*
X141097000Y-114482370D01*
X141097000Y-117511878D01*
X141100973Y-117525409D01*
X141108871Y-117526544D01*
X141248790Y-117485893D01*
X141263221Y-117479648D01*
X141392678Y-117403089D01*
X141405104Y-117393449D01*
X141511449Y-117287104D01*
X141521089Y-117274677D01*
X141540133Y-117242475D01*
X141592026Y-117194022D01*
X141661877Y-117181317D01*
X141719369Y-117203418D01*
X141722277Y-117206326D01*
X141731113Y-117210828D01*
X141731114Y-117210829D01*
X141740042Y-117215378D01*
X141836445Y-117264498D01*
X141931166Y-117279500D01*
X142294834Y-117279500D01*
X142389555Y-117264498D01*
X142503723Y-117206326D01*
X142594326Y-117115723D01*
X142635733Y-117034458D01*
X142684482Y-116982843D01*
X142753397Y-116965777D01*
X142820598Y-116988678D01*
X142860267Y-117034458D01*
X142901674Y-117115723D01*
X142992277Y-117206326D01*
X143106445Y-117264498D01*
X143201166Y-117279500D01*
X143564834Y-117279500D01*
X143659555Y-117264498D01*
X143773723Y-117206326D01*
X143864326Y-117115723D01*
X143905733Y-117034458D01*
X143954482Y-116982843D01*
X144023397Y-116965777D01*
X144090598Y-116988678D01*
X144130267Y-117034458D01*
X144171674Y-117115723D01*
X144262277Y-117206326D01*
X144376445Y-117264498D01*
X144471166Y-117279500D01*
X144834834Y-117279500D01*
X144929555Y-117264498D01*
X145043723Y-117206326D01*
X145134326Y-117115723D01*
X145175733Y-117034458D01*
X145224482Y-116982843D01*
X145293397Y-116965777D01*
X145360598Y-116988678D01*
X145400267Y-117034458D01*
X145441674Y-117115723D01*
X145532277Y-117206326D01*
X145646445Y-117264498D01*
X145741166Y-117279500D01*
X146104834Y-117279500D01*
X146199555Y-117264498D01*
X146313723Y-117206326D01*
X146404326Y-117115723D01*
X146445733Y-117034458D01*
X146494482Y-116982843D01*
X146563397Y-116965777D01*
X146630598Y-116988678D01*
X146670267Y-117034458D01*
X146711674Y-117115723D01*
X146802277Y-117206326D01*
X146916445Y-117264498D01*
X147011166Y-117279500D01*
X147374834Y-117279500D01*
X147469555Y-117264498D01*
X147583723Y-117206326D01*
X147674326Y-117115723D01*
X147715733Y-117034458D01*
X147764482Y-116982843D01*
X147833397Y-116965777D01*
X147900598Y-116988678D01*
X147940267Y-117034458D01*
X147981674Y-117115723D01*
X148072277Y-117206326D01*
X148186445Y-117264498D01*
X148281166Y-117279500D01*
X148644834Y-117279500D01*
X148739555Y-117264498D01*
X148853723Y-117206326D01*
X148944326Y-117115723D01*
X148985733Y-117034458D01*
X149034482Y-116982843D01*
X149103397Y-116965777D01*
X149170598Y-116988678D01*
X149210267Y-117034458D01*
X149251674Y-117115723D01*
X149342277Y-117206326D01*
X149456445Y-117264498D01*
X149551166Y-117279500D01*
X149914834Y-117279500D01*
X150009555Y-117264498D01*
X150105958Y-117215378D01*
X150114886Y-117210829D01*
X150114887Y-117210828D01*
X150123723Y-117206326D01*
X150126491Y-117203558D01*
X150190217Y-117180820D01*
X150259369Y-117196899D01*
X150305867Y-117242475D01*
X150324911Y-117274677D01*
X150334551Y-117287104D01*
X150440896Y-117393449D01*
X150453322Y-117403089D01*
X150582779Y-117479648D01*
X150597210Y-117485893D01*
X150731605Y-117524939D01*
X150745706Y-117524899D01*
X150749000Y-117517630D01*
X150749000Y-117511878D01*
X151257000Y-117511878D01*
X151260973Y-117525409D01*
X151268871Y-117526544D01*
X151408790Y-117485893D01*
X151423221Y-117479648D01*
X151552678Y-117403088D01*
X151560770Y-117396811D01*
X151626854Y-117370861D01*
X151696477Y-117384759D01*
X151715230Y-117396811D01*
X151723322Y-117403088D01*
X151852779Y-117479648D01*
X151867210Y-117485893D01*
X152001605Y-117524939D01*
X152015706Y-117524899D01*
X152019000Y-117517630D01*
X152019000Y-116272115D01*
X152014525Y-116256876D01*
X152013135Y-116255671D01*
X152005452Y-116254000D01*
X151275115Y-116254000D01*
X151259876Y-116258475D01*
X151258671Y-116259865D01*
X151257000Y-116267548D01*
X151257000Y-117511878D01*
X150749000Y-117511878D01*
X150749000Y-115872000D01*
X150769002Y-115803879D01*
X150822658Y-115757386D01*
X150875000Y-115746000D01*
X152401000Y-115746000D01*
X152469121Y-115766002D01*
X152515614Y-115819658D01*
X152527000Y-115872000D01*
X152527000Y-117511878D01*
X152530973Y-117525409D01*
X152538871Y-117526544D01*
X152678790Y-117485893D01*
X152693221Y-117479648D01*
X152822678Y-117403089D01*
X152835104Y-117393449D01*
X152941449Y-117287104D01*
X152951089Y-117274677D01*
X152970133Y-117242475D01*
X153022026Y-117194022D01*
X153091877Y-117181317D01*
X153149369Y-117203418D01*
X153152277Y-117206326D01*
X153161113Y-117210828D01*
X153161114Y-117210829D01*
X153170042Y-117215378D01*
X153266445Y-117264498D01*
X153361166Y-117279500D01*
X153724834Y-117279500D01*
X153819555Y-117264498D01*
X153933723Y-117206326D01*
X154024326Y-117115723D01*
X154065733Y-117034458D01*
X154114482Y-116982843D01*
X154183397Y-116965777D01*
X154250598Y-116988678D01*
X154290267Y-117034458D01*
X154331674Y-117115723D01*
X154422277Y-117206326D01*
X154536445Y-117264498D01*
X154631166Y-117279500D01*
X154994834Y-117279500D01*
X155089555Y-117264498D01*
X155203723Y-117206326D01*
X155294326Y-117115723D01*
X155352498Y-117001555D01*
X155367500Y-116906834D01*
X155367500Y-116496285D01*
X155387502Y-116428164D01*
X155441158Y-116381671D01*
X155493500Y-116370285D01*
X161431096Y-116370285D01*
X161499217Y-116390287D01*
X161520191Y-116407190D01*
X162651595Y-117538594D01*
X162685621Y-117600906D01*
X162688500Y-117627689D01*
X162688500Y-123996616D01*
X162668498Y-124064737D01*
X162651595Y-124085711D01*
X157634411Y-129102895D01*
X157572099Y-129136921D01*
X157544658Y-129139798D01*
X157404221Y-129139062D01*
X157396841Y-129140834D01*
X157396839Y-129140834D01*
X157257563Y-129174271D01*
X157257560Y-129174272D01*
X157250184Y-129176043D01*
X157109414Y-129248700D01*
X156990039Y-129352838D01*
X156898950Y-129482444D01*
X156896190Y-129489524D01*
X156848517Y-129611799D01*
X156841406Y-129630037D01*
X156840414Y-129637570D01*
X156840414Y-129637571D01*
X156821970Y-129777672D01*
X156820729Y-129787096D01*
X156828963Y-129861672D01*
X156816557Y-129931577D01*
X156768328Y-129983677D01*
X156703724Y-130001500D01*
X156396500Y-130001500D01*
X156328379Y-129981498D01*
X156281886Y-129927842D01*
X156270500Y-129875500D01*
X156270500Y-128389381D01*
X156273050Y-128365423D01*
X156273128Y-128363764D01*
X156275321Y-128353580D01*
X156274097Y-128343238D01*
X156274097Y-128343235D01*
X156271374Y-128320235D01*
X156271024Y-128314304D01*
X156270928Y-128314312D01*
X156270500Y-128309136D01*
X156270500Y-128303932D01*
X156267327Y-128284868D01*
X156266496Y-128279022D01*
X156261694Y-128238457D01*
X156260470Y-128228115D01*
X156256507Y-128219863D01*
X156255004Y-128210830D01*
X156241953Y-128186641D01*
X156230666Y-128165724D01*
X156227969Y-128160431D01*
X156209215Y-128121375D01*
X156209214Y-128121374D01*
X156205781Y-128114224D01*
X156202187Y-128109949D01*
X156200262Y-128108024D01*
X156198491Y-128106094D01*
X156198445Y-128106009D01*
X156198568Y-128105897D01*
X156198096Y-128105362D01*
X156195010Y-128099642D01*
X156155413Y-128063039D01*
X156151848Y-128059610D01*
X155229771Y-127137533D01*
X155195745Y-127075221D01*
X155192866Y-127048438D01*
X155192866Y-126569373D01*
X155212868Y-126501252D01*
X155229771Y-126480278D01*
X155294326Y-126415723D01*
X155352498Y-126301555D01*
X155367500Y-126206834D01*
X155367500Y-124393166D01*
X155352498Y-124298445D01*
X155294326Y-124184277D01*
X155229038Y-124118989D01*
X155195012Y-124056677D01*
X155192133Y-124029894D01*
X155192133Y-123998577D01*
X155212135Y-123930456D01*
X155236302Y-123902766D01*
X155292169Y-123855051D01*
X155297947Y-123850116D01*
X155390388Y-123721471D01*
X155449475Y-123574488D01*
X155464684Y-123467622D01*
X155471214Y-123421738D01*
X155471214Y-123421735D01*
X155471795Y-123417654D01*
X155471940Y-123403847D01*
X155471193Y-123397669D01*
X155463844Y-123336945D01*
X155452909Y-123246580D01*
X155396913Y-123098393D01*
X155332635Y-123004867D01*
X155310535Y-122937397D01*
X155328421Y-122868690D01*
X155380613Y-122820560D01*
X155436475Y-122807500D01*
X158442080Y-122807500D01*
X158466028Y-122810049D01*
X158467693Y-122810128D01*
X158477876Y-122812320D01*
X158488217Y-122811096D01*
X158511223Y-122808373D01*
X158517154Y-122808023D01*
X158517146Y-122807928D01*
X158522324Y-122807500D01*
X158527524Y-122807500D01*
X158532653Y-122806646D01*
X158532656Y-122806646D01*
X158546565Y-122804331D01*
X158552443Y-122803494D01*
X158593001Y-122798694D01*
X158593002Y-122798694D01*
X158603341Y-122797470D01*
X158611593Y-122793507D01*
X158620626Y-122792004D01*
X158629795Y-122787057D01*
X158629797Y-122787056D01*
X158665732Y-122767666D01*
X158671025Y-122764969D01*
X158710082Y-122746215D01*
X158710086Y-122746212D01*
X158717232Y-122742781D01*
X158721508Y-122739186D01*
X158723431Y-122737263D01*
X158725363Y-122735491D01*
X158725442Y-122735448D01*
X158725555Y-122735572D01*
X158726095Y-122735096D01*
X158731814Y-122732010D01*
X158768417Y-122692413D01*
X158771846Y-122688848D01*
X159104178Y-122356516D01*
X159166490Y-122322490D01*
X159195252Y-122319627D01*
X159319318Y-122321576D01*
X159319321Y-122321576D01*
X159326916Y-122321695D01*
X159481332Y-122286329D01*
X159604927Y-122224168D01*
X159616072Y-122218563D01*
X159616075Y-122218561D01*
X159622855Y-122215151D01*
X159628626Y-122210222D01*
X159628629Y-122210220D01*
X159737536Y-122117204D01*
X159737536Y-122117203D01*
X159743314Y-122112269D01*
X159835755Y-121983624D01*
X159894842Y-121836641D01*
X159911618Y-121718764D01*
X159916581Y-121683891D01*
X159916581Y-121683888D01*
X159917162Y-121679807D01*
X159917307Y-121666000D01*
X159916810Y-121661894D01*
X159916584Y-121657788D01*
X159918637Y-121657675D01*
X159928900Y-121595786D01*
X159976537Y-121543144D01*
X160045073Y-121524613D01*
X160112747Y-121546077D01*
X160131455Y-121561489D01*
X160768413Y-122198447D01*
X160802439Y-122260759D01*
X160797374Y-122331574D01*
X160754827Y-122388410D01*
X160747738Y-122392879D01*
X160747931Y-122393173D01*
X160742768Y-122396552D01*
X160737312Y-122399404D01*
X160732514Y-122403262D01*
X160732512Y-122403263D01*
X160618487Y-122494941D01*
X160583788Y-122522840D01*
X160457163Y-122673745D01*
X160450740Y-122685429D01*
X160376452Y-122820560D01*
X160362262Y-122846371D01*
X160360398Y-122852246D01*
X160360397Y-122852249D01*
X160357159Y-122862458D01*
X160302697Y-123034142D01*
X160296018Y-123093686D01*
X160281828Y-123220194D01*
X160280738Y-123229907D01*
X160281254Y-123236051D01*
X160296504Y-123417654D01*
X160297222Y-123426209D01*
X160324372Y-123520890D01*
X160341764Y-123581542D01*
X160351521Y-123615570D01*
X160371551Y-123654544D01*
X160434634Y-123777290D01*
X160441566Y-123790779D01*
X160445389Y-123795603D01*
X160445392Y-123795607D01*
X160526813Y-123898334D01*
X160563927Y-123945160D01*
X160568620Y-123949154D01*
X160568621Y-123949155D01*
X160695391Y-124057044D01*
X160713945Y-124072835D01*
X160719323Y-124075841D01*
X160719325Y-124075842D01*
X160807548Y-124125148D01*
X160885904Y-124168940D01*
X161073255Y-124229814D01*
X161268862Y-124253139D01*
X161274997Y-124252667D01*
X161274999Y-124252667D01*
X161334801Y-124248065D01*
X161465274Y-124238026D01*
X161655009Y-124185050D01*
X161670419Y-124177266D01*
X161825341Y-124099010D01*
X161825343Y-124099009D01*
X161830842Y-124096231D01*
X161986074Y-123974950D01*
X161990100Y-123970286D01*
X161990103Y-123970283D01*
X162110764Y-123830496D01*
X162110765Y-123830494D01*
X162114793Y-123825828D01*
X162212096Y-123654544D01*
X162274277Y-123467622D01*
X162298966Y-123272183D01*
X162299360Y-123244000D01*
X162280137Y-123047948D01*
X162223200Y-122859363D01*
X162193494Y-122803494D01*
X162133611Y-122690871D01*
X162133609Y-122690868D01*
X162130717Y-122685429D01*
X162006212Y-122532770D01*
X161940894Y-122478734D01*
X161859177Y-122411132D01*
X161859174Y-122411130D01*
X161854427Y-122407203D01*
X161849002Y-122404270D01*
X161848998Y-122404267D01*
X161736566Y-122343474D01*
X161686157Y-122293479D01*
X161670780Y-122224168D01*
X161671919Y-122216067D01*
X161672128Y-122211647D01*
X161674320Y-122201464D01*
X161670373Y-122168117D01*
X161670023Y-122162186D01*
X161669928Y-122162194D01*
X161669500Y-122157016D01*
X161669500Y-122151816D01*
X161668646Y-122146684D01*
X161666331Y-122132775D01*
X161665494Y-122126897D01*
X161660694Y-122086339D01*
X161660694Y-122086338D01*
X161659470Y-122075999D01*
X161655507Y-122067747D01*
X161654004Y-122058714D01*
X161648137Y-122047839D01*
X161629666Y-122013608D01*
X161626969Y-122008315D01*
X161608215Y-121969258D01*
X161608212Y-121969254D01*
X161604781Y-121962108D01*
X161601186Y-121957832D01*
X161599263Y-121955909D01*
X161597491Y-121953977D01*
X161597448Y-121953898D01*
X161597572Y-121953785D01*
X161597096Y-121953245D01*
X161594010Y-121947526D01*
X161554413Y-121910923D01*
X161550848Y-121907494D01*
X158601949Y-118958595D01*
X158567923Y-118896283D01*
X158572988Y-118825468D01*
X158615535Y-118768632D01*
X158682055Y-118743821D01*
X158691044Y-118743500D01*
X160278686Y-118743500D01*
X160346807Y-118763502D01*
X160390751Y-118811904D01*
X160441566Y-118910779D01*
X160563927Y-119065160D01*
X160568620Y-119069154D01*
X160568621Y-119069155D01*
X160692490Y-119174575D01*
X160713945Y-119192835D01*
X160719323Y-119195841D01*
X160719325Y-119195842D01*
X160828631Y-119256931D01*
X160885904Y-119288940D01*
X161073255Y-119349814D01*
X161268862Y-119373139D01*
X161274997Y-119372667D01*
X161274999Y-119372667D01*
X161334801Y-119368065D01*
X161465274Y-119358026D01*
X161655009Y-119305050D01*
X161660513Y-119302270D01*
X161825341Y-119219010D01*
X161825343Y-119219009D01*
X161830842Y-119216231D01*
X161986074Y-119094950D01*
X161990100Y-119090286D01*
X161990103Y-119090283D01*
X162110764Y-118950496D01*
X162110765Y-118950494D01*
X162114793Y-118945828D01*
X162212096Y-118774544D01*
X162274277Y-118587622D01*
X162298966Y-118392183D01*
X162299360Y-118364000D01*
X162280137Y-118167948D01*
X162223200Y-117979363D01*
X162130717Y-117805429D01*
X162006212Y-117652770D01*
X161931635Y-117591075D01*
X161859177Y-117531132D01*
X161859174Y-117531130D01*
X161854427Y-117527203D01*
X161681143Y-117433508D01*
X161492960Y-117375256D01*
X161486835Y-117374612D01*
X161486834Y-117374612D01*
X161303176Y-117355309D01*
X161303174Y-117355309D01*
X161297047Y-117354665D01*
X161215018Y-117362130D01*
X161107004Y-117371960D01*
X161107001Y-117371961D01*
X161100865Y-117372519D01*
X161094959Y-117374257D01*
X161094955Y-117374258D01*
X160987697Y-117405826D01*
X160911887Y-117428138D01*
X160906427Y-117430992D01*
X160906428Y-117430992D01*
X160742772Y-117516549D01*
X160742768Y-117516552D01*
X160737312Y-117519404D01*
X160732512Y-117523264D01*
X160732511Y-117523264D01*
X160602647Y-117627677D01*
X160583788Y-117642840D01*
X160457163Y-117793745D01*
X160418199Y-117864622D01*
X160388194Y-117919201D01*
X160337849Y-117969259D01*
X160277779Y-117984500D01*
X140163386Y-117984500D01*
X140095265Y-117964498D01*
X140074291Y-117947596D01*
X139991316Y-117864622D01*
X139957291Y-117802310D01*
X139954411Y-117775526D01*
X139954411Y-117371154D01*
X139974413Y-117303033D01*
X140028069Y-117256540D01*
X140098343Y-117246436D01*
X140162923Y-117275930D01*
X140169506Y-117282059D01*
X140280896Y-117393449D01*
X140293322Y-117403089D01*
X140422779Y-117479648D01*
X140437210Y-117485893D01*
X140571605Y-117524939D01*
X140585706Y-117524899D01*
X140589000Y-117517630D01*
X140589000Y-114488122D01*
X140585027Y-114474591D01*
X140577129Y-114473456D01*
X140437210Y-114514107D01*
X140422779Y-114520352D01*
X140293322Y-114596911D01*
X140280896Y-114606551D01*
X140174551Y-114712896D01*
X140164911Y-114725323D01*
X140145867Y-114757525D01*
X140093974Y-114805978D01*
X140024123Y-114818683D01*
X139966631Y-114796582D01*
X139963723Y-114793674D01*
X139954887Y-114789172D01*
X139954886Y-114789171D01*
X139889957Y-114756088D01*
X139849555Y-114735502D01*
X139754834Y-114720500D01*
X139391166Y-114720500D01*
X139296445Y-114735502D01*
X139182277Y-114793674D01*
X139091674Y-114884277D01*
X139053250Y-114959687D01*
X139050267Y-114965542D01*
X139001518Y-115017157D01*
X138932603Y-115034223D01*
X138865402Y-115011322D01*
X138825733Y-114965542D01*
X138822750Y-114959687D01*
X138784326Y-114884277D01*
X138693723Y-114793674D01*
X138579555Y-114735502D01*
X138484834Y-114720500D01*
X138121166Y-114720500D01*
X138026445Y-114735502D01*
X137912277Y-114793674D01*
X137821674Y-114884277D01*
X137763502Y-114998445D01*
X137748500Y-115093166D01*
X137748500Y-116906834D01*
X137763502Y-117001555D01*
X137821674Y-117115723D01*
X137893138Y-117187187D01*
X137927164Y-117249499D01*
X137930043Y-117276282D01*
X137930043Y-117301341D01*
X137927494Y-117325289D01*
X137927415Y-117326954D01*
X137925223Y-117337137D01*
X137926447Y-117347478D01*
X137929170Y-117370484D01*
X137929520Y-117376415D01*
X137929615Y-117376407D01*
X137930043Y-117381585D01*
X137930043Y-117386785D01*
X137930897Y-117391914D01*
X137930897Y-117391917D01*
X137933212Y-117405826D01*
X137934049Y-117411704D01*
X137938378Y-117448277D01*
X137940073Y-117462602D01*
X137944036Y-117470854D01*
X137945539Y-117479887D01*
X137950486Y-117489056D01*
X137950487Y-117489058D01*
X137969877Y-117524993D01*
X137972574Y-117530286D01*
X137991328Y-117569343D01*
X137991331Y-117569347D01*
X137994762Y-117576493D01*
X137998357Y-117580769D01*
X138000280Y-117582692D01*
X138002052Y-117584624D01*
X138002095Y-117584703D01*
X138001971Y-117584816D01*
X138002447Y-117585356D01*
X138005533Y-117591075D01*
X138013178Y-117598142D01*
X138045129Y-117627677D01*
X138048695Y-117631107D01*
X139461324Y-119043736D01*
X139476466Y-119062484D01*
X139477581Y-119063709D01*
X139483231Y-119072460D01*
X139491409Y-119078907D01*
X139491411Y-119078909D01*
X139509602Y-119093249D01*
X139514043Y-119097195D01*
X139514105Y-119097122D01*
X139518069Y-119100481D01*
X139521746Y-119104158D01*
X139537494Y-119115412D01*
X139542164Y-119118918D01*
X139582449Y-119150676D01*
X139591083Y-119153708D01*
X139598536Y-119159034D01*
X139647652Y-119173723D01*
X139653294Y-119175556D01*
X139691128Y-119188842D01*
X139701653Y-119192538D01*
X139707218Y-119193020D01*
X139709926Y-119193020D01*
X139712560Y-119193134D01*
X139712658Y-119193163D01*
X139712651Y-119193327D01*
X139713355Y-119193371D01*
X139719580Y-119195233D01*
X139773437Y-119193117D01*
X139778384Y-119193020D01*
X154972465Y-119193020D01*
X155040586Y-119213022D01*
X155087079Y-119266678D01*
X155097183Y-119336952D01*
X155090447Y-119363248D01*
X155079523Y-119392388D01*
X155075895Y-119407649D01*
X155070369Y-119458514D01*
X155070000Y-119465328D01*
X155070000Y-120377885D01*
X155074475Y-120393124D01*
X155075865Y-120394329D01*
X155083548Y-120396000D01*
X158347884Y-120396000D01*
X158363123Y-120391525D01*
X158364328Y-120390135D01*
X158365999Y-120382452D01*
X158365999Y-120100223D01*
X158386001Y-120032102D01*
X158439657Y-119985609D01*
X158509931Y-119975505D01*
X158574511Y-120004999D01*
X158581094Y-120011128D01*
X159366430Y-120796464D01*
X159400456Y-120858776D01*
X159395391Y-120929591D01*
X159352844Y-120986427D01*
X159286324Y-121011238D01*
X159276678Y-121011557D01*
X159182221Y-121011062D01*
X159174841Y-121012834D01*
X159174839Y-121012834D01*
X159035563Y-121046271D01*
X159035560Y-121046272D01*
X159028184Y-121048043D01*
X158887414Y-121120700D01*
X158768039Y-121224838D01*
X158676950Y-121354444D01*
X158674190Y-121361524D01*
X158631110Y-121472019D01*
X158619406Y-121502037D01*
X158618414Y-121509570D01*
X158618414Y-121509571D01*
X158616922Y-121520905D01*
X158588200Y-121585832D01*
X158528935Y-121624924D01*
X158457943Y-121625769D01*
X158397764Y-121588099D01*
X158367505Y-121523874D01*
X158366000Y-121504459D01*
X158366000Y-120922115D01*
X158361525Y-120906876D01*
X158360135Y-120905671D01*
X158352452Y-120904000D01*
X155088116Y-120904000D01*
X155072877Y-120908475D01*
X155071672Y-120909865D01*
X155070001Y-120917548D01*
X155070001Y-121834669D01*
X155070371Y-121841490D01*
X155075894Y-121892345D01*
X155076133Y-121893350D01*
X155076091Y-121894157D01*
X155076748Y-121900207D01*
X155075770Y-121900313D01*
X155072433Y-121964250D01*
X155030989Y-122021895D01*
X154964959Y-122047983D01*
X154953551Y-122048500D01*
X150421925Y-122048500D01*
X150397967Y-122045950D01*
X150396308Y-122045872D01*
X150386124Y-122043679D01*
X150375782Y-122044903D01*
X150375779Y-122044903D01*
X150352779Y-122047626D01*
X150346848Y-122047976D01*
X150346856Y-122048072D01*
X150341680Y-122048500D01*
X150336476Y-122048500D01*
X150317412Y-122051673D01*
X150311566Y-122052504D01*
X150300117Y-122053859D01*
X150260659Y-122058530D01*
X150252407Y-122062493D01*
X150243374Y-122063996D01*
X150234205Y-122068943D01*
X150234203Y-122068944D01*
X150198268Y-122088334D01*
X150192976Y-122091031D01*
X150146768Y-122113219D01*
X150142493Y-122116813D01*
X150140568Y-122118738D01*
X150138638Y-122120509D01*
X150138553Y-122120555D01*
X150138441Y-122120432D01*
X150137906Y-122120904D01*
X150132186Y-122123990D01*
X150125119Y-122131635D01*
X150095584Y-122163586D01*
X150092154Y-122167152D01*
X149741542Y-122517764D01*
X149679230Y-122551790D01*
X149655081Y-122552860D01*
X149655137Y-122554287D01*
X149601280Y-122556403D01*
X149596333Y-122556500D01*
X147411682Y-122556500D01*
X147343561Y-122536498D01*
X147317114Y-122510860D01*
X147315878Y-122511949D01*
X147310855Y-122506251D01*
X147306553Y-122499992D01*
X147188275Y-122394611D01*
X147180889Y-122390700D01*
X147054988Y-122324039D01*
X147054989Y-122324039D01*
X147048274Y-122320484D01*
X146894633Y-122281892D01*
X146887034Y-122281852D01*
X146887033Y-122281852D01*
X146821181Y-122281507D01*
X146736221Y-122281062D01*
X146728841Y-122282834D01*
X146728839Y-122282834D01*
X146589563Y-122316271D01*
X146589560Y-122316272D01*
X146582184Y-122318043D01*
X146441414Y-122390700D01*
X146322039Y-122494838D01*
X146230950Y-122624444D01*
X146209036Y-122680651D01*
X146183474Y-122746215D01*
X146173406Y-122772037D01*
X146172414Y-122779570D01*
X146172414Y-122779571D01*
X146160682Y-122868690D01*
X146152729Y-122929096D01*
X146161094Y-123004867D01*
X146164327Y-123034142D01*
X146170113Y-123086553D01*
X146172723Y-123093684D01*
X146172723Y-123093686D01*
X146195797Y-123156738D01*
X146200423Y-123227584D01*
X146166013Y-123289684D01*
X146103492Y-123323323D01*
X146092284Y-123325165D01*
X146084849Y-123326045D01*
X146074187Y-123327307D01*
X146074185Y-123327307D01*
X146063848Y-123328531D01*
X146055599Y-123332492D01*
X146046563Y-123333996D01*
X146037394Y-123338943D01*
X146037392Y-123338944D01*
X146001429Y-123358348D01*
X145996140Y-123361043D01*
X145957104Y-123379788D01*
X145949957Y-123383220D01*
X145945681Y-123386814D01*
X145943741Y-123388754D01*
X145941830Y-123390507D01*
X145941740Y-123390556D01*
X145941628Y-123390433D01*
X145941093Y-123390905D01*
X145935375Y-123393990D01*
X145928308Y-123401635D01*
X145898773Y-123433586D01*
X145895343Y-123437152D01*
X145692417Y-123640078D01*
X145673669Y-123655220D01*
X145672444Y-123656335D01*
X145663693Y-123661985D01*
X145657246Y-123670163D01*
X145657244Y-123670165D01*
X145642904Y-123688356D01*
X145638958Y-123692797D01*
X145639031Y-123692859D01*
X145635672Y-123696823D01*
X145631995Y-123700500D01*
X145620741Y-123716248D01*
X145617235Y-123720918D01*
X145585477Y-123761203D01*
X145582445Y-123769837D01*
X145577119Y-123777290D01*
X145574134Y-123787271D01*
X145562432Y-123826400D01*
X145560597Y-123832048D01*
X145543615Y-123880407D01*
X145543133Y-123885972D01*
X145543133Y-123888680D01*
X145543019Y-123891314D01*
X145542990Y-123891412D01*
X145542826Y-123891405D01*
X145542782Y-123892109D01*
X145540920Y-123898334D01*
X145542760Y-123945160D01*
X145543036Y-123952191D01*
X145543133Y-123957138D01*
X145543133Y-124030628D01*
X145523131Y-124098749D01*
X145506228Y-124119723D01*
X145441674Y-124184277D01*
X145406958Y-124252410D01*
X145400267Y-124265542D01*
X145351518Y-124317157D01*
X145282603Y-124334223D01*
X145215402Y-124311322D01*
X145175733Y-124265542D01*
X145169042Y-124252410D01*
X145134326Y-124184277D01*
X145043723Y-124093674D01*
X144929555Y-124035502D01*
X144834834Y-124020500D01*
X144471166Y-124020500D01*
X144376445Y-124035502D01*
X144262277Y-124093674D01*
X144171674Y-124184277D01*
X144136958Y-124252410D01*
X144130267Y-124265542D01*
X144081518Y-124317157D01*
X144012603Y-124334223D01*
X143945402Y-124311322D01*
X143905733Y-124265542D01*
X143899042Y-124252410D01*
X143864326Y-124184277D01*
X143773723Y-124093674D01*
X143659555Y-124035502D01*
X143564834Y-124020500D01*
X143201166Y-124020500D01*
X143106445Y-124035502D01*
X142992277Y-124093674D01*
X142901674Y-124184277D01*
X142866958Y-124252410D01*
X142860267Y-124265542D01*
X142811518Y-124317157D01*
X142742603Y-124334223D01*
X142675402Y-124311322D01*
X142635733Y-124265542D01*
X142629042Y-124252410D01*
X142594326Y-124184277D01*
X142503723Y-124093674D01*
X142389555Y-124035502D01*
X142294834Y-124020500D01*
X141931166Y-124020500D01*
X141836445Y-124035502D01*
X141722277Y-124093674D01*
X141631674Y-124184277D01*
X141596958Y-124252410D01*
X141590267Y-124265542D01*
X141541518Y-124317157D01*
X141472603Y-124334223D01*
X141405402Y-124311322D01*
X141365733Y-124265542D01*
X141359042Y-124252410D01*
X141324326Y-124184277D01*
X141233723Y-124093674D01*
X141119555Y-124035502D01*
X141024834Y-124020500D01*
X140661166Y-124020500D01*
X140566445Y-124035502D01*
X140452277Y-124093674D01*
X140361674Y-124184277D01*
X140326958Y-124252410D01*
X140320267Y-124265542D01*
X140271518Y-124317157D01*
X140202603Y-124334223D01*
X140135402Y-124311322D01*
X140095733Y-124265542D01*
X140089042Y-124252410D01*
X140054326Y-124184277D01*
X139963723Y-124093674D01*
X139849555Y-124035502D01*
X139754834Y-124020500D01*
X139391166Y-124020500D01*
X139296445Y-124035502D01*
X139182277Y-124093674D01*
X139091674Y-124184277D01*
X139056958Y-124252410D01*
X139050267Y-124265542D01*
X139001518Y-124317157D01*
X138932603Y-124334223D01*
X138865402Y-124311322D01*
X138825733Y-124265542D01*
X138819042Y-124252410D01*
X138784326Y-124184277D01*
X138693723Y-124093674D01*
X138579555Y-124035502D01*
X138484834Y-124020500D01*
X138121166Y-124020500D01*
X138026445Y-124035502D01*
X137912277Y-124093674D01*
X137821674Y-124184277D01*
X137763502Y-124298445D01*
X137748500Y-124393166D01*
X137748500Y-126206834D01*
X137763502Y-126301555D01*
X137821674Y-126415723D01*
X137912277Y-126506326D01*
X138026445Y-126564498D01*
X138121166Y-126579500D01*
X138484834Y-126579500D01*
X138579555Y-126564498D01*
X138693723Y-126506326D01*
X138784326Y-126415723D01*
X138825733Y-126334458D01*
X138874482Y-126282843D01*
X138943397Y-126265777D01*
X139010598Y-126288678D01*
X139050267Y-126334458D01*
X139091674Y-126415723D01*
X139182277Y-126506326D01*
X139296445Y-126564498D01*
X139391166Y-126579500D01*
X139754834Y-126579500D01*
X139849555Y-126564498D01*
X139963723Y-126506326D01*
X140054326Y-126415723D01*
X140095733Y-126334458D01*
X140144482Y-126282843D01*
X140213397Y-126265777D01*
X140280598Y-126288678D01*
X140320267Y-126334458D01*
X140361674Y-126415723D01*
X140452277Y-126506326D01*
X140566445Y-126564498D01*
X140661166Y-126579500D01*
X141024834Y-126579500D01*
X141119555Y-126564498D01*
X141233723Y-126506326D01*
X141324326Y-126415723D01*
X141365733Y-126334458D01*
X141414482Y-126282843D01*
X141483397Y-126265777D01*
X141550598Y-126288678D01*
X141590267Y-126334458D01*
X141631674Y-126415723D01*
X141697257Y-126481306D01*
X141731283Y-126543618D01*
X141734162Y-126570401D01*
X141734162Y-126618470D01*
X141714160Y-126686591D01*
X141707123Y-126696461D01*
X141706273Y-126697540D01*
X141702325Y-126701983D01*
X141702398Y-126702045D01*
X141699039Y-126706009D01*
X141695362Y-126709686D01*
X141684108Y-126725434D01*
X141680602Y-126730104D01*
X141648844Y-126770389D01*
X141645812Y-126779023D01*
X141640486Y-126786476D01*
X141626150Y-126834414D01*
X141625799Y-126835586D01*
X141623964Y-126841234D01*
X141612282Y-126874500D01*
X141606982Y-126889593D01*
X141606500Y-126895158D01*
X141606500Y-126897866D01*
X141606386Y-126900500D01*
X141606357Y-126900598D01*
X141606193Y-126900591D01*
X141606149Y-126901295D01*
X141604287Y-126907520D01*
X141604696Y-126917925D01*
X141603390Y-126928261D01*
X141599907Y-126927821D01*
X141587059Y-126978876D01*
X141561311Y-127009897D01*
X141496039Y-127066838D01*
X141404950Y-127196444D01*
X141389273Y-127236653D01*
X141352623Y-127330657D01*
X141347406Y-127344037D01*
X141346414Y-127351570D01*
X141346414Y-127351571D01*
X141328026Y-127491246D01*
X141326729Y-127501096D01*
X141332461Y-127553010D01*
X141341294Y-127633018D01*
X141344113Y-127658553D01*
X141346723Y-127665684D01*
X141346723Y-127665686D01*
X141390865Y-127786309D01*
X141398553Y-127807319D01*
X141402789Y-127813622D01*
X141402789Y-127813623D01*
X141439957Y-127868934D01*
X141486908Y-127938805D01*
X141492527Y-127943918D01*
X141492528Y-127943919D01*
X141503903Y-127954269D01*
X141604076Y-128045419D01*
X141743293Y-128121008D01*
X141896522Y-128161207D01*
X141980477Y-128162526D01*
X142047319Y-128163576D01*
X142047322Y-128163576D01*
X142054916Y-128163695D01*
X142209332Y-128128329D01*
X142280422Y-128092575D01*
X142344072Y-128060563D01*
X142344075Y-128060561D01*
X142350855Y-128057151D01*
X142356626Y-128052222D01*
X142356629Y-128052220D01*
X142465536Y-127959204D01*
X142465536Y-127959203D01*
X142471314Y-127954269D01*
X142563755Y-127825624D01*
X142622842Y-127678641D01*
X142640973Y-127551243D01*
X142644581Y-127525891D01*
X142644581Y-127525888D01*
X142645162Y-127521807D01*
X142645307Y-127508000D01*
X142626276Y-127350733D01*
X142570280Y-127202546D01*
X142527453Y-127140232D01*
X142484257Y-127077381D01*
X142462157Y-127009911D01*
X142467380Y-126969912D01*
X142473861Y-126948241D01*
X142475696Y-126942594D01*
X142490052Y-126901713D01*
X142490052Y-126901712D01*
X142492680Y-126894229D01*
X142493162Y-126888664D01*
X142493162Y-126885956D01*
X142493276Y-126883322D01*
X142493305Y-126883224D01*
X142493469Y-126883231D01*
X142493513Y-126882527D01*
X142495375Y-126876302D01*
X142493259Y-126822445D01*
X142493162Y-126817498D01*
X142493162Y-126569077D01*
X142513164Y-126500956D01*
X142530067Y-126479982D01*
X142594326Y-126415723D01*
X142635733Y-126334458D01*
X142684482Y-126282843D01*
X142753397Y-126265777D01*
X142820598Y-126288678D01*
X142860267Y-126334458D01*
X142901674Y-126415723D01*
X142992277Y-126506326D01*
X143106445Y-126564498D01*
X143201166Y-126579500D01*
X143564834Y-126579500D01*
X143659555Y-126564498D01*
X143773723Y-126506326D01*
X143864326Y-126415723D01*
X143905733Y-126334458D01*
X143954482Y-126282843D01*
X144023397Y-126265777D01*
X144090598Y-126288678D01*
X144130267Y-126334458D01*
X144171674Y-126415723D01*
X144238506Y-126482555D01*
X144272532Y-126544867D01*
X144275411Y-126571650D01*
X144275411Y-127223244D01*
X144272862Y-127247192D01*
X144272783Y-127248857D01*
X144270591Y-127259040D01*
X144271815Y-127269381D01*
X144274538Y-127292387D01*
X144274888Y-127298318D01*
X144274983Y-127298310D01*
X144275411Y-127303488D01*
X144275411Y-127308688D01*
X144276265Y-127313817D01*
X144276265Y-127313820D01*
X144278580Y-127327729D01*
X144279417Y-127333607D01*
X144280652Y-127344037D01*
X144285441Y-127384505D01*
X144289404Y-127392757D01*
X144290907Y-127401790D01*
X144295854Y-127410959D01*
X144295855Y-127410961D01*
X144315245Y-127446896D01*
X144317942Y-127452189D01*
X144336696Y-127491246D01*
X144336699Y-127491250D01*
X144340130Y-127498396D01*
X144343725Y-127502672D01*
X144345648Y-127504595D01*
X144347420Y-127506527D01*
X144347463Y-127506606D01*
X144347339Y-127506719D01*
X144347815Y-127507259D01*
X144350901Y-127512978D01*
X144358546Y-127520045D01*
X144390497Y-127549580D01*
X144394063Y-127553010D01*
X145887595Y-129046542D01*
X145921621Y-129108854D01*
X145924500Y-129135637D01*
X145924500Y-129854564D01*
X145904498Y-129922685D01*
X145850842Y-129969178D01*
X145780568Y-129979282D01*
X145715988Y-129949788D01*
X145697675Y-129930130D01*
X145696287Y-129928278D01*
X145683724Y-129915715D01*
X145581649Y-129839214D01*
X145566054Y-129830676D01*
X145445606Y-129785522D01*
X145430351Y-129781895D01*
X145379486Y-129776369D01*
X145372672Y-129776000D01*
X142350115Y-129776000D01*
X142334876Y-129780475D01*
X142333671Y-129781865D01*
X142332000Y-129789548D01*
X142332000Y-132973884D01*
X142336475Y-132989123D01*
X142337865Y-132990328D01*
X142345548Y-132991999D01*
X145372669Y-132991999D01*
X145379490Y-132991629D01*
X145430352Y-132986105D01*
X145445604Y-132982479D01*
X145566054Y-132937324D01*
X145581649Y-132928786D01*
X145683724Y-132852285D01*
X145696285Y-132839724D01*
X145759222Y-132755747D01*
X145816081Y-132713232D01*
X145886899Y-132708206D01*
X145949193Y-132742266D01*
X145973632Y-132776772D01*
X145985785Y-132802082D01*
X145985788Y-132802086D01*
X145989219Y-132809232D01*
X145992814Y-132813508D01*
X145994737Y-132815431D01*
X145996509Y-132817363D01*
X145996552Y-132817442D01*
X145996428Y-132817555D01*
X145996904Y-132818095D01*
X145999990Y-132823814D01*
X146007635Y-132830881D01*
X146039586Y-132860416D01*
X146043152Y-132863846D01*
X147138249Y-133958944D01*
X147172275Y-134021256D01*
X147174076Y-134064483D01*
X147168729Y-134105096D01*
X147173964Y-134152511D01*
X147182772Y-134232289D01*
X147186113Y-134262553D01*
X147188723Y-134269684D01*
X147188723Y-134269686D01*
X147237632Y-134403336D01*
X147240553Y-134411319D01*
X147244789Y-134417622D01*
X147244789Y-134417623D01*
X147252155Y-134428584D01*
X147328908Y-134542805D01*
X147351331Y-134563208D01*
X147378342Y-134587786D01*
X147415265Y-134648426D01*
X147413542Y-134719402D01*
X147373720Y-134778179D01*
X147308443Y-134806096D01*
X147293543Y-134806980D01*
X144393722Y-134806980D01*
X144369775Y-134804431D01*
X144368109Y-134804352D01*
X144357926Y-134802160D01*
X144347584Y-134803384D01*
X144347581Y-134803384D01*
X144324589Y-134806106D01*
X144318648Y-134806457D01*
X144318656Y-134806552D01*
X144313476Y-134806980D01*
X144308278Y-134806980D01*
X144303156Y-134807833D01*
X144303151Y-134807833D01*
X144289229Y-134810151D01*
X144283352Y-134810988D01*
X144276851Y-134811757D01*
X144242799Y-134815787D01*
X144242797Y-134815788D01*
X144232461Y-134817011D01*
X144224212Y-134820972D01*
X144215176Y-134822476D01*
X144206007Y-134827423D01*
X144206005Y-134827424D01*
X144170042Y-134846828D01*
X144164753Y-134849523D01*
X144125717Y-134868268D01*
X144118570Y-134871700D01*
X144114294Y-134875294D01*
X144112354Y-134877234D01*
X144110443Y-134878987D01*
X144110353Y-134879036D01*
X144110241Y-134878913D01*
X144109706Y-134879385D01*
X144103988Y-134882470D01*
X144096921Y-134890115D01*
X144067386Y-134922066D01*
X144063956Y-134925632D01*
X138435993Y-140553595D01*
X138373681Y-140587621D01*
X138346898Y-140590500D01*
X135943920Y-140590500D01*
X135919973Y-140587951D01*
X135918307Y-140587872D01*
X135908124Y-140585680D01*
X135897782Y-140586904D01*
X135897779Y-140586904D01*
X135874787Y-140589626D01*
X135868846Y-140589977D01*
X135868854Y-140590072D01*
X135863674Y-140590500D01*
X135858476Y-140590500D01*
X135853354Y-140591353D01*
X135853349Y-140591353D01*
X135839427Y-140593671D01*
X135833550Y-140594508D01*
X135827049Y-140595277D01*
X135792997Y-140599307D01*
X135792995Y-140599308D01*
X135782659Y-140600531D01*
X135774410Y-140604492D01*
X135765374Y-140605996D01*
X135756205Y-140610943D01*
X135756203Y-140610944D01*
X135720240Y-140630348D01*
X135714951Y-140633043D01*
X135675915Y-140651788D01*
X135668768Y-140655220D01*
X135664492Y-140658814D01*
X135662552Y-140660754D01*
X135660641Y-140662507D01*
X135660551Y-140662556D01*
X135660439Y-140662433D01*
X135659904Y-140662905D01*
X135654186Y-140665990D01*
X135647119Y-140673635D01*
X135617584Y-140705586D01*
X135614154Y-140709152D01*
X135106886Y-141216420D01*
X135044574Y-141250446D01*
X134980534Y-141247690D01*
X134833063Y-141202040D01*
X134826938Y-141201396D01*
X134826937Y-141201396D01*
X134633526Y-141181068D01*
X134633524Y-141181068D01*
X134627397Y-141180424D01*
X134501229Y-141191906D01*
X134427591Y-141198607D01*
X134427590Y-141198607D01*
X134421450Y-141199166D01*
X134223066Y-141257554D01*
X134217601Y-141260411D01*
X134045261Y-141350508D01*
X134045257Y-141350511D01*
X134039801Y-141353363D01*
X133878635Y-141482943D01*
X133745708Y-141641360D01*
X133646082Y-141822578D01*
X133583553Y-142019696D01*
X133582867Y-142025813D01*
X133582866Y-142025817D01*
X133561452Y-142216730D01*
X133560501Y-142225206D01*
X133563874Y-142265369D01*
X133575831Y-142407755D01*
X133577806Y-142431278D01*
X133634807Y-142630066D01*
X133637625Y-142635548D01*
X133637626Y-142635552D01*
X133726514Y-142808509D01*
X133726517Y-142808513D01*
X133729334Y-142813995D01*
X133857786Y-142976061D01*
X133862479Y-142980055D01*
X133862480Y-142980056D01*
X133993078Y-143091203D01*
X134015271Y-143110091D01*
X134195789Y-143210980D01*
X134392466Y-143274884D01*
X134597809Y-143299370D01*
X134603944Y-143298898D01*
X134603946Y-143298898D01*
X134797856Y-143283977D01*
X134797860Y-143283976D01*
X134803998Y-143283504D01*
X134985438Y-143232845D01*
X135056425Y-143233792D01*
X135108415Y-143265109D01*
X135419454Y-143576149D01*
X135727596Y-143884291D01*
X135761621Y-143946603D01*
X135764500Y-143973386D01*
X135764500Y-144180896D01*
X135744498Y-144249017D01*
X135690842Y-144295510D01*
X135620568Y-144305614D01*
X135555988Y-144276120D01*
X135527249Y-144240049D01*
X135505459Y-144199067D01*
X135505457Y-144199064D01*
X135502565Y-144193625D01*
X135498674Y-144188855D01*
X135498672Y-144188851D01*
X135375758Y-144038143D01*
X135375755Y-144038140D01*
X135371863Y-144033368D01*
X135364966Y-144027662D01*
X135217271Y-143905478D01*
X135217266Y-143905475D01*
X135212522Y-143901550D01*
X135207103Y-143898620D01*
X135207100Y-143898618D01*
X135036032Y-143806122D01*
X135036027Y-143806120D01*
X135030612Y-143803192D01*
X134833063Y-143742040D01*
X134826938Y-143741396D01*
X134826937Y-143741396D01*
X134633526Y-143721068D01*
X134633524Y-143721068D01*
X134627397Y-143720424D01*
X134501229Y-143731906D01*
X134427591Y-143738607D01*
X134427590Y-143738607D01*
X134421450Y-143739166D01*
X134223066Y-143797554D01*
X134217601Y-143800411D01*
X134045261Y-143890508D01*
X134045257Y-143890511D01*
X134039801Y-143893363D01*
X134035001Y-143897223D01*
X134035000Y-143897223D01*
X134001046Y-143924523D01*
X133878635Y-144022943D01*
X133745708Y-144181360D01*
X133646082Y-144362578D01*
X133583553Y-144559696D01*
X133582867Y-144565813D01*
X133582866Y-144565817D01*
X133561653Y-144754933D01*
X133560501Y-144765206D01*
X131155124Y-144765206D01*
X131101405Y-144711487D01*
X131067379Y-144649175D01*
X131064500Y-144622392D01*
X131064500Y-132528669D01*
X138320001Y-132528669D01*
X138320371Y-132535490D01*
X138325895Y-132586352D01*
X138329521Y-132601604D01*
X138374676Y-132722054D01*
X138383214Y-132737649D01*
X138459715Y-132839724D01*
X138472276Y-132852285D01*
X138574351Y-132928786D01*
X138589946Y-132937324D01*
X138710394Y-132982478D01*
X138725649Y-132986105D01*
X138776514Y-132991631D01*
X138783328Y-132992000D01*
X141805885Y-132992000D01*
X141821124Y-132987525D01*
X141822329Y-132986135D01*
X141824000Y-132978452D01*
X141824000Y-131656115D01*
X141819525Y-131640876D01*
X141818135Y-131639671D01*
X141810452Y-131638000D01*
X138338116Y-131638000D01*
X138322877Y-131642475D01*
X138321672Y-131643865D01*
X138320001Y-131651548D01*
X138320001Y-132528669D01*
X131064500Y-132528669D01*
X131064500Y-131111885D01*
X138320000Y-131111885D01*
X138324475Y-131127124D01*
X138325865Y-131128329D01*
X138333548Y-131130000D01*
X141805885Y-131130000D01*
X141821124Y-131125525D01*
X141822329Y-131124135D01*
X141824000Y-131116452D01*
X141824000Y-129794116D01*
X141819525Y-129778877D01*
X141818135Y-129777672D01*
X141810452Y-129776001D01*
X138783331Y-129776001D01*
X138776510Y-129776371D01*
X138725648Y-129781895D01*
X138710396Y-129785521D01*
X138589946Y-129830676D01*
X138574351Y-129839214D01*
X138472276Y-129915715D01*
X138459715Y-129928276D01*
X138383214Y-130030351D01*
X138374676Y-130045946D01*
X138329522Y-130166394D01*
X138325895Y-130181649D01*
X138320369Y-130232514D01*
X138320000Y-130239328D01*
X138320000Y-131111885D01*
X131064500Y-131111885D01*
X131064500Y-120615813D01*
X134829139Y-120615813D01*
X134842339Y-120844742D01*
X134843476Y-120849788D01*
X134843477Y-120849794D01*
X134874269Y-120986427D01*
X134892752Y-121068442D01*
X134894694Y-121073224D01*
X134894695Y-121073228D01*
X134977079Y-121276116D01*
X134979023Y-121280903D01*
X135098837Y-121476422D01*
X135102221Y-121480328D01*
X135102222Y-121480330D01*
X135121025Y-121502037D01*
X135248976Y-121649747D01*
X135425407Y-121796222D01*
X135429863Y-121798826D01*
X135429866Y-121798828D01*
X135524619Y-121854197D01*
X135623391Y-121911915D01*
X135837614Y-121993719D01*
X135842680Y-121994750D01*
X135842681Y-121994750D01*
X135895277Y-122005451D01*
X136062320Y-122039436D01*
X136197062Y-122044377D01*
X136286312Y-122047650D01*
X136286316Y-122047650D01*
X136291475Y-122047839D01*
X136306221Y-122045950D01*
X136513806Y-122019357D01*
X136513807Y-122019357D01*
X136518926Y-122018701D01*
X136738564Y-121952807D01*
X136818276Y-121913757D01*
X136939853Y-121854197D01*
X136944491Y-121851925D01*
X137018930Y-121798828D01*
X137126963Y-121721769D01*
X137126968Y-121721765D01*
X137131175Y-121718764D01*
X137293605Y-121556901D01*
X137348627Y-121480330D01*
X137424398Y-121374882D01*
X137427416Y-121370682D01*
X137432426Y-121360546D01*
X137526725Y-121169747D01*
X137526726Y-121169744D01*
X137529017Y-121165109D01*
X137530517Y-121160170D01*
X137530520Y-121160164D01*
X137594177Y-120950642D01*
X137595678Y-120945702D01*
X137625608Y-120718354D01*
X137627279Y-120650000D01*
X137608490Y-120421461D01*
X137552626Y-120199060D01*
X137461189Y-119988770D01*
X137452608Y-119975505D01*
X137339444Y-119800581D01*
X137336634Y-119796237D01*
X137308819Y-119765668D01*
X137287894Y-119742672D01*
X137182306Y-119626632D01*
X137178255Y-119623433D01*
X137178251Y-119623429D01*
X137006407Y-119487716D01*
X137002349Y-119484511D01*
X136801597Y-119373689D01*
X136684441Y-119332202D01*
X136590315Y-119298870D01*
X136590311Y-119298869D01*
X136585440Y-119297144D01*
X136580347Y-119296237D01*
X136580344Y-119296236D01*
X136364773Y-119257837D01*
X136364767Y-119257836D01*
X136359684Y-119256931D01*
X136286469Y-119256037D01*
X136135561Y-119254193D01*
X136135559Y-119254193D01*
X136130391Y-119254130D01*
X135903720Y-119288815D01*
X135685758Y-119360056D01*
X135482357Y-119465940D01*
X135478224Y-119469043D01*
X135478221Y-119469045D01*
X135453354Y-119487716D01*
X135298982Y-119603622D01*
X135140556Y-119769405D01*
X135137642Y-119773677D01*
X135137641Y-119773678D01*
X135119289Y-119800581D01*
X135011334Y-119958838D01*
X134989907Y-120004999D01*
X134916963Y-120162140D01*
X134916961Y-120162145D01*
X134914786Y-120166831D01*
X134853506Y-120387801D01*
X134829139Y-120615813D01*
X131064500Y-120615813D01*
X131064500Y-113608062D01*
X134660493Y-113608062D01*
X134669789Y-113620077D01*
X134720994Y-113655931D01*
X134730489Y-113661414D01*
X134927947Y-113753490D01*
X134938239Y-113757236D01*
X135148688Y-113813625D01*
X135159481Y-113815528D01*
X135376525Y-113834517D01*
X135387475Y-113834517D01*
X135604519Y-113815528D01*
X135615312Y-113813625D01*
X135825761Y-113757236D01*
X135836053Y-113753490D01*
X136033511Y-113661414D01*
X136043006Y-113655931D01*
X136095048Y-113619491D01*
X136103424Y-113609012D01*
X136096356Y-113595566D01*
X135394812Y-112894022D01*
X135380868Y-112886408D01*
X135379035Y-112886539D01*
X135372420Y-112890790D01*
X134666923Y-113596287D01*
X134660493Y-113608062D01*
X131064500Y-113608062D01*
X131064500Y-112527475D01*
X134069483Y-112527475D01*
X134088472Y-112744519D01*
X134090375Y-112755312D01*
X134146764Y-112965761D01*
X134150510Y-112976053D01*
X134242586Y-113173511D01*
X134248069Y-113183006D01*
X134284509Y-113235048D01*
X134294988Y-113243424D01*
X134308434Y-113236356D01*
X135009978Y-112534812D01*
X135016356Y-112523132D01*
X135746408Y-112523132D01*
X135746539Y-112524965D01*
X135750790Y-112531580D01*
X136456287Y-113237077D01*
X136468062Y-113243507D01*
X136480077Y-113234211D01*
X136515931Y-113183006D01*
X136521414Y-113173511D01*
X136613490Y-112976053D01*
X136617236Y-112965761D01*
X136673625Y-112755312D01*
X136675528Y-112744519D01*
X136694517Y-112527475D01*
X136694517Y-112516525D01*
X136693702Y-112507206D01*
X139322501Y-112507206D01*
X139339806Y-112713278D01*
X139396807Y-112912066D01*
X139399625Y-112917548D01*
X139399626Y-112917552D01*
X139488514Y-113090509D01*
X139488517Y-113090513D01*
X139491334Y-113095995D01*
X139619786Y-113258061D01*
X139777271Y-113392091D01*
X139957789Y-113492980D01*
X140154466Y-113556884D01*
X140359809Y-113581370D01*
X140365944Y-113580898D01*
X140365946Y-113580898D01*
X140559856Y-113565977D01*
X140559860Y-113565976D01*
X140565998Y-113565504D01*
X140765178Y-113509892D01*
X140770682Y-113507112D01*
X140770684Y-113507111D01*
X140944262Y-113419431D01*
X140944264Y-113419430D01*
X140949763Y-113416652D01*
X141112722Y-113289334D01*
X141116748Y-113284670D01*
X141116751Y-113284667D01*
X141243819Y-113137457D01*
X141243820Y-113137455D01*
X141247848Y-113132789D01*
X141298922Y-113042884D01*
X141346950Y-112958340D01*
X141346952Y-112958336D01*
X141349995Y-112952979D01*
X141415270Y-112756753D01*
X141441189Y-112551586D01*
X141441602Y-112522000D01*
X141421422Y-112316189D01*
X141361651Y-112118217D01*
X141264565Y-111935625D01*
X141260674Y-111930855D01*
X141260672Y-111930851D01*
X141137758Y-111780143D01*
X141137755Y-111780140D01*
X141133863Y-111775368D01*
X141126966Y-111769662D01*
X140979271Y-111647478D01*
X140979266Y-111647475D01*
X140974522Y-111643550D01*
X140969103Y-111640620D01*
X140969100Y-111640618D01*
X140798032Y-111548122D01*
X140798027Y-111548120D01*
X140792612Y-111545192D01*
X140595063Y-111484040D01*
X140588938Y-111483396D01*
X140588937Y-111483396D01*
X140395526Y-111463068D01*
X140395524Y-111463068D01*
X140389397Y-111462424D01*
X140263229Y-111473906D01*
X140189591Y-111480607D01*
X140189590Y-111480607D01*
X140183450Y-111481166D01*
X139985066Y-111539554D01*
X139979601Y-111542411D01*
X139807261Y-111632508D01*
X139807257Y-111632511D01*
X139801801Y-111635363D01*
X139640635Y-111764943D01*
X139507708Y-111923360D01*
X139408082Y-112104578D01*
X139345553Y-112301696D01*
X139344867Y-112307813D01*
X139344866Y-112307817D01*
X139339233Y-112358037D01*
X139322501Y-112507206D01*
X136693702Y-112507206D01*
X136675528Y-112299481D01*
X136673625Y-112288688D01*
X136617236Y-112078239D01*
X136613490Y-112067947D01*
X136521414Y-111870489D01*
X136515931Y-111860994D01*
X136479491Y-111808952D01*
X136469012Y-111800576D01*
X136455566Y-111807644D01*
X135754022Y-112509188D01*
X135746408Y-112523132D01*
X135016356Y-112523132D01*
X135017592Y-112520868D01*
X135017461Y-112519035D01*
X135013210Y-112512420D01*
X134307713Y-111806923D01*
X134295938Y-111800493D01*
X134283923Y-111809789D01*
X134248069Y-111860994D01*
X134242586Y-111870489D01*
X134150510Y-112067947D01*
X134146764Y-112078239D01*
X134090375Y-112288688D01*
X134088472Y-112299481D01*
X134069483Y-112516525D01*
X134069483Y-112527475D01*
X131064500Y-112527475D01*
X131064500Y-111434988D01*
X134660576Y-111434988D01*
X134667644Y-111448434D01*
X135369188Y-112149978D01*
X135383132Y-112157592D01*
X135384965Y-112157461D01*
X135391580Y-112153210D01*
X136097077Y-111447713D01*
X136103507Y-111435938D01*
X136094211Y-111423923D01*
X136043006Y-111388069D01*
X136033511Y-111382586D01*
X135836053Y-111290510D01*
X135825761Y-111286764D01*
X135615312Y-111230375D01*
X135604519Y-111228472D01*
X135387475Y-111209483D01*
X135376525Y-111209483D01*
X135159481Y-111228472D01*
X135148688Y-111230375D01*
X134938239Y-111286764D01*
X134927947Y-111290510D01*
X134730489Y-111382586D01*
X134720994Y-111388069D01*
X134668952Y-111424509D01*
X134660576Y-111434988D01*
X131064500Y-111434988D01*
X131064500Y-106246856D01*
X134972601Y-106246856D01*
X134979059Y-106256216D01*
X134995361Y-106270512D01*
X135001901Y-106275530D01*
X135241144Y-106435387D01*
X135248281Y-106439508D01*
X135506349Y-106566772D01*
X135513953Y-106569922D01*
X135786420Y-106662412D01*
X135794383Y-106664546D01*
X136076600Y-106720683D01*
X136084751Y-106721756D01*
X136371881Y-106740575D01*
X136380119Y-106740575D01*
X136667249Y-106721756D01*
X136675400Y-106720683D01*
X136957617Y-106664546D01*
X136965580Y-106662412D01*
X137238047Y-106569922D01*
X137245651Y-106566772D01*
X137503719Y-106439508D01*
X137510856Y-106435387D01*
X137562420Y-106400933D01*
X138429500Y-106400933D01*
X138429501Y-107975066D01*
X138444266Y-108049301D01*
X138451161Y-108059620D01*
X138451162Y-108059622D01*
X138478293Y-108100225D01*
X138500516Y-108133484D01*
X138584699Y-108189734D01*
X138658933Y-108204500D01*
X139445872Y-108204500D01*
X140233066Y-108204499D01*
X140268818Y-108197388D01*
X140295126Y-108192156D01*
X140295128Y-108192155D01*
X140307301Y-108189734D01*
X140317621Y-108182839D01*
X140317622Y-108182838D01*
X140381168Y-108140377D01*
X140391484Y-108133484D01*
X140447734Y-108049301D01*
X140462500Y-107975067D01*
X140462499Y-106400934D01*
X140451401Y-106345135D01*
X140450156Y-106338874D01*
X140450155Y-106338872D01*
X140447734Y-106326699D01*
X140436276Y-106309550D01*
X140398377Y-106252832D01*
X140391484Y-106242516D01*
X140307301Y-106186266D01*
X140233067Y-106171500D01*
X139446128Y-106171500D01*
X138658934Y-106171501D01*
X138623182Y-106178612D01*
X138596874Y-106183844D01*
X138596872Y-106183845D01*
X138584699Y-106186266D01*
X138574379Y-106193161D01*
X138574378Y-106193162D01*
X138551557Y-106208411D01*
X138500516Y-106242516D01*
X138444266Y-106326699D01*
X138429500Y-106400933D01*
X137562420Y-106400933D01*
X137750099Y-106275530D01*
X137756639Y-106270512D01*
X137771074Y-106257853D01*
X137779472Y-106244614D01*
X137773638Y-106234849D01*
X137667060Y-106128271D01*
X145751860Y-106128271D01*
X145758928Y-106141718D01*
X146433188Y-106815978D01*
X146447132Y-106823592D01*
X146448965Y-106823461D01*
X146455580Y-106819210D01*
X147027934Y-106246856D01*
X148112601Y-106246856D01*
X148119059Y-106256216D01*
X148135361Y-106270512D01*
X148141901Y-106275530D01*
X148381144Y-106435387D01*
X148388281Y-106439508D01*
X148646349Y-106566772D01*
X148653953Y-106569922D01*
X148926420Y-106662412D01*
X148934383Y-106664546D01*
X149216600Y-106720683D01*
X149224751Y-106721756D01*
X149511881Y-106740575D01*
X149520119Y-106740575D01*
X149807249Y-106721756D01*
X149815400Y-106720683D01*
X150097617Y-106664546D01*
X150105580Y-106662412D01*
X150378047Y-106569922D01*
X150385651Y-106566772D01*
X150643719Y-106439508D01*
X150650856Y-106435387D01*
X150890099Y-106275530D01*
X150896639Y-106270512D01*
X150911074Y-106257853D01*
X150919472Y-106244614D01*
X150913638Y-106234849D01*
X149528810Y-104850020D01*
X149514869Y-104842408D01*
X149513034Y-104842539D01*
X149506420Y-104846790D01*
X148120116Y-106233095D01*
X148112601Y-106246856D01*
X147027934Y-106246856D01*
X147133793Y-106140997D01*
X147140223Y-106129223D01*
X147130926Y-106117207D01*
X147087931Y-106087102D01*
X147078445Y-106081624D01*
X146887007Y-105992355D01*
X146876715Y-105988609D01*
X146672691Y-105933941D01*
X146661896Y-105932038D01*
X146451475Y-105913628D01*
X146440525Y-105913628D01*
X146230104Y-105932038D01*
X146219309Y-105933941D01*
X146015285Y-105988609D01*
X146004993Y-105992355D01*
X145813559Y-106081623D01*
X145804068Y-106087103D01*
X145760235Y-106117794D01*
X145751860Y-106128271D01*
X137667060Y-106128271D01*
X136388810Y-104850020D01*
X136374869Y-104842408D01*
X136373034Y-104842539D01*
X136366420Y-104846790D01*
X134980116Y-106233095D01*
X134972601Y-106246856D01*
X131064500Y-106246856D01*
X131064500Y-104482119D01*
X134113425Y-104482119D01*
X134132244Y-104769249D01*
X134133317Y-104777400D01*
X134189454Y-105059617D01*
X134191588Y-105067580D01*
X134284078Y-105340047D01*
X134287228Y-105347651D01*
X134414492Y-105605718D01*
X134418613Y-105612855D01*
X134578470Y-105852099D01*
X134583488Y-105858639D01*
X134596147Y-105873074D01*
X134609386Y-105881472D01*
X134619151Y-105875638D01*
X136003980Y-104490810D01*
X136010357Y-104479131D01*
X136740408Y-104479131D01*
X136740539Y-104480966D01*
X136744790Y-104487580D01*
X138131095Y-105873884D01*
X138144856Y-105881399D01*
X138154216Y-105874941D01*
X138168512Y-105858639D01*
X138173530Y-105852099D01*
X138333387Y-105612855D01*
X138337508Y-105605718D01*
X138464772Y-105347651D01*
X138467922Y-105340047D01*
X138560412Y-105067580D01*
X138562546Y-105059617D01*
X138618683Y-104777400D01*
X138619756Y-104769249D01*
X138638575Y-104482119D01*
X147253425Y-104482119D01*
X147272244Y-104769249D01*
X147273317Y-104777400D01*
X147329454Y-105059617D01*
X147331588Y-105067580D01*
X147424078Y-105340047D01*
X147427228Y-105347651D01*
X147554492Y-105605718D01*
X147558613Y-105612855D01*
X147718470Y-105852099D01*
X147723488Y-105858639D01*
X147736147Y-105873074D01*
X147749386Y-105881472D01*
X147759151Y-105875638D01*
X149143980Y-104490810D01*
X149150357Y-104479131D01*
X149880408Y-104479131D01*
X149880539Y-104480966D01*
X149884790Y-104487580D01*
X151271095Y-105873884D01*
X151284856Y-105881399D01*
X151294216Y-105874941D01*
X151308512Y-105858639D01*
X151313530Y-105852099D01*
X151473387Y-105612855D01*
X151477508Y-105605718D01*
X151604772Y-105347651D01*
X151607922Y-105340047D01*
X151700412Y-105067580D01*
X151702546Y-105059617D01*
X151758683Y-104777400D01*
X151759756Y-104769249D01*
X151768672Y-104633206D01*
X155150501Y-104633206D01*
X155151017Y-104639349D01*
X155166975Y-104829377D01*
X155167806Y-104839278D01*
X155224807Y-105038066D01*
X155227625Y-105043548D01*
X155227626Y-105043552D01*
X155316514Y-105216509D01*
X155316517Y-105216513D01*
X155319334Y-105221995D01*
X155447786Y-105384061D01*
X155452479Y-105388055D01*
X155452480Y-105388056D01*
X155541026Y-105463414D01*
X155605271Y-105518091D01*
X155785789Y-105618980D01*
X155982466Y-105682884D01*
X156187809Y-105707370D01*
X156193944Y-105706898D01*
X156193946Y-105706898D01*
X156387856Y-105691977D01*
X156387860Y-105691976D01*
X156393998Y-105691504D01*
X156593178Y-105635892D01*
X156598682Y-105633112D01*
X156598684Y-105633111D01*
X156772262Y-105545431D01*
X156772264Y-105545430D01*
X156777763Y-105542652D01*
X156940722Y-105415334D01*
X156944748Y-105410670D01*
X156944751Y-105410667D01*
X157071819Y-105263457D01*
X157071820Y-105263455D01*
X157075848Y-105258789D01*
X157158034Y-105114117D01*
X157171017Y-105091263D01*
X157222057Y-105041912D01*
X157280573Y-105027500D01*
X158734501Y-105027500D01*
X158802622Y-105047502D01*
X158849115Y-105101158D01*
X158860501Y-105153500D01*
X158860501Y-105573066D01*
X158865825Y-105599832D01*
X158872444Y-105633111D01*
X158875266Y-105647301D01*
X158931516Y-105731484D01*
X159015699Y-105787734D01*
X159089933Y-105802500D01*
X159125393Y-105802500D01*
X160564618Y-105802499D01*
X160632738Y-105822501D01*
X160679231Y-105876157D01*
X160689335Y-105946431D01*
X160659842Y-106011011D01*
X160653712Y-106017594D01*
X157169784Y-109501522D01*
X157151036Y-109516664D01*
X157149811Y-109517779D01*
X157141060Y-109523429D01*
X157134613Y-109531607D01*
X157134611Y-109531609D01*
X157120271Y-109549800D01*
X157116325Y-109554241D01*
X157116398Y-109554303D01*
X157113039Y-109558267D01*
X157109362Y-109561944D01*
X157098108Y-109577692D01*
X157094602Y-109582362D01*
X157062844Y-109622647D01*
X157059812Y-109631281D01*
X157054486Y-109638734D01*
X157051501Y-109648715D01*
X157039799Y-109687844D01*
X157037964Y-109693492D01*
X157020982Y-109741851D01*
X157020500Y-109747416D01*
X157020500Y-109750124D01*
X157020386Y-109752758D01*
X157020357Y-109752856D01*
X157020193Y-109752849D01*
X157020149Y-109753553D01*
X157018287Y-109759778D01*
X157018696Y-109770183D01*
X157020403Y-109813635D01*
X157020500Y-109818582D01*
X157020500Y-111454131D01*
X157000498Y-111522252D01*
X156952876Y-111565792D01*
X156825265Y-111632506D01*
X156825261Y-111632508D01*
X156819801Y-111635363D01*
X156658635Y-111764943D01*
X156525708Y-111923360D01*
X156426082Y-112104578D01*
X156363553Y-112301696D01*
X156362867Y-112307813D01*
X156362866Y-112307817D01*
X156357233Y-112358037D01*
X156340501Y-112507206D01*
X156357806Y-112713278D01*
X156414807Y-112912066D01*
X156417625Y-112917548D01*
X156417626Y-112917552D01*
X156506514Y-113090509D01*
X156506517Y-113090513D01*
X156509334Y-113095995D01*
X156637786Y-113258061D01*
X156795271Y-113392091D01*
X156975789Y-113492980D01*
X157172466Y-113556884D01*
X157377809Y-113581370D01*
X157383944Y-113580898D01*
X157383946Y-113580898D01*
X157577856Y-113565977D01*
X157577860Y-113565976D01*
X157583998Y-113565504D01*
X157783178Y-113509892D01*
X157788682Y-113507112D01*
X157788684Y-113507111D01*
X157962262Y-113419431D01*
X157962264Y-113419430D01*
X157967763Y-113416652D01*
X158130722Y-113289334D01*
X158134748Y-113284670D01*
X158134751Y-113284667D01*
X158261819Y-113137457D01*
X158261820Y-113137455D01*
X158265848Y-113132789D01*
X158316922Y-113042884D01*
X158364950Y-112958340D01*
X158364952Y-112958336D01*
X158367995Y-112952979D01*
X158433270Y-112756753D01*
X158459189Y-112551586D01*
X158459602Y-112522000D01*
X158439422Y-112316189D01*
X158379651Y-112118217D01*
X158282565Y-111935625D01*
X158278674Y-111930855D01*
X158278672Y-111930851D01*
X158155758Y-111780143D01*
X158155755Y-111780140D01*
X158151863Y-111775368D01*
X158144966Y-111769662D01*
X157997271Y-111647478D01*
X157997266Y-111647475D01*
X157992522Y-111643550D01*
X157987103Y-111640620D01*
X157987100Y-111640618D01*
X157845572Y-111564095D01*
X157795163Y-111514100D01*
X157779500Y-111453259D01*
X157779500Y-110017384D01*
X157799502Y-109949263D01*
X157816405Y-109928289D01*
X161994536Y-105750158D01*
X162056848Y-105716132D01*
X162133368Y-105723485D01*
X162191408Y-105748421D01*
X162191411Y-105748422D01*
X162196711Y-105750699D01*
X162202340Y-105751973D01*
X162202341Y-105751973D01*
X162398025Y-105796252D01*
X162398030Y-105796253D01*
X162403662Y-105797527D01*
X162409433Y-105797754D01*
X162409435Y-105797754D01*
X162474911Y-105800326D01*
X162615681Y-105805857D01*
X162723974Y-105790155D01*
X162819953Y-105776239D01*
X162819958Y-105776238D01*
X162825667Y-105775410D01*
X162831131Y-105773555D01*
X162831136Y-105773554D01*
X162955070Y-105731484D01*
X163026589Y-105707207D01*
X163031632Y-105704383D01*
X163206670Y-105606357D01*
X163206674Y-105606354D01*
X163211717Y-105603530D01*
X163374852Y-105467852D01*
X163510530Y-105304717D01*
X163513354Y-105299674D01*
X163513357Y-105299670D01*
X163611383Y-105124632D01*
X163611384Y-105124630D01*
X163614207Y-105119589D01*
X163682410Y-104918667D01*
X163692364Y-104850020D01*
X163704075Y-104769249D01*
X163712857Y-104708681D01*
X163714446Y-104648000D01*
X163700002Y-104490810D01*
X163695560Y-104442462D01*
X163695559Y-104442459D01*
X163695031Y-104436708D01*
X163692490Y-104427696D01*
X163639004Y-104238051D01*
X163639003Y-104238049D01*
X163637436Y-104232492D01*
X163633830Y-104225178D01*
X163546145Y-104047372D01*
X163543590Y-104042191D01*
X163438433Y-103901368D01*
X163420089Y-103876803D01*
X163420088Y-103876802D01*
X163416636Y-103872179D01*
X163392524Y-103849890D01*
X163265066Y-103732069D01*
X163265063Y-103732067D01*
X163260826Y-103728150D01*
X163081377Y-103614926D01*
X162884300Y-103536300D01*
X162878643Y-103535175D01*
X162878637Y-103535173D01*
X162681863Y-103496033D01*
X162681859Y-103496033D01*
X162676195Y-103494906D01*
X162670420Y-103494830D01*
X162670416Y-103494830D01*
X162563804Y-103493434D01*
X162464031Y-103492128D01*
X162458334Y-103493107D01*
X162458333Y-103493107D01*
X162260610Y-103527082D01*
X162254913Y-103528061D01*
X162055846Y-103601501D01*
X162050885Y-103604453D01*
X162050884Y-103604453D01*
X161878463Y-103707032D01*
X161878460Y-103707034D01*
X161873495Y-103709988D01*
X161869155Y-103713794D01*
X161869151Y-103713797D01*
X161718309Y-103846083D01*
X161713968Y-103849890D01*
X161710393Y-103854425D01*
X161710392Y-103854426D01*
X161669622Y-103906143D01*
X161582607Y-104016520D01*
X161483812Y-104204299D01*
X161420891Y-104406938D01*
X161420212Y-104412675D01*
X161419011Y-104418325D01*
X161416914Y-104417879D01*
X161392743Y-104474486D01*
X161333988Y-104514341D01*
X161263014Y-104516104D01*
X161202353Y-104479216D01*
X161171265Y-104415387D01*
X161169499Y-104394364D01*
X161169499Y-103722934D01*
X161159208Y-103671192D01*
X161157156Y-103660874D01*
X161157155Y-103660872D01*
X161154734Y-103648699D01*
X161132168Y-103614926D01*
X161105377Y-103574832D01*
X161098484Y-103564516D01*
X161014301Y-103508266D01*
X160940067Y-103493500D01*
X160015150Y-103493500D01*
X159089934Y-103493501D01*
X159054182Y-103500612D01*
X159027874Y-103505844D01*
X159027872Y-103505845D01*
X159015699Y-103508266D01*
X159005379Y-103515161D01*
X159005378Y-103515162D01*
X158970541Y-103538440D01*
X158931516Y-103564516D01*
X158924623Y-103574832D01*
X158901855Y-103608907D01*
X158875266Y-103648699D01*
X158860500Y-103722933D01*
X158860500Y-104142500D01*
X158840498Y-104210621D01*
X158786842Y-104257114D01*
X158734500Y-104268500D01*
X157278270Y-104268500D01*
X157210149Y-104248498D01*
X157167019Y-104201653D01*
X157095459Y-104067067D01*
X157095457Y-104067064D01*
X157092565Y-104061625D01*
X157088674Y-104056855D01*
X157088672Y-104056851D01*
X156965758Y-103906143D01*
X156965755Y-103906140D01*
X156961863Y-103901368D01*
X156957114Y-103897439D01*
X156807271Y-103773478D01*
X156807266Y-103773475D01*
X156802522Y-103769550D01*
X156797103Y-103766620D01*
X156797100Y-103766618D01*
X156626032Y-103674122D01*
X156626027Y-103674120D01*
X156620612Y-103671192D01*
X156423063Y-103610040D01*
X156416938Y-103609396D01*
X156416937Y-103609396D01*
X156223526Y-103589068D01*
X156223524Y-103589068D01*
X156217397Y-103588424D01*
X156095655Y-103599503D01*
X156017591Y-103606607D01*
X156017590Y-103606607D01*
X156011450Y-103607166D01*
X155813066Y-103665554D01*
X155807601Y-103668411D01*
X155635261Y-103758508D01*
X155635257Y-103758511D01*
X155629801Y-103761363D01*
X155468635Y-103890943D01*
X155335708Y-104049360D01*
X155236082Y-104230578D01*
X155173553Y-104427696D01*
X155172867Y-104433813D01*
X155172866Y-104433817D01*
X155163834Y-104514341D01*
X155150501Y-104633206D01*
X151768672Y-104633206D01*
X151778575Y-104482119D01*
X151778575Y-104473881D01*
X151759756Y-104186751D01*
X151758683Y-104178600D01*
X151702546Y-103896383D01*
X151700412Y-103888420D01*
X151607922Y-103615953D01*
X151604772Y-103608349D01*
X151477508Y-103350282D01*
X151473387Y-103343145D01*
X151313530Y-103103901D01*
X151308512Y-103097361D01*
X151295853Y-103082926D01*
X151282614Y-103074528D01*
X151272849Y-103080362D01*
X149888020Y-104465190D01*
X149880408Y-104479131D01*
X149150357Y-104479131D01*
X149151592Y-104476869D01*
X149151461Y-104475034D01*
X149147210Y-104468420D01*
X147760905Y-103082116D01*
X147747144Y-103074601D01*
X147737784Y-103081059D01*
X147723488Y-103097361D01*
X147718470Y-103103901D01*
X147558613Y-103343145D01*
X147554492Y-103350282D01*
X147427228Y-103608349D01*
X147424078Y-103615953D01*
X147331588Y-103888420D01*
X147329454Y-103896383D01*
X147273317Y-104178600D01*
X147272244Y-104186751D01*
X147253425Y-104473881D01*
X147253425Y-104482119D01*
X138638575Y-104482119D01*
X138638575Y-104473881D01*
X138619756Y-104186751D01*
X138618683Y-104178600D01*
X138562546Y-103896383D01*
X138560412Y-103888420D01*
X138467922Y-103615953D01*
X138464772Y-103608349D01*
X138337508Y-103350282D01*
X138333387Y-103343145D01*
X138173530Y-103103901D01*
X138168512Y-103097361D01*
X138155853Y-103082926D01*
X138142614Y-103074528D01*
X138132849Y-103080362D01*
X136748020Y-104465190D01*
X136740408Y-104479131D01*
X136010357Y-104479131D01*
X136011592Y-104476869D01*
X136011461Y-104475034D01*
X136007210Y-104468420D01*
X134620905Y-103082116D01*
X134607144Y-103074601D01*
X134597784Y-103081059D01*
X134583488Y-103097361D01*
X134578470Y-103103901D01*
X134418613Y-103343145D01*
X134414492Y-103350282D01*
X134287228Y-103608349D01*
X134284078Y-103615953D01*
X134191588Y-103888420D01*
X134189454Y-103896383D01*
X134133317Y-104178600D01*
X134132244Y-104186751D01*
X134113425Y-104473881D01*
X134113425Y-104482119D01*
X131064500Y-104482119D01*
X131064500Y-103027608D01*
X131084502Y-102959487D01*
X131101405Y-102938513D01*
X131328532Y-102711386D01*
X134972528Y-102711386D01*
X134978362Y-102721151D01*
X136363190Y-104105980D01*
X136377131Y-104113592D01*
X136378966Y-104113461D01*
X136385580Y-104109210D01*
X137771884Y-102722905D01*
X137778175Y-102711386D01*
X148112528Y-102711386D01*
X148118362Y-102721151D01*
X149503190Y-104105980D01*
X149517131Y-104113592D01*
X149518966Y-104113461D01*
X149525580Y-104109210D01*
X150911884Y-102722905D01*
X150919399Y-102709144D01*
X150912941Y-102699784D01*
X150896639Y-102685488D01*
X150890099Y-102680470D01*
X150650856Y-102520613D01*
X150643719Y-102516492D01*
X150385651Y-102389228D01*
X150378047Y-102386078D01*
X150105580Y-102293588D01*
X150097617Y-102291454D01*
X149815400Y-102235317D01*
X149807249Y-102234244D01*
X149520119Y-102215425D01*
X149511881Y-102215425D01*
X149224751Y-102234244D01*
X149216600Y-102235317D01*
X148934383Y-102291454D01*
X148926420Y-102293588D01*
X148653953Y-102386078D01*
X148646349Y-102389228D01*
X148388282Y-102516492D01*
X148381145Y-102520613D01*
X148141901Y-102680470D01*
X148135361Y-102685488D01*
X148120926Y-102698147D01*
X148112528Y-102711386D01*
X137778175Y-102711386D01*
X137779399Y-102709144D01*
X137772941Y-102699784D01*
X137756639Y-102685488D01*
X137750099Y-102680470D01*
X137510856Y-102520613D01*
X137503719Y-102516492D01*
X137245651Y-102389228D01*
X137238047Y-102386078D01*
X136965580Y-102293588D01*
X136957617Y-102291454D01*
X136675400Y-102235317D01*
X136667249Y-102234244D01*
X136380119Y-102215425D01*
X136371881Y-102215425D01*
X136084751Y-102234244D01*
X136076600Y-102235317D01*
X135794383Y-102291454D01*
X135786420Y-102293588D01*
X135513953Y-102386078D01*
X135506349Y-102389228D01*
X135248282Y-102516492D01*
X135241145Y-102520613D01*
X135001901Y-102680470D01*
X134995361Y-102685488D01*
X134980926Y-102698147D01*
X134972528Y-102711386D01*
X131328532Y-102711386D01*
X133418512Y-100621405D01*
X133480824Y-100587380D01*
X133507607Y-100584500D01*
X163672392Y-100584500D01*
X163740513Y-100604502D01*
G37*
%TD.AperFunction*%
%TA.AperFunction,Conductor*%
G36*
X151893257Y-128293078D02*
G01*
X151906552Y-128304632D01*
X152610136Y-129008216D01*
X152625278Y-129026964D01*
X152626393Y-129028189D01*
X152632043Y-129036940D01*
X152640221Y-129043387D01*
X152640223Y-129043389D01*
X152658414Y-129057729D01*
X152662855Y-129061675D01*
X152662917Y-129061602D01*
X152666881Y-129064961D01*
X152670558Y-129068638D01*
X152686306Y-129079892D01*
X152690976Y-129083398D01*
X152731261Y-129115156D01*
X152739895Y-129118188D01*
X152747348Y-129123514D01*
X152796464Y-129138203D01*
X152802106Y-129140036D01*
X152808126Y-129142150D01*
X152850465Y-129157018D01*
X152856030Y-129157500D01*
X152858738Y-129157500D01*
X152861372Y-129157614D01*
X152861470Y-129157643D01*
X152861463Y-129157807D01*
X152862167Y-129157851D01*
X152868392Y-129159713D01*
X152922249Y-129157597D01*
X152927196Y-129157500D01*
X154086141Y-129157500D01*
X154154262Y-129177502D01*
X154181522Y-129201169D01*
X154182672Y-129202501D01*
X154186908Y-129208805D01*
X154304076Y-129315419D01*
X154443293Y-129391008D01*
X154596522Y-129431207D01*
X154680477Y-129432526D01*
X154747319Y-129433576D01*
X154747322Y-129433576D01*
X154754916Y-129433695D01*
X154909332Y-129398329D01*
X155005172Y-129350127D01*
X155044072Y-129330563D01*
X155044075Y-129330561D01*
X155050855Y-129327151D01*
X155056626Y-129322222D01*
X155056629Y-129322220D01*
X155165536Y-129229204D01*
X155165536Y-129229203D01*
X155171314Y-129224269D01*
X155263755Y-129095624D01*
X155266589Y-129088575D01*
X155266592Y-129088569D01*
X155268593Y-129083590D01*
X155312559Y-129027845D01*
X155379684Y-129004720D01*
X155448655Y-129021557D01*
X155497575Y-129073009D01*
X155511500Y-129130586D01*
X155511500Y-129875500D01*
X155491498Y-129943621D01*
X155437842Y-129990114D01*
X155385500Y-130001500D01*
X155034166Y-130001500D01*
X154939445Y-130016502D01*
X154825277Y-130074674D01*
X154734674Y-130165277D01*
X154676502Y-130279445D01*
X154661500Y-130374166D01*
X154661500Y-130737834D01*
X154676502Y-130832555D01*
X154734674Y-130946723D01*
X154825277Y-131037326D01*
X154899979Y-131075389D01*
X154906542Y-131078733D01*
X154958157Y-131127482D01*
X154975223Y-131196397D01*
X154952322Y-131263598D01*
X154906542Y-131303267D01*
X154825277Y-131344674D01*
X154734674Y-131435277D01*
X154676502Y-131549445D01*
X154661500Y-131644166D01*
X154661500Y-132007834D01*
X154676502Y-132102555D01*
X154681003Y-132111388D01*
X154728956Y-132205500D01*
X154734674Y-132216723D01*
X154737442Y-132219491D01*
X154760180Y-132283217D01*
X154744101Y-132352369D01*
X154698525Y-132398867D01*
X154666323Y-132417911D01*
X154653896Y-132427551D01*
X154547551Y-132533896D01*
X154537911Y-132546322D01*
X154461352Y-132675779D01*
X154455107Y-132690210D01*
X154416061Y-132824605D01*
X154416101Y-132838706D01*
X154423370Y-132842000D01*
X157352878Y-132842000D01*
X157366409Y-132838027D01*
X157367544Y-132830129D01*
X157326893Y-132690210D01*
X157320648Y-132675779D01*
X157244089Y-132546322D01*
X157234449Y-132533896D01*
X157122498Y-132421945D01*
X157124555Y-132419888D01*
X157091055Y-132373490D01*
X157087213Y-132302597D01*
X157122308Y-132240881D01*
X157185197Y-132207936D01*
X157209853Y-132205500D01*
X158286616Y-132205500D01*
X158354737Y-132225502D01*
X158375711Y-132242405D01*
X160365595Y-134232289D01*
X160399621Y-134294601D01*
X160402500Y-134321384D01*
X160402500Y-134982243D01*
X160382498Y-135050364D01*
X160335123Y-135093775D01*
X160331565Y-135095645D01*
X159630022Y-135797188D01*
X159622408Y-135811132D01*
X159622539Y-135812965D01*
X159626790Y-135819580D01*
X160332287Y-136525077D01*
X160336887Y-136527589D01*
X160387088Y-136577792D01*
X160402500Y-136638176D01*
X160402500Y-137958002D01*
X160382498Y-138026123D01*
X160365595Y-138047097D01*
X156249604Y-142163088D01*
X156187292Y-142197114D01*
X156116477Y-142192049D01*
X156059641Y-142149502D01*
X156035038Y-142085523D01*
X156031187Y-142043613D01*
X156031186Y-142043610D01*
X156030658Y-142037859D01*
X156027015Y-142024942D01*
X155977125Y-141848046D01*
X155977124Y-141848044D01*
X155975557Y-141842487D01*
X155968636Y-141828451D01*
X155888331Y-141665609D01*
X155885776Y-141660428D01*
X155764320Y-141497779D01*
X155615258Y-141359987D01*
X155610375Y-141356906D01*
X155610371Y-141356903D01*
X155448464Y-141254748D01*
X155443581Y-141251667D01*
X155255039Y-141176446D01*
X155249379Y-141175320D01*
X155249375Y-141175319D01*
X155061613Y-141137971D01*
X155061610Y-141137971D01*
X155055946Y-141136844D01*
X155050171Y-141136768D01*
X155050167Y-141136768D01*
X154990565Y-141135988D01*
X154922712Y-141115096D01*
X154876926Y-141060836D01*
X154867743Y-140990436D01*
X154898079Y-140926247D01*
X154910383Y-140914189D01*
X154911534Y-140913206D01*
X154911536Y-140913204D01*
X154917314Y-140908269D01*
X155009755Y-140779624D01*
X155068842Y-140632641D01*
X155080456Y-140551033D01*
X155090581Y-140479891D01*
X155090581Y-140479888D01*
X155091162Y-140475807D01*
X155091307Y-140462000D01*
X155072276Y-140304733D01*
X155016280Y-140156546D01*
X154973232Y-140093911D01*
X154930855Y-140032251D01*
X154930854Y-140032249D01*
X154926553Y-140025992D01*
X154920768Y-140020838D01*
X154845067Y-139953391D01*
X154807511Y-139893140D01*
X154802886Y-139859314D01*
X154802886Y-138841396D01*
X154822888Y-138773275D01*
X154876544Y-138726782D01*
X154948595Y-138716947D01*
X155034166Y-138730500D01*
X156747834Y-138730500D01*
X156842555Y-138715498D01*
X156956723Y-138657326D01*
X157047326Y-138566723D01*
X157105498Y-138452555D01*
X157120500Y-138357834D01*
X157120500Y-137994166D01*
X157105498Y-137899445D01*
X157047326Y-137785277D01*
X156956723Y-137694674D01*
X156875458Y-137653267D01*
X156823843Y-137604518D01*
X156806777Y-137535603D01*
X156829678Y-137468402D01*
X156875458Y-137428733D01*
X156881313Y-137425750D01*
X156956723Y-137387326D01*
X157047326Y-137296723D01*
X157105498Y-137182555D01*
X157120500Y-137087834D01*
X157120500Y-136896062D01*
X158536493Y-136896062D01*
X158545789Y-136908077D01*
X158596994Y-136943931D01*
X158606489Y-136949414D01*
X158803947Y-137041490D01*
X158814239Y-137045236D01*
X159024688Y-137101625D01*
X159035481Y-137103528D01*
X159252525Y-137122517D01*
X159263475Y-137122517D01*
X159480519Y-137103528D01*
X159491312Y-137101625D01*
X159701761Y-137045236D01*
X159712053Y-137041490D01*
X159909511Y-136949414D01*
X159919006Y-136943931D01*
X159971048Y-136907491D01*
X159979424Y-136897012D01*
X159972356Y-136883566D01*
X159270812Y-136182022D01*
X159256868Y-136174408D01*
X159255035Y-136174539D01*
X159248420Y-136178790D01*
X158542923Y-136884287D01*
X158536493Y-136896062D01*
X157120500Y-136896062D01*
X157120500Y-136724166D01*
X157105498Y-136629445D01*
X157047326Y-136515277D01*
X156956723Y-136424674D01*
X156875458Y-136383267D01*
X156823843Y-136334518D01*
X156806777Y-136265603D01*
X156829678Y-136198402D01*
X156875458Y-136158733D01*
X156883934Y-136154414D01*
X156956723Y-136117326D01*
X157047326Y-136026723D01*
X157105498Y-135912555D01*
X157120500Y-135817834D01*
X157120500Y-135815475D01*
X157945483Y-135815475D01*
X157964472Y-136032519D01*
X157966375Y-136043312D01*
X158022764Y-136253761D01*
X158026510Y-136264053D01*
X158118586Y-136461511D01*
X158124069Y-136471006D01*
X158160509Y-136523048D01*
X158170988Y-136531424D01*
X158184434Y-136524356D01*
X158885978Y-135822812D01*
X158893592Y-135808868D01*
X158893461Y-135807035D01*
X158889210Y-135800420D01*
X158183713Y-135094923D01*
X158171938Y-135088493D01*
X158159923Y-135097789D01*
X158124069Y-135148994D01*
X158118586Y-135158489D01*
X158026510Y-135355947D01*
X158022764Y-135366239D01*
X157966375Y-135576688D01*
X157964472Y-135587481D01*
X157945483Y-135804525D01*
X157945483Y-135815475D01*
X157120500Y-135815475D01*
X157120500Y-135454166D01*
X157105498Y-135359445D01*
X157065697Y-135281332D01*
X157051829Y-135254114D01*
X157051828Y-135254113D01*
X157047326Y-135245277D01*
X157044558Y-135242509D01*
X157021820Y-135178783D01*
X157037899Y-135109631D01*
X157083475Y-135063133D01*
X157115677Y-135044089D01*
X157128104Y-135034449D01*
X157234449Y-134928104D01*
X157244089Y-134915678D01*
X157320648Y-134786221D01*
X157326893Y-134771790D01*
X157341072Y-134722988D01*
X158536576Y-134722988D01*
X158543644Y-134736434D01*
X159245188Y-135437978D01*
X159259132Y-135445592D01*
X159260965Y-135445461D01*
X159267580Y-135441210D01*
X159973077Y-134735713D01*
X159979507Y-134723938D01*
X159970211Y-134711923D01*
X159919006Y-134676069D01*
X159909511Y-134670586D01*
X159712053Y-134578510D01*
X159701761Y-134574764D01*
X159491312Y-134518375D01*
X159480519Y-134516472D01*
X159263475Y-134497483D01*
X159252525Y-134497483D01*
X159035481Y-134516472D01*
X159024688Y-134518375D01*
X158814239Y-134574764D01*
X158803947Y-134578510D01*
X158606489Y-134670586D01*
X158596994Y-134676069D01*
X158544952Y-134712509D01*
X158536576Y-134722988D01*
X157341072Y-134722988D01*
X157365939Y-134637395D01*
X157365899Y-134623294D01*
X157358630Y-134620000D01*
X154429122Y-134620000D01*
X154415591Y-134623973D01*
X154414456Y-134631871D01*
X154455107Y-134771790D01*
X154461353Y-134786223D01*
X154478573Y-134815342D01*
X154496031Y-134884158D01*
X154473513Y-134951489D01*
X154418168Y-134995957D01*
X154347567Y-135003445D01*
X154339438Y-135001686D01*
X154260633Y-134981892D01*
X154253034Y-134981852D01*
X154253033Y-134981852D01*
X154187181Y-134981507D01*
X154102221Y-134981062D01*
X154094841Y-134982834D01*
X154094839Y-134982834D01*
X153955563Y-135016271D01*
X153955560Y-135016272D01*
X153948184Y-135018043D01*
X153807414Y-135090700D01*
X153688039Y-135194838D01*
X153596950Y-135324444D01*
X153539406Y-135472037D01*
X153538140Y-135471544D01*
X153505938Y-135525653D01*
X153442408Y-135557347D01*
X153371829Y-135549663D01*
X153331108Y-135522414D01*
X153265925Y-135457231D01*
X153231899Y-135394919D01*
X153229020Y-135368136D01*
X153229020Y-133361871D01*
X154414456Y-133361871D01*
X154455107Y-133501790D01*
X154461352Y-133516221D01*
X154537912Y-133645678D01*
X154544189Y-133653770D01*
X154570139Y-133719854D01*
X154556241Y-133789477D01*
X154544189Y-133808230D01*
X154537912Y-133816322D01*
X154461352Y-133945779D01*
X154455107Y-133960210D01*
X154416061Y-134094605D01*
X154416101Y-134108706D01*
X154423370Y-134112000D01*
X155618885Y-134112000D01*
X155634124Y-134107525D01*
X155635329Y-134106135D01*
X155637000Y-134098452D01*
X155637000Y-134093885D01*
X156145000Y-134093885D01*
X156149475Y-134109124D01*
X156150865Y-134110329D01*
X156158548Y-134112000D01*
X157352878Y-134112000D01*
X157366409Y-134108027D01*
X157367544Y-134100129D01*
X157326893Y-133960210D01*
X157320648Y-133945779D01*
X157244088Y-133816322D01*
X157237811Y-133808230D01*
X157211861Y-133742146D01*
X157225759Y-133672523D01*
X157237811Y-133653770D01*
X157244088Y-133645678D01*
X157320648Y-133516221D01*
X157326893Y-133501790D01*
X157365939Y-133367395D01*
X157365899Y-133353294D01*
X157358630Y-133350000D01*
X156163115Y-133350000D01*
X156147876Y-133354475D01*
X156146671Y-133355865D01*
X156145000Y-133363548D01*
X156145000Y-134093885D01*
X155637000Y-134093885D01*
X155637000Y-133368115D01*
X155632525Y-133352876D01*
X155631135Y-133351671D01*
X155623452Y-133350000D01*
X154429122Y-133350000D01*
X154415591Y-133353973D01*
X154414456Y-133361871D01*
X153229020Y-133361871D01*
X153229020Y-130236656D01*
X153231570Y-130212698D01*
X153231648Y-130211039D01*
X153233841Y-130200855D01*
X153232617Y-130190513D01*
X153232617Y-130190510D01*
X153229894Y-130167510D01*
X153229544Y-130161579D01*
X153229448Y-130161587D01*
X153229020Y-130156411D01*
X153229020Y-130151207D01*
X153225847Y-130132143D01*
X153225016Y-130126297D01*
X153220214Y-130085732D01*
X153218990Y-130075390D01*
X153215027Y-130067138D01*
X153213524Y-130058105D01*
X153206964Y-130045946D01*
X153189186Y-130012999D01*
X153186489Y-130007706D01*
X153167735Y-129968650D01*
X153167734Y-129968649D01*
X153164301Y-129961499D01*
X153160707Y-129957224D01*
X153158782Y-129955299D01*
X153157011Y-129953369D01*
X153156965Y-129953284D01*
X153157088Y-129953172D01*
X153156616Y-129952637D01*
X153153530Y-129946917D01*
X153113933Y-129910314D01*
X153110368Y-129906885D01*
X151751267Y-128547784D01*
X151736125Y-128529036D01*
X151735011Y-128527811D01*
X151729360Y-128519060D01*
X151721179Y-128512611D01*
X151714172Y-128504910D01*
X151716165Y-128503096D01*
X151684032Y-128457858D01*
X151680738Y-128386938D01*
X151700827Y-128343265D01*
X151707755Y-128333624D01*
X151708631Y-128331445D01*
X151757392Y-128282965D01*
X151826809Y-128268075D01*
X151893257Y-128293078D01*
G37*
%TD.AperFunction*%
%TD*%
M02*
