%TF.GenerationSoftware,KiCad,Pcbnew,(6.0.4)*%
%TF.CreationDate,2023-06-25T20:19:56+02:00*%
%TF.ProjectId,CH376_MCP795_Module,43483337-365f-44d4-9350-3739355f4d6f,rev?*%
%TF.SameCoordinates,Original*%
%TF.FileFunction,Legend,Bot*%
%TF.FilePolarity,Positive*%
%FSLAX46Y46*%
G04 Gerber Fmt 4.6, Leading zero omitted, Abs format (unit mm)*
G04 Created by KiCad (PCBNEW (6.0.4)) date 2023-06-25 20:19:56*
%MOMM*%
%LPD*%
G01*
G04 APERTURE LIST*
%ADD10C,0.150000*%
%ADD11C,0.100000*%
%ADD12C,0.120000*%
G04 APERTURE END LIST*
D10*
X143049047Y-138517380D02*
X143049047Y-139231666D01*
X143096666Y-139374523D01*
X143191904Y-139469761D01*
X143334761Y-139517380D01*
X143430000Y-139517380D01*
X142096666Y-139517380D02*
X142572857Y-139517380D01*
X142572857Y-138517380D01*
X141191904Y-139422142D02*
X141239523Y-139469761D01*
X141382380Y-139517380D01*
X141477619Y-139517380D01*
X141620476Y-139469761D01*
X141715714Y-139374523D01*
X141763333Y-139279285D01*
X141810952Y-139088809D01*
X141810952Y-138945952D01*
X141763333Y-138755476D01*
X141715714Y-138660238D01*
X141620476Y-138565000D01*
X141477619Y-138517380D01*
X141382380Y-138517380D01*
X141239523Y-138565000D01*
X141191904Y-138612619D01*
X140477619Y-138517380D02*
X140477619Y-139231666D01*
X140525238Y-139374523D01*
X140620476Y-139469761D01*
X140763333Y-139517380D01*
X140858571Y-139517380D01*
X139525238Y-139517380D02*
X140001428Y-139517380D01*
X140001428Y-138517380D01*
X138620476Y-139422142D02*
X138668095Y-139469761D01*
X138810952Y-139517380D01*
X138906190Y-139517380D01*
X139049047Y-139469761D01*
X139144285Y-139374523D01*
X139191904Y-139279285D01*
X139239523Y-139088809D01*
X139239523Y-138945952D01*
X139191904Y-138755476D01*
X139144285Y-138660238D01*
X139049047Y-138565000D01*
X138906190Y-138517380D01*
X138810952Y-138517380D01*
X138668095Y-138565000D01*
X138620476Y-138612619D01*
X137906190Y-138517380D02*
X137906190Y-139231666D01*
X137953809Y-139374523D01*
X138049047Y-139469761D01*
X138191904Y-139517380D01*
X138287142Y-139517380D01*
X136953809Y-139517380D02*
X137430000Y-139517380D01*
X137430000Y-138517380D01*
X136049047Y-139422142D02*
X136096666Y-139469761D01*
X136239523Y-139517380D01*
X136334761Y-139517380D01*
X136477619Y-139469761D01*
X136572857Y-139374523D01*
X136620476Y-139279285D01*
X136668095Y-139088809D01*
X136668095Y-138945952D01*
X136620476Y-138755476D01*
X136572857Y-138660238D01*
X136477619Y-138565000D01*
X136334761Y-138517380D01*
X136239523Y-138517380D01*
X136096666Y-138565000D01*
X136049047Y-138612619D01*
X135334761Y-138517380D02*
X135334761Y-139231666D01*
X135382380Y-139374523D01*
X135477619Y-139469761D01*
X135620476Y-139517380D01*
X135715714Y-139517380D01*
X134382380Y-139517380D02*
X134858571Y-139517380D01*
X134858571Y-138517380D01*
X133477619Y-139422142D02*
X133525238Y-139469761D01*
X133668095Y-139517380D01*
X133763333Y-139517380D01*
X133906190Y-139469761D01*
X134001428Y-139374523D01*
X134049047Y-139279285D01*
X134096666Y-139088809D01*
X134096666Y-138945952D01*
X134049047Y-138755476D01*
X134001428Y-138660238D01*
X133906190Y-138565000D01*
X133763333Y-138517380D01*
X133668095Y-138517380D01*
X133525238Y-138565000D01*
X133477619Y-138612619D01*
%TO.C,BT0*%
X149578714Y-120578571D02*
X149435857Y-120626190D01*
X149388238Y-120673809D01*
X149340619Y-120769047D01*
X149340619Y-120911904D01*
X149388238Y-121007142D01*
X149435857Y-121054761D01*
X149531095Y-121102380D01*
X149912047Y-121102380D01*
X149912047Y-120102380D01*
X149578714Y-120102380D01*
X149483476Y-120150000D01*
X149435857Y-120197619D01*
X149388238Y-120292857D01*
X149388238Y-120388095D01*
X149435857Y-120483333D01*
X149483476Y-120530952D01*
X149578714Y-120578571D01*
X149912047Y-120578571D01*
X149054904Y-120102380D02*
X148483476Y-120102380D01*
X148769190Y-121102380D02*
X148769190Y-120102380D01*
X147959666Y-120102380D02*
X147864428Y-120102380D01*
X147769190Y-120150000D01*
X147721571Y-120197619D01*
X147673952Y-120292857D01*
X147626333Y-120483333D01*
X147626333Y-120721428D01*
X147673952Y-120911904D01*
X147721571Y-121007142D01*
X147769190Y-121054761D01*
X147864428Y-121102380D01*
X147959666Y-121102380D01*
X148054904Y-121054761D01*
X148102523Y-121007142D01*
X148150142Y-120911904D01*
X148197761Y-120721428D01*
X148197761Y-120483333D01*
X148150142Y-120292857D01*
X148102523Y-120197619D01*
X148054904Y-120150000D01*
X147959666Y-120102380D01*
%TO.C,J1*%
X137829333Y-108990380D02*
X137829333Y-109704666D01*
X137876952Y-109847523D01*
X137972190Y-109942761D01*
X138115047Y-109990380D01*
X138210285Y-109990380D01*
X136829333Y-109990380D02*
X137400761Y-109990380D01*
X137115047Y-109990380D02*
X137115047Y-108990380D01*
X137210285Y-109133238D01*
X137305523Y-109228476D01*
X137400761Y-109276095D01*
D11*
%TO.C,BT0*%
X163138000Y-120650000D02*
X163138000Y-120650000D01*
X140378000Y-120650000D02*
X140378000Y-120650000D01*
X140838000Y-117650000D02*
X134448000Y-117650000D01*
X134448000Y-123650000D02*
X140838000Y-123650000D01*
X134448000Y-117650000D02*
X134448000Y-123650000D01*
X163138000Y-120650000D02*
G75*
G03*
X140378000Y-120650000I-11380000J0D01*
G01*
X140378000Y-120650000D02*
G75*
G03*
X163138000Y-120650000I11380000J0D01*
G01*
D12*
%TO.C,J1*%
X135586000Y-102628000D02*
X135586000Y-94088000D01*
X150306000Y-106328000D02*
X150306000Y-108308000D01*
X139446000Y-108688000D02*
X139946000Y-109188000D01*
X135586000Y-108308000D02*
X135586000Y-106328000D01*
X135586000Y-108308000D02*
X150306000Y-108308000D01*
X139946000Y-109188000D02*
X138946000Y-109188000D01*
X150306000Y-102628000D02*
X150306000Y-94088000D01*
X135586000Y-94088000D02*
X150306000Y-94088000D01*
X138946000Y-109188000D02*
X139446000Y-108688000D01*
%TD*%
M02*
