M48
; DRILL file {KiCad (6.0.4)} date Sun Jun 25 20:19:58 2023
; FORMAT={-:-/ absolute / metric / decimal}
; #@! TF.CreationDate,2023-06-25T20:19:58+02:00
; #@! TF.GenerationSoftware,Kicad,Pcbnew,(6.0.4)
; #@! TF.FileFunction,Plated,1,2,PTH
FMAT,2
METRIC
; #@! TA.AperFunction,Plated,PTH,ViaDrill
T1C0.400
; #@! TA.AperFunction,Plated,PTH,ComponentDrill
T2C0.500
; #@! TA.AperFunction,Plated,PTH,ComponentDrill
T3C0.800
; #@! TA.AperFunction,Plated,PTH,ComponentDrill
T4C0.900
; #@! TA.AperFunction,Plated,PTH,ComponentDrill
T5C0.920
; #@! TA.AperFunction,Plated,PTH,ComponentDrill
T6C1.000
; #@! TA.AperFunction,Plated,PTH,ComponentDrill
T7C1.520
; #@! TA.AperFunction,Plated,PTH,ComponentDrill
T8C2.300
%
G90
G05
T1
X132.08Y-106.68
X132.08Y-111.76
X132.08Y-116.84
X132.08Y-121.92
X132.08Y-127.0
X132.08Y-132.08
X132.08Y-137.16
X132.08Y-142.24
X134.62Y-101.6
X138.684Y-119.634
X138.684Y-121.666
X139.192Y-138.938
X139.7Y-101.6
X141.224Y-110.236
X141.986Y-127.508
X141.986Y-136.144
X144.272Y-110.236
X144.526Y-112.522
X144.78Y-101.6
X145.034Y-129.032
X145.034Y-136.652
X145.034Y-139.192
X145.288Y-117.602
X145.288Y-119.634
X145.288Y-121.666
X145.542Y-114.3
X145.796Y-133.858
X146.812Y-122.936
X146.812Y-137.922
X147.828Y-134.112
X149.098Y-120.65
X149.098Y-133.096
X151.13Y-128.016
X152.146Y-139.7
X152.4Y-101.6
X153.67Y-127.254
X153.924Y-120.65
X153.924Y-130.302
X153.924Y-134.366
X154.178Y-135.636
X154.178Y-136.906
X154.432Y-140.462
X154.686Y-128.778
X154.813Y-123.404
X155.956Y-115.062
X156.21Y-140.97
X156.718Y-126.238
X157.48Y-101.6
X157.48Y-129.794
X157.48Y-142.494
X157.48Y-146.05
X158.242Y-110.744
X158.496Y-139.192
X158.496Y-144.78
X159.258Y-121.666
X159.512Y-140.716
X160.274Y-110.744
X161.29Y-116.84
X161.29Y-120.904
X161.29Y-124.714
X162.56Y-101.6
X162.56Y-115.57
X162.56Y-125.984
X165.1Y-106.68
X165.1Y-111.76
X165.1Y-116.84
X165.1Y-121.92
X165.1Y-127.0
X165.1Y-132.08
X165.1Y-137.16
X165.1Y-142.24
T2
X147.828Y-130.434
X147.828Y-132.334
T3
X134.62Y-142.24
X134.62Y-144.78
X135.382Y-112.522
X137.922Y-142.24
X137.922Y-144.78
X140.382Y-112.522
X152.4Y-112.522
X156.21Y-104.648
X156.21Y-107.188
X157.4Y-112.522
X159.258Y-130.81
X159.258Y-135.81
X161.29Y-118.364
X161.29Y-123.244
T4
X160.015Y-104.648
X162.555Y-104.648
T5
X139.446Y-107.188
X141.946Y-107.188
X143.946Y-107.188
X146.446Y-107.188
T6
X142.24Y-142.24
X142.24Y-144.78
X144.78Y-142.24
X144.78Y-144.78
X147.32Y-142.24
X147.32Y-144.78
X149.86Y-142.24
X149.86Y-144.78
X152.4Y-142.24
X152.4Y-144.78
X154.94Y-142.24
X154.94Y-144.78
X162.56Y-130.81
X162.56Y-133.35
X162.56Y-135.89
X162.56Y-138.43
X162.56Y-140.97
X162.56Y-143.51
T7
X136.228Y-120.65
X156.718Y-120.65
T8
X136.376Y-104.478
X149.516Y-104.478
T0
M30
